<svg xmlns="http://www.w3.org/2000/svg" xmlns:xlink="http://www.w3.org/1999/xlink" width="1123" zoomAndPan="magnify" viewBox="0 0 841.92 595.499987" height="794" preserveAspectRatio="xMidYMid meet" version="1.0"><defs><g/><clipPath id="id1"><path d="M 0.3125 0 L 841.527344 0 L 841.527344 595 L 0.3125 595 Z M 0.3125 0 " clip-rule="nonzero"/></clipPath><clipPath id="id2"><path d="M 0.3125 0 L 841.527344 0 L 841.527344 594.824219 L 0.3125 594.824219 Z M 0.3125 0 " clip-rule="nonzero"/></clipPath></defs><g clip-path="url(#id1)"><path fill="#ffffff" d="M 0.3125 0 L 841.605469 0 L 841.605469 602.316406 L 0.3125 602.316406 Z M 0.3125 0 " fill-opacity="1" fill-rule="nonzero"/><path fill="#ffffff" d="M 0.3125 0 L 841.605469 0 L 841.605469 594.824219 L 0.3125 594.824219 Z M 0.3125 0 " fill-opacity="1" fill-rule="nonzero"/></g><g clip-path="url(#id2)"><path fill="#ffffff" d="M 0.3125 0 L 841.605469 0 L 841.605469 594.824219 L 0.3125 594.824219 Z M 0.3125 0 " fill-opacity="1" fill-rule="nonzero"/><path fill="#ffffff" d="M 0.3125 0 L 841.605469 0 L 841.605469 594.824219 L 0.3125 594.824219 Z M 0.3125 0 " fill-opacity="1" fill-rule="nonzero"/></g><g fill="#000000" fill-opacity="1"><g transform="translate(0.313197, 324.632289)"><g><path d="M 93.171875 -77.546875 L 93.171875 0 L 85.296875 0 L 85.296875 -62.03125 L 54.84375 -9.859375 L 50.953125 -9.859375 L 20.5 -61.703125 L 20.5 0 L 12.625 0 L 12.625 -77.546875 L 19.390625 -77.546875 L 53.0625 -20.046875 L 86.40625 -77.546875 Z M 93.171875 -77.546875 "/></g></g></g><g fill="#000000" fill-opacity="1"><g transform="translate(106.035866, 324.632289)"><g><path d="M 61.265625 -20.71875 L 18.0625 -20.71875 L 8.75 0 L 0.21875 0 L 35.671875 -77.546875 L 43.765625 -77.546875 L 79.203125 0 L 70.5625 0 Z M 58.265625 -27.359375 L 39.65625 -69.015625 L 21.046875 -27.359375 Z M 58.265625 -27.359375 "/></g></g></g><g fill="#000000" fill-opacity="1"><g transform="translate(185.410941, 324.632289)"><g><path d="M 34.015625 0.671875 C 28.253906 0.671875 22.734375 -0.25 17.453125 -2.09375 C 12.171875 -3.945312 8.085938 -6.390625 5.203125 -9.421875 L 8.421875 -15.734375 C 11.222656 -12.921875 14.953125 -10.644531 19.609375 -8.90625 C 24.265625 -7.175781 29.066406 -6.3125 34.015625 -6.3125 C 40.953125 -6.3125 46.15625 -7.582031 49.625 -10.125 C 53.101562 -12.675781 54.84375 -15.984375 54.84375 -20.046875 C 54.84375 -23.148438 53.898438 -25.625 52.015625 -27.46875 C 50.128906 -29.320312 47.816406 -30.742188 45.078125 -31.734375 C 42.347656 -32.734375 38.546875 -33.820312 33.671875 -35 C 27.835938 -36.476562 23.1875 -37.898438 19.71875 -39.265625 C 16.25 -40.640625 13.273438 -42.726562 10.796875 -45.53125 C 8.328125 -48.332031 7.09375 -52.132812 7.09375 -56.9375 C 7.09375 -60.851562 8.125 -64.414062 10.1875 -67.625 C 12.257812 -70.84375 15.4375 -73.410156 19.71875 -75.328125 C 24 -77.253906 29.316406 -78.21875 35.671875 -78.21875 C 40.097656 -78.21875 44.4375 -77.609375 48.6875 -76.390625 C 52.9375 -75.171875 56.613281 -73.488281 59.71875 -71.34375 L 56.9375 -64.8125 C 53.6875 -66.945312 50.210938 -68.550781 46.515625 -69.625 C 42.828125 -70.695312 39.210938 -71.234375 35.671875 -71.234375 C 28.878906 -71.234375 23.765625 -69.921875 20.328125 -67.296875 C 16.890625 -64.671875 15.171875 -61.289062 15.171875 -57.15625 C 15.171875 -54.0625 16.113281 -51.570312 18 -49.6875 C 19.882812 -47.800781 22.25 -46.359375 25.09375 -45.359375 C 27.9375 -44.367188 31.757812 -43.28125 36.5625 -42.09375 C 42.25 -40.6875 46.84375 -39.300781 50.34375 -37.9375 C 53.851562 -36.570312 56.828125 -34.503906 59.265625 -31.734375 C 61.703125 -28.960938 62.921875 -25.21875 62.921875 -20.5 C 62.921875 -16.582031 61.867188 -13.015625 59.765625 -9.796875 C 57.660156 -6.585938 54.425781 -4.039062 50.0625 -2.15625 C 45.707031 -0.269531 40.359375 0.671875 34.015625 0.671875 Z M 34.015625 0.671875 "/></g></g></g><g fill="#000000" fill-opacity="1"><g transform="translate(253.494137, 324.632289)"><g><path d="M 27.6875 -70.453125 L 0.4375 -70.453125 L 0.4375 -77.546875 L 63.140625 -77.546875 L 63.140625 -70.453125 L 35.890625 -70.453125 L 35.890625 0 L 27.6875 0 Z M 27.6875 -70.453125 "/></g></g></g><g fill="#000000" fill-opacity="1"><g transform="translate(317.038464, 324.632289)"><g><path d="M 67.46875 -7.09375 L 67.46875 0 L 12.625 0 L 12.625 -77.546875 L 65.796875 -77.546875 L 65.796875 -70.453125 L 20.828125 -70.453125 L 20.828125 -42.875 L 60.921875 -42.875 L 60.921875 -35.890625 L 20.828125 -35.890625 L 20.828125 -7.09375 Z M 67.46875 -7.09375 "/></g></g></g><g fill="#000000" fill-opacity="1"><g transform="translate(391.099709, 324.632289)"><g><path d="M 65.578125 0 L 47.859375 -24.921875 C 45.859375 -24.703125 43.789062 -24.59375 41.65625 -24.59375 L 20.828125 -24.59375 L 20.828125 0 L 12.625 0 L 12.625 -77.546875 L 41.65625 -77.546875 C 51.550781 -77.546875 59.304688 -75.179688 64.921875 -70.453125 C 70.535156 -65.722656 73.34375 -59.222656 73.34375 -50.953125 C 73.34375 -44.898438 71.804688 -39.785156 68.734375 -35.609375 C 65.671875 -31.441406 61.296875 -28.4375 55.609375 -26.59375 L 74.5625 0 Z M 41.4375 -31.578125 C 49.113281 -31.578125 54.984375 -33.273438 59.046875 -36.671875 C 63.109375 -40.066406 65.140625 -44.828125 65.140625 -50.953125 C 65.140625 -57.234375 63.109375 -62.050781 59.046875 -65.40625 C 54.984375 -68.769531 49.113281 -70.453125 41.4375 -70.453125 L 20.828125 -70.453125 L 20.828125 -31.578125 Z M 41.4375 -31.578125 "/></g></g></g><g fill="#a01636" fill-opacity="1"><g transform="translate(496.910072, 324.632289)"><g><path d="M 25.265625 -62.921875 L 0.4375 -62.921875 L 0.4375 -77.546875 L 68.015625 -77.546875 L 68.015625 -62.921875 L 43.203125 -62.921875 L 43.203125 0 L 25.265625 0 Z M 25.265625 -62.921875 "/></g></g></g><g fill="#a01636" fill-opacity="1"><g transform="translate(565.325414, 324.632289)"><g><path d="M 69.234375 -14.40625 L 69.234375 0 L 9.1875 0 L 9.1875 -77.546875 L 67.796875 -77.546875 L 67.796875 -63.140625 L 27.03125 -63.140625 L 27.03125 -46.3125 L 63.03125 -46.3125 L 63.03125 -32.34375 L 27.03125 -32.34375 L 27.03125 -14.40625 Z M 69.234375 -14.40625 "/></g></g></g><g fill="#a01636" fill-opacity="1"><g transform="translate(639.608066, 324.632289)"><g><path d="M 60.265625 -16.609375 L 24.265625 -16.609375 L 17.390625 0 L -1 0 L 33.5625 -77.546875 L 51.296875 -77.546875 L 85.96875 0 L 67.140625 0 Z M 54.609375 -30.25 L 42.3125 -59.9375 L 30.015625 -30.25 Z M 54.609375 -30.25 "/></g></g></g><g fill="#a01636" fill-opacity="1"><g transform="translate(724.407634, 324.632289)"><g><path d="M 79.765625 0 L 79.65625 -46.53125 L 56.828125 -8.203125 L 48.75 -8.203125 L 26.03125 -45.53125 L 26.03125 0 L 9.1875 0 L 9.1875 -77.546875 L 24.046875 -77.546875 L 53.0625 -29.359375 L 81.640625 -77.546875 L 96.375 -77.546875 L 96.59375 0 Z M 79.765625 0 "/></g></g></g></svg>