<svg xmlns="http://www.w3.org/2000/svg" xmlns:xlink="http://www.w3.org/1999/xlink" width="1123" zoomAndPan="magnify" viewBox="0 0 841.92 595.499987" height="794" preserveAspectRatio="xMidYMid meet" version="1.0"><defs><g/><clipPath id="id1"><path d="M 0.3125 0 L 841.527344 0 L 841.527344 595 L 0.3125 595 Z M 0.3125 0 " clip-rule="nonzero"/></clipPath><clipPath id="id2"><path d="M 0.3125 0 L 841.527344 0 L 841.527344 594.824219 L 0.3125 594.824219 Z M 0.3125 0 " clip-rule="nonzero"/></clipPath></defs><g clip-path="url(#id1)"><path fill="#ffffff" d="M 0.3125 0 L 841.605469 0 L 841.605469 602.316406 L 0.3125 602.316406 Z M 0.3125 0 " fill-opacity="1" fill-rule="nonzero"/><path fill="#ffffff" d="M 0.3125 0 L 841.605469 0 L 841.605469 594.824219 L 0.3125 594.824219 Z M 0.3125 0 " fill-opacity="1" fill-rule="nonzero"/></g><g clip-path="url(#id2)"><path fill="#ffffff" d="M 0.3125 0 L 841.605469 0 L 841.605469 594.824219 L 0.3125 594.824219 Z M 0.3125 0 " fill-opacity="1" fill-rule="nonzero"/><path fill="#ffffff" d="M 0.3125 0 L 841.605469 0 L 841.605469 594.824219 L 0.3125 594.824219 Z M 0.3125 0 " fill-opacity="1" fill-rule="nonzero"/></g><g fill="#a01636" fill-opacity="1"><g transform="translate(18.39799, 279.002475)"><g><path d="M 56.1875 -11.6875 L 56.1875 0 L 7.453125 0 L 7.453125 -62.921875 L 55.015625 -62.921875 L 55.015625 -51.234375 L 21.9375 -51.234375 L 21.9375 -37.578125 L 51.140625 -37.578125 L 51.140625 -26.25 L 21.9375 -26.25 L 21.9375 -11.6875 Z M 56.1875 -11.6875 "/></g></g></g><g fill="#a01636" fill-opacity="1"><g transform="translate(14.121071, 380.980757)"><g><path d="M 48.90625 -13.484375 L 19.6875 -13.484375 L 14.109375 0 L -0.8125 0 L 27.234375 -62.921875 L 41.625 -62.921875 L 69.75 0 L 54.46875 0 Z M 44.3125 -24.546875 L 34.34375 -48.625 L 24.359375 -24.546875 Z M 44.3125 -24.546875 "/></g></g></g><g fill="#a01636" fill-opacity="1"><g transform="translate(6.148204, 484.641008)"><g><path d="M 64.71875 0 L 64.625 -37.75 L 46.109375 -6.65625 L 39.546875 -6.65625 L 21.125 -36.9375 L 21.125 0 L 7.453125 0 L 7.453125 -62.921875 L 19.5 -62.921875 L 43.0625 -23.828125 L 66.25 -62.921875 L 78.203125 -62.921875 L 78.390625 0 Z M 64.71875 0 "/></g></g></g><g fill="#a01636" fill-opacity="1"><g transform="translate(20.76155, 171.220683)"><g><path d="M 20.5 -51.0625 L 0.359375 -51.0625 L 0.359375 -62.921875 L 55.1875 -62.921875 L 55.1875 -51.0625 L 35.0625 -51.0625 L 35.0625 0 L 20.5 0 Z M 20.5 -51.0625 "/></g></g></g><g fill="#a01636" fill-opacity="1"><g transform="translate(190.498299, 187.693954)"><g><path d="M 13.265625 -33.3125 L 0.21875 -33.3125 L 0.21875 -38.046875 L 31.6875 -38.046875 L 31.6875 -33.3125 L 18.640625 -33.3125 L 18.640625 0 L 13.265625 0 Z M 13.265625 -33.3125 "/></g></g></g><g fill="#000000" fill-opacity="1"><g transform="translate(222.394303, 187.693954)"><g/></g></g><g fill="#000000" fill-opacity="1"><g transform="translate(237.008227, 187.693954)"><g><path d="M 32.171875 0 L 23.46875 -12.234375 C 22.5 -12.117188 21.488281 -12.0625 20.4375 -12.0625 L 10.21875 -12.0625 L 10.21875 0 L 6.1875 0 L 6.1875 -38.046875 L 20.4375 -38.046875 C 25.289062 -38.046875 29.09375 -36.882812 31.84375 -34.5625 C 34.59375 -32.238281 35.96875 -29.050781 35.96875 -25 C 35.96875 -22.03125 35.21875 -19.519531 33.71875 -17.46875 C 32.21875 -15.425781 30.070312 -13.953125 27.28125 -13.046875 L 36.578125 0 Z M 20.328125 -15.484375 C 24.085938 -15.484375 26.960938 -16.316406 28.953125 -17.984375 C 30.953125 -19.648438 31.953125 -21.988281 31.953125 -25 C 31.953125 -28.082031 30.953125 -30.445312 28.953125 -32.09375 C 26.960938 -33.738281 24.085938 -34.5625 20.328125 -34.5625 L 10.21875 -34.5625 L 10.21875 -15.484375 Z M 20.328125 -15.484375 "/></g></g></g><g fill="#000000" fill-opacity="1"><g transform="translate(276.294771, 187.693954)"><g/></g></g><g fill="#000000" fill-opacity="1"><g transform="translate(290.531395, 187.693954)"><g><path d="M 30.046875 -10.15625 L 8.859375 -10.15625 L 4.296875 0 L 0.109375 0 L 17.5 -38.046875 L 21.46875 -38.046875 L 38.859375 0 L 34.609375 0 Z M 28.578125 -13.421875 L 19.453125 -33.859375 L 10.328125 -13.421875 Z M 28.578125 -13.421875 "/></g></g></g><g fill="#000000" fill-opacity="1"><g transform="translate(329.491919, 187.693954)"><g/></g></g><g fill="#000000" fill-opacity="1"><g transform="translate(343.728543, 187.693954)"><g><path d="M 37.984375 -38.046875 L 37.984375 0 L 34.671875 0 L 10.21875 -30.875 L 10.21875 0 L 6.1875 0 L 6.1875 -38.046875 L 9.515625 -38.046875 L 34.015625 -7.171875 L 34.015625 -38.046875 Z M 37.984375 -38.046875 "/></g></g></g><g fill="#000000" fill-opacity="1"><g transform="translate(387.905538, 187.693954)"><g/></g></g><g fill="#000000" fill-opacity="1"><g transform="translate(402.142161, 187.693954)"><g><path d="M 16.6875 0.328125 C 13.851562 0.328125 11.140625 -0.125 8.546875 -1.03125 C 5.960938 -1.9375 3.960938 -3.132812 2.546875 -4.625 L 4.125 -7.71875 C 5.5 -6.34375 7.328125 -5.226562 9.609375 -4.375 C 11.898438 -3.519531 14.257812 -3.09375 16.6875 -3.09375 C 20.09375 -3.09375 22.644531 -3.71875 24.34375 -4.96875 C 26.050781 -6.21875 26.90625 -7.84375 26.90625 -9.84375 C 26.90625 -11.363281 26.441406 -12.570312 25.515625 -13.46875 C 24.585938 -14.375 23.453125 -15.070312 22.109375 -15.5625 C 20.773438 -16.050781 18.910156 -16.585938 16.515625 -17.171875 C 13.660156 -17.898438 11.378906 -18.597656 9.671875 -19.265625 C 7.972656 -19.929688 6.515625 -20.953125 5.296875 -22.328125 C 4.085938 -23.710938 3.484375 -25.582031 3.484375 -27.9375 C 3.484375 -29.851562 3.988281 -31.597656 5 -33.171875 C 6.007812 -34.753906 7.566406 -36.015625 9.671875 -36.953125 C 11.773438 -37.890625 14.382812 -38.359375 17.5 -38.359375 C 19.675781 -38.359375 21.804688 -38.0625 23.890625 -37.46875 C 25.972656 -36.875 27.773438 -36.050781 29.296875 -35 L 27.9375 -31.796875 C 26.34375 -32.835938 24.640625 -33.617188 22.828125 -34.140625 C 21.015625 -34.671875 19.238281 -34.9375 17.5 -34.9375 C 14.164062 -34.9375 11.65625 -34.289062 9.96875 -33 C 8.28125 -31.71875 7.4375 -30.066406 7.4375 -28.046875 C 7.4375 -26.523438 7.898438 -25.300781 8.828125 -24.375 C 9.753906 -23.445312 10.914062 -22.738281 12.3125 -22.25 C 13.707031 -21.757812 15.582031 -21.226562 17.9375 -20.65625 C 20.726562 -19.96875 22.984375 -19.285156 24.703125 -18.609375 C 26.421875 -17.941406 27.878906 -16.925781 29.078125 -15.5625 C 30.273438 -14.207031 30.875 -12.367188 30.875 -10.046875 C 30.875 -8.128906 30.351562 -6.382812 29.3125 -4.8125 C 28.28125 -3.238281 26.695312 -1.988281 24.5625 -1.0625 C 22.425781 -0.132812 19.800781 0.328125 16.6875 0.328125 Z M 16.6875 0.328125 "/></g></g></g><g fill="#000000" fill-opacity="1"><g transform="translate(435.560181, 187.693954)"><g/></g></g><g fill="#000000" fill-opacity="1"><g transform="translate(449.796805, 187.693954)"><g><path d="M 6.1875 -38.046875 L 10.21875 -38.046875 L 10.21875 -3.484375 L 31.515625 -3.484375 L 31.515625 0 L 6.1875 0 Z M 6.1875 -38.046875 "/></g></g></g><g fill="#000000" fill-opacity="1"><g transform="translate(481.802021, 187.693954)"><g/></g></g><g fill="#000000" fill-opacity="1"><g transform="translate(496.038644, 187.693954)"><g><path d="M 30.046875 -10.15625 L 8.859375 -10.15625 L 4.296875 0 L 0.109375 0 L 17.5 -38.046875 L 21.46875 -38.046875 L 38.859375 0 L 34.609375 0 Z M 28.578125 -13.421875 L 19.453125 -33.859375 L 10.328125 -13.421875 Z M 28.578125 -13.421875 "/></g></g></g><g fill="#000000" fill-opacity="1"><g transform="translate(549.235792, 187.693954)"><g><path d="M 13.578125 -34.5625 L 0.21875 -34.5625 L 0.21875 -38.046875 L 30.96875 -38.046875 L 30.96875 -34.5625 L 17.609375 -34.5625 L 17.609375 0 L 13.578125 0 Z M 13.578125 -34.5625 "/></g></g></g><g fill="#000000" fill-opacity="1"><g transform="translate(580.42595, 187.693954)"><g/></g></g><g fill="#000000" fill-opacity="1"><g transform="translate(594.662573, 187.693954)"><g><path d="M 6.1875 -38.046875 L 10.21875 -38.046875 L 10.21875 0 L 6.1875 0 Z M 6.1875 -38.046875 "/></g></g></g><g fill="#000000" fill-opacity="1"><g transform="translate(611.072737, 187.693954)"><g/></g></g><g fill="#000000" fill-opacity="1"><g transform="translate(625.30936, 187.693954)"><g><path d="M 22.828125 0.328125 C 19.054688 0.328125 15.640625 -0.515625 12.578125 -2.203125 C 9.515625 -3.890625 7.125 -6.195312 5.40625 -9.125 C 3.6875 -12.0625 2.828125 -15.359375 2.828125 -19.015625 C 2.828125 -22.679688 3.6875 -25.976562 5.40625 -28.90625 C 7.125 -31.84375 9.515625 -34.148438 12.578125 -35.828125 C 15.640625 -37.515625 19.054688 -38.359375 22.828125 -38.359375 C 26.585938 -38.359375 29.976562 -37.523438 33 -35.859375 C 36.03125 -34.191406 38.414062 -31.882812 40.15625 -28.9375 C 41.894531 -25.988281 42.765625 -22.679688 42.765625 -19.015625 C 42.765625 -15.359375 41.894531 -12.050781 40.15625 -9.09375 C 38.414062 -6.144531 36.03125 -3.835938 33 -2.171875 C 29.976562 -0.503906 26.585938 0.328125 22.828125 0.328125 Z M 22.828125 -3.265625 C 25.828125 -3.265625 28.539062 -3.941406 30.96875 -5.296875 C 33.394531 -6.660156 35.296875 -8.546875 36.671875 -10.953125 C 38.054688 -13.359375 38.75 -16.046875 38.75 -19.015625 C 38.75 -21.984375 38.054688 -24.671875 36.671875 -27.078125 C 35.296875 -29.492188 33.394531 -31.378906 30.96875 -32.734375 C 28.539062 -34.097656 25.828125 -34.78125 22.828125 -34.78125 C 19.816406 -34.78125 17.085938 -34.097656 14.640625 -32.734375 C 12.203125 -31.378906 10.285156 -29.492188 8.890625 -27.078125 C 7.492188 -24.671875 6.796875 -21.984375 6.796875 -19.015625 C 6.796875 -16.046875 7.492188 -13.359375 8.890625 -10.953125 C 10.285156 -8.546875 12.203125 -6.660156 14.640625 -5.296875 C 17.085938 -3.941406 19.816406 -3.265625 22.828125 -3.265625 Z M 22.828125 -3.265625 "/></g></g></g><g fill="#000000" fill-opacity="1"><g transform="translate(670.899146, 187.693954)"><g/></g></g><g fill="#000000" fill-opacity="1"><g transform="translate(685.13577, 187.693954)"><g><path d="M 37.984375 -38.046875 L 37.984375 0 L 34.671875 0 L 10.21875 -30.875 L 10.21875 0 L 6.1875 0 L 6.1875 -38.046875 L 9.515625 -38.046875 L 34.015625 -7.171875 L 34.015625 -38.046875 Z M 37.984375 -38.046875 "/></g></g></g><g fill="#000000" fill-opacity="1"><g transform="translate(729.312752, 187.693954)"><g/></g></g><g fill="#000000" fill-opacity="1"><g transform="translate(743.549349, 187.693954)"><g><path d="M 30.046875 -10.15625 L 8.859375 -10.15625 L 4.296875 0 L 0.109375 0 L 17.5 -38.046875 L 21.46875 -38.046875 L 38.859375 0 L 34.609375 0 Z M 28.578125 -13.421875 L 19.453125 -33.859375 L 10.328125 -13.421875 Z M 28.578125 -13.421875 "/></g></g></g><g fill="#000000" fill-opacity="1"><g transform="translate(782.509899, 187.693954)"><g/></g></g><g fill="#000000" fill-opacity="1"><g transform="translate(796.746496, 187.693954)"><g><path d="M 6.1875 -38.046875 L 10.21875 -38.046875 L 10.21875 -3.484375 L 31.515625 -3.484375 L 31.515625 0 L 6.1875 0 Z M 6.1875 -38.046875 "/></g></g></g><path stroke-linecap="butt" transform="matrix(0.00000000000000022, 3.597601, -3.032939, 0.000000000000000186, 146.221055, 70.13852)" fill="none" stroke-linejoin="miter" d="M -0.00050077 -0.00052794 L 126.140432 -0.00052794 " stroke="#000000" stroke-width="1" stroke-opacity="1" stroke-miterlimit="4"/><g fill="#a01636" fill-opacity="1"><g transform="translate(190.498299, 272.538136)"><g><path d="M 33.3125 -4.734375 L 33.3125 0 L 5.703125 0 L 5.703125 -38.046875 L 32.546875 -38.046875 L 32.546875 -33.3125 L 11.140625 -33.3125 L 11.140625 -21.625 L 30.21875 -21.625 L 30.21875 -17.015625 L 11.140625 -17.015625 L 11.140625 -4.734375 Z M 33.3125 -4.734375 "/></g></g></g><g fill="#a01636" fill-opacity="1"><g transform="translate(226.900781, 272.538136)"><g/></g></g><g fill="#000000" fill-opacity="1"><g transform="translate(241.500994, 272.538136)"><g><path d="M 37.984375 -38.046875 L 37.984375 0 L 34.671875 0 L 10.21875 -30.875 L 10.21875 0 L 6.1875 0 L 6.1875 -38.046875 L 9.515625 -38.046875 L 34.015625 -7.171875 L 34.015625 -38.046875 Z M 37.984375 -38.046875 "/></g></g></g><g fill="#000000" fill-opacity="1"><g transform="translate(285.67297, 272.538136)"><g/></g></g><g fill="#000000" fill-opacity="1"><g transform="translate(299.907968, 272.538136)"><g><path d="M 32.984375 -19.015625 L 36.84375 -19.015625 L 36.84375 -4.515625 C 35.070312 -2.953125 32.972656 -1.753906 30.546875 -0.921875 C 28.117188 -0.0859375 25.5625 0.328125 22.875 0.328125 C 19.070312 0.328125 15.648438 -0.503906 12.609375 -2.171875 C 9.566406 -3.835938 7.175781 -6.144531 5.4375 -9.09375 C 3.695312 -12.050781 2.828125 -15.359375 2.828125 -19.015625 C 2.828125 -22.679688 3.695312 -25.988281 5.4375 -28.9375 C 7.175781 -31.882812 9.566406 -34.191406 12.609375 -35.859375 C 15.648438 -37.523438 19.09375 -38.359375 22.9375 -38.359375 C 25.832031 -38.359375 28.492188 -37.894531 30.921875 -36.96875 C 33.347656 -36.050781 35.394531 -34.6875 37.0625 -32.875 L 34.5625 -30.328125 C 31.550781 -33.296875 27.726562 -34.78125 23.09375 -34.78125 C 20.019531 -34.78125 17.238281 -34.097656 14.75 -32.734375 C 12.269531 -31.378906 10.320312 -29.492188 8.90625 -27.078125 C 7.5 -24.671875 6.796875 -21.984375 6.796875 -19.015625 C 6.796875 -16.046875 7.5 -13.363281 8.90625 -10.96875 C 10.320312 -8.582031 12.257812 -6.703125 14.71875 -5.328125 C 17.1875 -3.953125 19.960938 -3.265625 23.046875 -3.265625 C 26.953125 -3.265625 30.265625 -4.238281 32.984375 -6.1875 Z M 32.984375 -19.015625 "/></g></g></g><g fill="#000000" fill-opacity="1"><g transform="translate(341.906659, 272.538136)"><g/></g></g><g fill="#000000" fill-opacity="1"><g transform="translate(356.141657, 272.538136)"><g><path d="M 6.1875 -38.046875 L 10.21875 -38.046875 L 10.21875 0 L 6.1875 0 Z M 6.1875 -38.046875 "/></g></g></g><g fill="#000000" fill-opacity="1"><g transform="translate(372.549941, 272.538136)"><g/></g></g><g fill="#000000" fill-opacity="1"><g transform="translate(386.784938, 272.538136)"><g><path d="M 37.984375 -38.046875 L 37.984375 0 L 34.671875 0 L 10.21875 -30.875 L 10.21875 0 L 6.1875 0 L 6.1875 -38.046875 L 9.515625 -38.046875 L 34.015625 -7.171875 L 34.015625 -38.046875 Z M 37.984375 -38.046875 "/></g></g></g><g fill="#000000" fill-opacity="1"><g transform="translate(430.956915, 272.538136)"><g/></g></g><g fill="#000000" fill-opacity="1"><g transform="translate(445.191913, 272.538136)"><g><path d="M 33.09375 -3.484375 L 33.09375 0 L 6.1875 0 L 6.1875 -38.046875 L 32.28125 -38.046875 L 32.28125 -34.5625 L 10.21875 -34.5625 L 10.21875 -21.03125 L 29.890625 -21.03125 L 29.890625 -17.609375 L 10.21875 -17.609375 L 10.21875 -3.484375 Z M 33.09375 -3.484375 "/></g></g></g><g fill="#000000" fill-opacity="1"><g transform="translate(481.540065, 272.538136)"><g/></g></g><g fill="#000000" fill-opacity="1"><g transform="translate(495.775063, 272.538136)"><g><path d="M 33.09375 -3.484375 L 33.09375 0 L 6.1875 0 L 6.1875 -38.046875 L 32.28125 -38.046875 L 32.28125 -34.5625 L 10.21875 -34.5625 L 10.21875 -21.03125 L 29.890625 -21.03125 L 29.890625 -17.609375 L 10.21875 -17.609375 L 10.21875 -3.484375 Z M 33.09375 -3.484375 "/></g></g></g><g fill="#000000" fill-opacity="1"><g transform="translate(532.123215, 272.538136)"><g/></g></g><g fill="#000000" fill-opacity="1"><g transform="translate(546.358213, 272.538136)"><g><path d="M 32.171875 0 L 23.46875 -12.234375 C 22.5 -12.117188 21.488281 -12.0625 20.4375 -12.0625 L 10.21875 -12.0625 L 10.21875 0 L 6.1875 0 L 6.1875 -38.046875 L 20.4375 -38.046875 C 25.289062 -38.046875 29.09375 -36.882812 31.84375 -34.5625 C 34.59375 -32.238281 35.96875 -29.050781 35.96875 -25 C 35.96875 -22.03125 35.21875 -19.519531 33.71875 -17.46875 C 32.21875 -15.425781 30.070312 -13.953125 27.28125 -13.046875 L 36.578125 0 Z M 20.328125 -15.484375 C 24.085938 -15.484375 26.960938 -16.316406 28.953125 -17.984375 C 30.953125 -19.648438 31.953125 -21.988281 31.953125 -25 C 31.953125 -28.082031 30.953125 -30.445312 28.953125 -32.09375 C 26.960938 -33.738281 24.085938 -34.5625 20.328125 -34.5625 L 10.21875 -34.5625 L 10.21875 -15.484375 Z M 20.328125 -15.484375 "/></g></g></g><g fill="#000000" fill-opacity="1"><g transform="translate(585.640308, 272.538136)"><g/></g></g><g fill="#000000" fill-opacity="1"><g transform="translate(599.875306, 272.538136)"><g><path d="M 6.1875 -38.046875 L 10.21875 -38.046875 L 10.21875 0 L 6.1875 0 Z M 6.1875 -38.046875 "/></g></g></g><g fill="#000000" fill-opacity="1"><g transform="translate(616.28359, 272.538136)"><g/></g></g><g fill="#000000" fill-opacity="1"><g transform="translate(630.518587, 272.538136)"><g><path d="M 37.984375 -38.046875 L 37.984375 0 L 34.671875 0 L 10.21875 -30.875 L 10.21875 0 L 6.1875 0 L 6.1875 -38.046875 L 9.515625 -38.046875 L 34.015625 -7.171875 L 34.015625 -38.046875 Z M 37.984375 -38.046875 "/></g></g></g><g fill="#000000" fill-opacity="1"><g transform="translate(674.690564, 272.538136)"><g/></g></g><g fill="#000000" fill-opacity="1"><g transform="translate(688.925562, 272.538136)"><g><path d="M 32.984375 -19.015625 L 36.84375 -19.015625 L 36.84375 -4.515625 C 35.070312 -2.953125 32.972656 -1.753906 30.546875 -0.921875 C 28.117188 -0.0859375 25.5625 0.328125 22.875 0.328125 C 19.070312 0.328125 15.648438 -0.503906 12.609375 -2.171875 C 9.566406 -3.835938 7.175781 -6.144531 5.4375 -9.09375 C 3.695312 -12.050781 2.828125 -15.359375 2.828125 -19.015625 C 2.828125 -22.679688 3.695312 -25.988281 5.4375 -28.9375 C 7.175781 -31.882812 9.566406 -34.191406 12.609375 -35.859375 C 15.648438 -37.523438 19.09375 -38.359375 22.9375 -38.359375 C 25.832031 -38.359375 28.492188 -37.894531 30.921875 -36.96875 C 33.347656 -36.050781 35.394531 -34.6875 37.0625 -32.875 L 34.5625 -30.328125 C 31.550781 -33.296875 27.726562 -34.78125 23.09375 -34.78125 C 20.019531 -34.78125 17.238281 -34.097656 14.75 -32.734375 C 12.269531 -31.378906 10.320312 -29.492188 8.90625 -27.078125 C 7.5 -24.671875 6.796875 -21.984375 6.796875 -19.015625 C 6.796875 -16.046875 7.5 -13.363281 8.90625 -10.96875 C 10.320312 -8.582031 12.257812 -6.703125 14.71875 -5.328125 C 17.1875 -3.953125 19.960938 -3.265625 23.046875 -3.265625 C 26.953125 -3.265625 30.265625 -4.238281 32.984375 -6.1875 Z M 32.984375 -19.015625 "/></g></g></g><g fill="#000000" fill-opacity="1"><g transform="translate(730.924203, 272.538136)"><g/></g></g><g fill="#000000" fill-opacity="1"><g transform="translate(745.1592, 272.538136)"><g/></g></g><g fill="#000000" fill-opacity="1"><g transform="translate(759.393067, 272.538136)"><g><path d="M 6.1875 -38.046875 L 10.21875 -38.046875 L 10.21875 0 L 6.1875 0 Z M 6.1875 -38.046875 "/></g></g></g><g fill="#000000" fill-opacity="1"><g transform="translate(775.801351, 272.538136)"><g/></g></g><g fill="#000000" fill-opacity="1"><g transform="translate(790.036349, 272.538136)"><g><path d="M 37.984375 -38.046875 L 37.984375 0 L 34.671875 0 L 10.21875 -30.875 L 10.21875 0 L 6.1875 0 L 6.1875 -38.046875 L 9.515625 -38.046875 L 34.015625 -7.171875 L 34.015625 -38.046875 Z M 37.984375 -38.046875 "/></g></g></g><g fill="#000000" fill-opacity="1"><g transform="translate(190.498299, 358.161064)"><g><path d="M 37.984375 -38.046875 L 37.984375 0 L 34.015625 0 L 34.015625 -17.546875 L 10.21875 -17.546875 L 10.21875 0 L 6.1875 0 L 6.1875 -38.046875 L 10.21875 -38.046875 L 10.21875 -21.078125 L 34.015625 -21.078125 L 34.015625 -38.046875 Z M 37.984375 -38.046875 "/></g></g></g><g fill="#a01636" fill-opacity="1"><g transform="translate(234.649165, 358.161064)"><g/></g></g><g fill="#000000" fill-opacity="1"><g transform="translate(249.24549, 358.161064)"><g><path d="M 33.09375 -3.484375 L 33.09375 0 L 6.1875 0 L 6.1875 -38.046875 L 32.28125 -38.046875 L 32.28125 -34.5625 L 10.21875 -34.5625 L 10.21875 -21.03125 L 29.890625 -21.03125 L 29.890625 -17.609375 L 10.21875 -17.609375 L 10.21875 -3.484375 Z M 33.09375 -3.484375 "/></g></g></g><g fill="#000000" fill-opacity="1"><g transform="translate(285.593642, 358.161064)"><g/></g></g><g fill="#a01636" fill-opacity="1"><g transform="translate(299.813914, 358.161064)"><g><path d="M 29.9375 -9.515625 L 9.734375 -9.515625 L 5.546875 0 L -0.046875 0 L 17.171875 -38.046875 L 22.546875 -38.046875 L 39.828125 0 L 34.125 0 Z M 28.046875 -13.859375 L 19.828125 -32.5 L 11.625 -13.859375 Z M 28.046875 -13.859375 "/></g></g></g><g fill="#000000" fill-opacity="1"><g transform="translate(339.573819, 358.161064)"><g/></g></g><g fill="#000000" fill-opacity="1"><g transform="translate(353.808817, 358.161064)"><g><path d="M 6.1875 -38.046875 L 10.21875 -38.046875 L 10.21875 -3.484375 L 31.515625 -3.484375 L 31.515625 0 L 6.1875 0 Z M 6.1875 -38.046875 "/></g></g></g><g fill="#000000" fill-opacity="1"><g transform="translate(385.81042, 358.161064)"><g/></g></g><g fill="#000000" fill-opacity="1"><g transform="translate(400.045417, 358.161064)"><g><path d="M 13.578125 -34.5625 L 0.21875 -34.5625 L 0.21875 -38.046875 L 30.96875 -38.046875 L 30.96875 -34.5625 L 17.609375 -34.5625 L 17.609375 0 L 13.578125 0 Z M 13.578125 -34.5625 "/></g></g></g><g fill="#000000" fill-opacity="1"><g transform="translate(431.232033, 358.161064)"><g/></g></g><g fill="#000000" fill-opacity="1"><g transform="translate(445.467031, 358.161064)"><g><path d="M 37.984375 -38.046875 L 37.984375 0 L 34.015625 0 L 34.015625 -17.546875 L 10.21875 -17.546875 L 10.21875 0 L 6.1875 0 L 6.1875 -38.046875 L 10.21875 -38.046875 L 10.21875 -21.078125 L 34.015625 -21.078125 L 34.015625 -38.046875 Z M 37.984375 -38.046875 "/></g></g></g><g fill="#000000" fill-opacity="1"><g transform="translate(489.63852, 358.161064)"><g/></g></g><g fill="#000000" fill-opacity="1"><g transform="translate(503.873518, 358.161064)"><g/></g></g><g fill="#000000" fill-opacity="1"><g transform="translate(518.107385, 358.161064)"><g><path d="M 33.421875 0.59375 L 28.15625 -4.84375 C 24.925781 -1.394531 20.6875 0.328125 15.4375 0.328125 C 12.96875 0.328125 10.765625 -0.078125 8.828125 -0.890625 C 6.890625 -1.710938 5.375 -2.851562 4.28125 -4.3125 C 3.195312 -5.78125 2.65625 -7.457031 2.65625 -9.34375 C 2.65625 -11.625 3.378906 -13.671875 4.828125 -15.484375 C 6.285156 -17.296875 8.753906 -19.195312 12.234375 -21.1875 C 10.421875 -23.070312 9.164062 -24.675781 8.46875 -26 C 7.78125 -27.320312 7.4375 -28.726562 7.4375 -30.21875 C 7.4375 -32.644531 8.304688 -34.597656 10.046875 -36.078125 C 11.785156 -37.566406 14.125 -38.3125 17.0625 -38.3125 C 19.78125 -38.3125 21.9375 -37.640625 23.53125 -36.296875 C 25.125 -34.960938 25.921875 -33.117188 25.921875 -30.765625 C 25.921875 -28.878906 25.285156 -27.179688 24.015625 -25.671875 C 22.753906 -24.171875 20.5625 -22.515625 17.4375 -20.703125 L 27.875 -9.9375 C 29.039062 -12.007812 29.894531 -14.457031 30.4375 -17.28125 L 33.578125 -16.296875 C 32.890625 -12.890625 31.769531 -9.972656 30.21875 -7.546875 L 35.65625 -1.953125 Z M 17.0625 -35.4375 C 15.175781 -35.4375 13.695312 -34.960938 12.625 -34.015625 C 11.5625 -33.078125 11.03125 -31.828125 11.03125 -30.265625 C 11.03125 -29.140625 11.316406 -28.070312 11.890625 -27.0625 C 12.472656 -26.050781 13.617188 -24.675781 15.328125 -22.9375 C 18.078125 -24.53125 19.976562 -25.882812 21.03125 -27 C 22.082031 -28.125 22.609375 -29.359375 22.609375 -30.703125 C 22.609375 -32.148438 22.117188 -33.300781 21.140625 -34.15625 C 20.160156 -35.007812 18.800781 -35.4375 17.0625 -35.4375 Z M 15.65625 -2.875 C 19.851562 -2.875 23.257812 -4.304688 25.875 -7.171875 L 14.40625 -18.96875 C 11.394531 -17.257812 9.316406 -15.71875 8.171875 -14.34375 C 7.035156 -12.96875 6.46875 -11.429688 6.46875 -9.734375 C 6.46875 -7.660156 7.304688 -6 8.984375 -4.75 C 10.671875 -3.5 12.894531 -2.875 15.65625 -2.875 Z M 15.65625 -2.875 "/></g></g></g><g fill="#a01636" fill-opacity="1"><g transform="translate(190.498299, 444.593983)"><g><path d="M 40.96875 0 L 40.921875 -27.71875 L 27.171875 -4.625 L 24.671875 -4.625 L 10.921875 -27.546875 L 10.921875 0 L 5.703125 0 L 5.703125 -38.046875 L 10.15625 -38.046875 L 26.03125 -11.296875 L 41.6875 -38.046875 L 46.140625 -38.046875 L 46.1875 0 Z M 40.96875 0 "/></g></g></g><g fill="#a01636" fill-opacity="1"><g transform="translate(242.391325, 444.593983)"><g/></g></g><g fill="#000000" fill-opacity="1"><g transform="translate(256.999098, 444.593983)"><g><path d="M 33.09375 -3.484375 L 33.09375 0 L 6.1875 0 L 6.1875 -38.046875 L 32.28125 -38.046875 L 32.28125 -34.5625 L 10.21875 -34.5625 L 10.21875 -21.03125 L 29.890625 -21.03125 L 29.890625 -17.609375 L 10.21875 -17.609375 L 10.21875 -3.484375 Z M 33.09375 -3.484375 "/></g></g></g><g fill="#000000" fill-opacity="1"><g transform="translate(293.35138, 444.593983)"><g/></g></g><g fill="#000000" fill-opacity="1"><g transform="translate(307.588003, 444.593983)"><g><path d="M 6.1875 -38.046875 L 21.6875 -38.046875 C 25.707031 -38.046875 29.253906 -37.238281 32.328125 -35.625 C 35.410156 -34.007812 37.800781 -31.757812 39.5 -28.875 C 41.207031 -26 42.0625 -22.710938 42.0625 -19.015625 C 42.0625 -15.328125 41.207031 -12.039062 39.5 -9.15625 C 37.800781 -6.28125 35.410156 -4.035156 32.328125 -2.421875 C 29.253906 -0.804688 25.707031 0 21.6875 0 L 6.1875 0 Z M 21.46875 -3.484375 C 24.800781 -3.484375 27.71875 -4.140625 30.21875 -5.453125 C 32.71875 -6.773438 34.65625 -8.601562 36.03125 -10.9375 C 37.40625 -13.28125 38.09375 -15.972656 38.09375 -19.015625 C 38.09375 -22.054688 37.40625 -24.742188 36.03125 -27.078125 C 34.65625 -29.421875 32.71875 -31.253906 30.21875 -32.578125 C 27.71875 -33.898438 24.800781 -34.5625 21.46875 -34.5625 L 10.21875 -34.5625 L 10.21875 -3.484375 Z M 21.46875 -3.484375 "/></g></g></g><g fill="#000000" fill-opacity="1"><g transform="translate(352.471387, 444.593983)"><g/></g></g><g fill="#000000" fill-opacity="1"><g transform="translate(366.708011, 444.593983)"><g><path d="M 6.1875 -38.046875 L 10.21875 -38.046875 L 10.21875 0 L 6.1875 0 Z M 6.1875 -38.046875 "/></g></g></g><g fill="#000000" fill-opacity="1"><g transform="translate(383.118161, 444.593983)"><g/></g></g><g fill="#000000" fill-opacity="1"><g transform="translate(397.354784, 444.593983)"><g><path d="M 22.71875 0.328125 C 18.945312 0.328125 15.546875 -0.503906 12.515625 -2.171875 C 9.492188 -3.835938 7.125 -6.144531 5.40625 -9.09375 C 3.6875 -12.050781 2.828125 -15.359375 2.828125 -19.015625 C 2.828125 -22.679688 3.6875 -25.988281 5.40625 -28.9375 C 7.125 -31.882812 9.503906 -34.191406 12.546875 -35.859375 C 15.597656 -37.523438 19.003906 -38.359375 22.765625 -38.359375 C 25.597656 -38.359375 28.207031 -37.890625 30.59375 -36.953125 C 32.988281 -36.015625 35.019531 -34.640625 36.6875 -32.828125 L 34.125 -30.265625 C 31.15625 -33.273438 27.40625 -34.78125 22.875 -34.78125 C 19.875 -34.78125 17.140625 -34.09375 14.671875 -32.71875 C 12.210938 -31.34375 10.285156 -29.457031 8.890625 -27.0625 C 7.492188 -24.664062 6.796875 -21.984375 6.796875 -19.015625 C 6.796875 -16.046875 7.492188 -13.363281 8.890625 -10.96875 C 10.285156 -8.582031 12.210938 -6.703125 14.671875 -5.328125 C 17.140625 -3.953125 19.875 -3.265625 22.875 -3.265625 C 27.4375 -3.265625 31.1875 -4.785156 34.125 -7.828125 L 36.6875 -5.265625 C 35.019531 -3.453125 32.976562 -2.066406 30.5625 -1.109375 C 28.15625 -0.148438 25.539062 0.328125 22.71875 0.328125 Z M 22.71875 0.328125 "/></g></g></g><g fill="#000000" fill-opacity="1"><g transform="translate(436.423977, 444.593983)"><g/></g></g><g fill="#000000" fill-opacity="1"><g transform="translate(450.660601, 444.593983)"><g><path d="M 6.1875 -38.046875 L 10.21875 -38.046875 L 10.21875 0 L 6.1875 0 Z M 6.1875 -38.046875 "/></g></g></g><g fill="#000000" fill-opacity="1"><g transform="translate(467.070751, 444.593983)"><g/></g></g><g fill="#000000" fill-opacity="1"><g transform="translate(481.307375, 444.593983)"><g><path d="M 37.984375 -38.046875 L 37.984375 0 L 34.671875 0 L 10.21875 -30.875 L 10.21875 0 L 6.1875 0 L 6.1875 -38.046875 L 9.515625 -38.046875 L 34.015625 -7.171875 L 34.015625 -38.046875 Z M 37.984375 -38.046875 "/></g></g></g><g fill="#000000" fill-opacity="1"><g transform="translate(525.484383, 444.593983)"><g/></g></g><g fill="#000000" fill-opacity="1"><g transform="translate(539.721006, 444.593983)"><g><path d="M 33.09375 -3.484375 L 33.09375 0 L 6.1875 0 L 6.1875 -38.046875 L 32.28125 -38.046875 L 32.28125 -34.5625 L 10.21875 -34.5625 L 10.21875 -21.03125 L 29.890625 -21.03125 L 29.890625 -17.609375 L 10.21875 -17.609375 L 10.21875 -3.484375 Z M 33.09375 -3.484375 "/></g></g></g></svg>