<svg xmlns="http://www.w3.org/2000/svg" xmlns:xlink="http://www.w3.org/1999/xlink" width="1123" zoomAndPan="magnify" viewBox="0 0 841.92 595.499987" height="794" preserveAspectRatio="xMidYMid meet" version="1.0"><defs><g/></defs><g fill="#a01636" fill-opacity="1"><g transform="translate(18.735822, 283.314106)"><g><path d="M 44.734375 0 L 8.015625 0 L 8.015625 -63.75 L 44.734375 -63.75 L 44.734375 -52.671875 L 21.546875 -52.671875 L 21.546875 -38.671875 L 43.125 -38.671875 L 43.125 -27.59375 L 21.546875 -27.59375 L 21.546875 -11.15625 L 44.734375 -11.15625 Z M 44.734375 0 "/></g></g></g><g fill="#a01636" fill-opacity="1"><g transform="translate(12.927105, 384.597446)"><g><path d="M 47.046875 0 L 42.421875 -15.171875 L 19.1875 -15.171875 L 14.5625 0 L 0 0 L 22.5 -64 L 39.03125 -64 L 61.609375 0 Z M 39.203125 -26.515625 C 34.921875 -40.265625 32.507812 -48.039062 31.96875 -49.84375 C 31.4375 -51.644531 31.054688 -53.066406 30.828125 -54.109375 C 29.867188 -50.390625 27.117188 -41.191406 22.578125 -26.515625 Z M 39.203125 -26.515625 "/></g></g></g><g fill="#a01636" fill-opacity="1"><g transform="translate(2.158898, 487.55124)"><g><path d="M 35.015625 0 L 19.671875 -50.015625 L 19.265625 -50.015625 C 19.816406 -39.835938 20.09375 -33.050781 20.09375 -29.65625 L 20.09375 0 L 8.015625 0 L 8.015625 -63.75 L 26.421875 -63.75 L 41.515625 -15 L 41.765625 -15 L 57.765625 -63.75 L 76.171875 -63.75 L 76.171875 0 L 63.578125 0 L 63.578125 -30.171875 C 63.578125 -31.597656 63.597656 -33.238281 63.640625 -35.09375 C 63.679688 -36.957031 63.875 -41.898438 64.21875 -49.921875 L 63.828125 -49.921875 L 47.390625 0 Z M 35.015625 0 "/></g></g></g><g fill="#a01636" fill-opacity="1"><g transform="translate(17.885173, 176.266857)"><g><path d="M 32.609375 0 L 19.09375 0 L 19.09375 -52.5 L 1.78125 -52.5 L 1.78125 -63.75 L 49.921875 -63.75 L 49.921875 -52.5 L 32.609375 -52.5 Z M 32.609375 0 "/></g></g></g><g fill="#a01636" fill-opacity="1"><g transform="translate(166.550167, 178.637275)"><g><path d="M 22.859375 0 L 13.390625 0 L 13.390625 -36.796875 L 1.25 -36.796875 L 1.25 -44.6875 L 35 -44.6875 L 35 -36.796875 L 22.859375 -36.796875 Z M 22.859375 0 "/></g></g></g><g fill="#000000" fill-opacity="1"><g transform="translate(202.788166, 178.637275)"><g/></g></g><g fill="#000000" fill-opacity="1"><g transform="translate(219.015093, 178.637275)"><g><path d="M 9.4375 -19.46875 L 9.4375 0 L 6.328125 0 L 6.328125 -44.6875 L 16.96875 -44.6875 C 22.507812 -44.6875 26.601562 -43.660156 29.25 -41.609375 C 31.894531 -39.566406 33.21875 -36.484375 33.21875 -32.359375 C 33.21875 -29.367188 32.425781 -26.84375 30.84375 -24.78125 C 29.269531 -22.726562 26.875 -21.253906 23.65625 -20.359375 L 35.796875 0 L 32.0625 0 L 20.53125 -19.46875 Z M 9.4375 -22.15625 L 17.96875 -22.15625 C 21.738281 -22.15625 24.660156 -22.992188 26.734375 -24.671875 C 28.816406 -26.359375 29.859375 -28.84375 29.859375 -32.125 C 29.859375 -35.519531 28.835938 -37.992188 26.796875 -39.546875 C 24.765625 -41.097656 21.445312 -41.875 16.84375 -41.875 L 9.4375 -41.875 Z M 9.4375 -22.15625 "/></g></g><g transform="translate(256.213659, 178.637275)"><g/></g><g transform="translate(272.47466, 178.637275)"><g><path d="M 27.84375 -15.765625 L 9.6875 -15.765625 L 3.453125 0 L 0 0 L 17.96875 -44.859375 L 19.953125 -44.859375 L 37.5625 0 L 34.046875 0 Z M 10.8125 -18.578125 L 26.796875 -18.578125 L 20.71875 -34.6875 C 20.207031 -35.945312 19.597656 -37.703125 18.890625 -39.953125 C 18.335938 -37.992188 17.734375 -36.21875 17.078125 -34.625 Z M 10.8125 -18.578125 "/></g></g><g transform="translate(310.040016, 178.637275)"><g/></g><g transform="translate(326.301017, 178.637275)"><g><path d="M 38.8125 0 L 35.671875 0 L 9.203125 -39.671875 L 8.953125 -39.671875 C 9.203125 -34.941406 9.328125 -31.375 9.328125 -28.96875 L 9.328125 0 L 6.328125 0 L 6.328125 -44.6875 L 9.4375 -44.6875 L 35.875 -5.078125 L 36.0625 -5.078125 C 35.882812 -8.742188 35.796875 -12.226562 35.796875 -15.53125 L 35.796875 -44.6875 L 38.8125 -44.6875 Z M 38.8125 0 "/></g></g><g transform="translate(371.446689, 178.637275)"><g/></g><g transform="translate(387.707689, 178.637275)"><g><path d="M 30.984375 -11.515625 C 30.984375 -7.785156 29.613281 -4.832031 26.875 -2.65625 C 24.132812 -0.476562 20.492188 0.609375 15.953125 0.609375 C 10.492188 0.609375 6.304688 0.0078125 3.390625 -1.1875 L 3.390625 -4.3125 C 6.609375 -2.945312 10.710938 -2.265625 15.703125 -2.265625 C 19.378906 -2.265625 22.289062 -3.101562 24.4375 -4.78125 C 26.582031 -6.457031 27.65625 -8.664062 27.65625 -11.40625 C 27.65625 -13.09375 27.296875 -14.488281 26.578125 -15.59375 C 25.867188 -16.707031 24.707031 -17.722656 23.09375 -18.640625 C 21.488281 -19.554688 19.128906 -20.546875 16.015625 -21.609375 C 11.453125 -23.179688 8.296875 -24.878906 6.546875 -26.703125 C 4.804688 -28.523438 3.9375 -30.953125 3.9375 -33.984375 C 3.9375 -37.328125 5.242188 -40.050781 7.859375 -42.15625 C 10.484375 -44.269531 13.851562 -45.328125 17.96875 -45.328125 C 22.164062 -45.328125 26.109375 -44.53125 29.796875 -42.9375 L 28.671875 -40.25 C 24.960938 -41.800781 21.414062 -42.578125 18.03125 -42.578125 C 14.726562 -42.578125 12.097656 -41.8125 10.140625 -40.28125 C 8.191406 -38.75 7.21875 -36.671875 7.21875 -34.046875 C 7.21875 -32.398438 7.515625 -31.046875 8.109375 -29.984375 C 8.710938 -28.921875 9.695312 -27.96875 11.0625 -27.125 C 12.425781 -26.28125 14.769531 -25.265625 18.09375 -24.078125 C 21.570312 -22.878906 24.1875 -21.710938 25.9375 -20.578125 C 27.695312 -19.453125 28.976562 -18.171875 29.78125 -16.734375 C 30.582031 -15.296875 30.984375 -13.554688 30.984375 -11.515625 Z M 30.984375 -11.515625 "/></g></g><g transform="translate(421.819111, 178.637275)"><g/></g><g transform="translate(438.080112, 178.637275)"><g><path d="M 6.328125 0 L 6.328125 -44.6875 L 9.4375 -44.6875 L 9.4375 -2.9375 L 30.75 -2.9375 L 30.75 0 Z M 6.328125 0 "/></g></g><g transform="translate(470.204757, 178.637275)"><g/></g><g transform="translate(486.465758, 178.637275)"><g><path d="M 27.84375 -15.765625 L 9.6875 -15.765625 L 3.453125 0 L 0 0 L 17.96875 -44.859375 L 19.953125 -44.859375 L 37.5625 0 L 34.046875 0 Z M 10.8125 -18.578125 L 26.796875 -18.578125 L 20.71875 -34.6875 C 20.207031 -35.945312 19.597656 -37.703125 18.890625 -39.953125 C 18.335938 -37.992188 17.734375 -36.21875 17.078125 -34.625 Z M 10.8125 -18.578125 "/></g></g><g transform="translate(524.031114, 178.637275)"><g/></g><g transform="translate(540.292114, 178.637275)"><g><path d="M 17.96875 0 L 14.828125 0 L 14.828125 -41.75 L 0.3125 -41.75 L 0.3125 -44.6875 L 32.484375 -44.6875 L 32.484375 -41.75 L 17.96875 -41.75 Z M 17.96875 0 "/></g></g><g transform="translate(573.089207, 178.637275)"><g/></g><g transform="translate(589.350208, 178.637275)"><g><path d="M 6.328125 0 L 6.328125 -44.6875 L 9.4375 -44.6875 L 9.4375 0 Z M 6.328125 0 "/></g></g><g transform="translate(605.122156, 178.637275)"><g/></g><g transform="translate(621.383156, 178.637275)"><g><path d="M 43.890625 -22.40625 C 43.890625 -15.3125 42.113281 -9.703125 38.5625 -5.578125 C 35.019531 -1.453125 30.132812 0.609375 23.90625 0.609375 C 17.6875 0.609375 12.800781 -1.453125 9.25 -5.578125 C 5.707031 -9.703125 3.9375 -15.332031 3.9375 -22.46875 C 3.9375 -29.570312 5.722656 -35.164062 9.296875 -39.25 C 12.878906 -43.34375 17.769531 -45.390625 23.96875 -45.390625 C 30.195312 -45.390625 35.070312 -43.332031 38.59375 -39.21875 C 42.125 -35.113281 43.890625 -29.507812 43.890625 -22.40625 Z M 7.328125 -22.40625 C 7.328125 -16.007812 8.753906 -11.0625 11.609375 -7.5625 C 14.460938 -4.070312 18.5625 -2.328125 23.90625 -2.328125 C 29.28125 -2.328125 33.390625 -4.054688 36.234375 -7.515625 C 39.078125 -10.984375 40.5 -15.945312 40.5 -22.40625 C 40.5 -28.84375 39.078125 -33.773438 36.234375 -37.203125 C 33.390625 -40.640625 29.300781 -42.359375 23.96875 -42.359375 C 18.644531 -42.359375 14.539062 -40.625 11.65625 -37.15625 C 8.769531 -33.695312 7.328125 -28.78125 7.328125 -22.40625 Z M 7.328125 -22.40625 "/></g></g><g transform="translate(669.218618, 178.637275)"><g/></g><g transform="translate(685.479618, 178.637275)"><g><path d="M 38.8125 0 L 35.671875 0 L 9.203125 -39.671875 L 8.953125 -39.671875 C 9.203125 -34.941406 9.328125 -31.375 9.328125 -28.96875 L 9.328125 0 L 6.328125 0 L 6.328125 -44.6875 L 9.4375 -44.6875 L 35.875 -5.078125 L 36.0625 -5.078125 C 35.882812 -8.742188 35.796875 -12.226562 35.796875 -15.53125 L 35.796875 -44.6875 L 38.8125 -44.6875 Z M 38.8125 0 "/></g></g><g transform="translate(730.625291, 178.637275)"><g/></g><g transform="translate(746.886291, 178.637275)"><g><path d="M 27.84375 -15.765625 L 9.6875 -15.765625 L 3.453125 0 L 0 0 L 17.96875 -44.859375 L 19.953125 -44.859375 L 37.5625 0 L 34.046875 0 Z M 10.8125 -18.578125 L 26.796875 -18.578125 L 20.71875 -34.6875 C 20.207031 -35.945312 19.597656 -37.703125 18.890625 -39.953125 C 18.335938 -37.992188 17.734375 -36.21875 17.078125 -34.625 Z M 10.8125 -18.578125 "/></g></g><g transform="translate(784.451647, 178.637275)"><g/></g><g transform="translate(800.712648, 178.637275)"><g><path d="M 6.328125 0 L 6.328125 -44.6875 L 9.4375 -44.6875 L 9.4375 -2.9375 L 30.75 -2.9375 L 30.75 0 Z M 6.328125 0 "/></g></g></g><path stroke-linecap="butt" transform="matrix(0.000000000000000249, 4.064564, -4.060556, 0.000000000000000249, 123.36712, 88.38735)" fill="none" stroke-linejoin="miter" d="M -0.000155427 -0.0000166854 L 102.900444 -0.0000166854 " stroke="#000000" stroke-width="1" stroke-opacity="1" stroke-miterlimit="4"/><g fill="#a01636" fill-opacity="1"><g transform="translate(166.550167, 277.590403)"><g><path d="M 31.359375 0 L 5.625 0 L 5.625 -44.6875 L 31.359375 -44.6875 L 31.359375 -36.921875 L 15.09375 -36.921875 L 15.09375 -27.109375 L 30.234375 -27.109375 L 30.234375 -19.34375 L 15.09375 -19.34375 L 15.09375 -7.828125 L 31.359375 -7.828125 Z M 31.359375 0 "/></g></g><g transform="translate(201.609128, 277.590403)"><g/></g></g><g fill="#000000" fill-opacity="1"><g transform="translate(217.860608, 277.590403)"><g><path d="M 38.8125 0 L 35.671875 0 L 9.203125 -39.671875 L 8.953125 -39.671875 C 9.203125 -34.941406 9.328125 -31.375 9.328125 -28.96875 L 9.328125 0 L 6.328125 0 L 6.328125 -44.6875 L 9.4375 -44.6875 L 35.875 -5.078125 L 36.0625 -5.078125 C 35.882812 -8.742188 35.796875 -12.226562 35.796875 -15.53125 L 35.796875 -44.6875 L 38.8125 -44.6875 Z M 38.8125 0 "/></g></g><g transform="translate(263.00628, 277.590403)"><g/></g><g transform="translate(279.267281, 277.590403)"><g><path d="M 23.90625 -22.53125 L 40.375 -22.53125 L 40.375 -2.140625 C 36.050781 -0.304688 31.191406 0.609375 25.796875 0.609375 C 18.742188 0.609375 13.335938 -1.378906 9.578125 -5.359375 C 5.816406 -9.347656 3.9375 -14.988281 3.9375 -22.28125 C 3.9375 -26.820312 4.867188 -30.847656 6.734375 -34.359375 C 8.597656 -37.878906 11.265625 -40.597656 14.734375 -42.515625 C 18.210938 -44.429688 22.207031 -45.390625 26.71875 -45.390625 C 31.582031 -45.390625 35.953125 -44.492188 39.828125 -42.703125 L 38.578125 -39.890625 C 34.703125 -41.679688 30.6875 -42.578125 26.53125 -42.578125 C 20.644531 -42.578125 15.972656 -40.753906 12.515625 -37.109375 C 9.054688 -33.472656 7.328125 -28.570312 7.328125 -22.40625 C 7.328125 -15.675781 8.96875 -10.613281 12.25 -7.21875 C 15.53125 -3.832031 20.351562 -2.140625 26.71875 -2.140625 C 30.832031 -2.140625 34.328125 -2.71875 37.203125 -3.875 L 37.203125 -19.59375 L 23.90625 -19.59375 Z M 23.90625 -22.53125 "/></g></g><g transform="translate(324.535216, 277.590403)"><g/></g><g transform="translate(340.796216, 277.590403)"><g><path d="M 6.328125 0 L 6.328125 -44.6875 L 9.4375 -44.6875 L 9.4375 0 Z M 6.328125 0 "/></g></g><g transform="translate(356.568164, 277.590403)"><g/></g><g transform="translate(372.829165, 277.590403)"><g><path d="M 38.8125 0 L 35.671875 0 L 9.203125 -39.671875 L 8.953125 -39.671875 C 9.203125 -34.941406 9.328125 -31.375 9.328125 -28.96875 L 9.328125 0 L 6.328125 0 L 6.328125 -44.6875 L 9.4375 -44.6875 L 35.875 -5.078125 L 36.0625 -5.078125 C 35.882812 -8.742188 35.796875 -12.226562 35.796875 -15.53125 L 35.796875 -44.6875 L 38.8125 -44.6875 Z M 38.8125 0 "/></g></g><g transform="translate(417.974837, 277.590403)"><g/></g><g transform="translate(434.235838, 277.590403)"><g><path d="M 30.75 0 L 6.328125 0 L 6.328125 -44.6875 L 30.75 -44.6875 L 30.75 -41.8125 L 9.4375 -41.8125 L 9.4375 -24.90625 L 29.5625 -24.90625 L 29.5625 -22.03125 L 9.4375 -22.03125 L 9.4375 -2.875 L 30.75 -2.875 Z M 30.75 0 "/></g></g><g transform="translate(468.77518, 277.590403)"><g/></g><g transform="translate(485.036181, 277.590403)"><g><path d="M 30.75 0 L 6.328125 0 L 6.328125 -44.6875 L 30.75 -44.6875 L 30.75 -41.8125 L 9.4375 -41.8125 L 9.4375 -24.90625 L 29.5625 -24.90625 L 29.5625 -22.03125 L 9.4375 -22.03125 L 9.4375 -2.875 L 30.75 -2.875 Z M 30.75 0 "/></g></g><g transform="translate(519.575523, 277.590403)"><g/></g><g transform="translate(535.836524, 277.590403)"><g><path d="M 9.4375 -19.46875 L 9.4375 0 L 6.328125 0 L 6.328125 -44.6875 L 16.96875 -44.6875 C 22.507812 -44.6875 26.601562 -43.660156 29.25 -41.609375 C 31.894531 -39.566406 33.21875 -36.484375 33.21875 -32.359375 C 33.21875 -29.367188 32.425781 -26.84375 30.84375 -24.78125 C 29.269531 -22.726562 26.875 -21.253906 23.65625 -20.359375 L 35.796875 0 L 32.0625 0 L 20.53125 -19.46875 Z M 9.4375 -22.15625 L 17.96875 -22.15625 C 21.738281 -22.15625 24.660156 -22.992188 26.734375 -24.671875 C 28.816406 -26.359375 29.859375 -28.84375 29.859375 -32.125 C 29.859375 -35.519531 28.835938 -37.992188 26.796875 -39.546875 C 24.765625 -41.097656 21.445312 -41.875 16.84375 -41.875 L 9.4375 -41.875 Z M 9.4375 -22.15625 "/></g></g><g transform="translate(573.03509, 277.590403)"><g/></g><g transform="translate(589.296091, 277.590403)"><g><path d="M 6.328125 0 L 6.328125 -44.6875 L 9.4375 -44.6875 L 9.4375 0 Z M 6.328125 0 "/></g></g><g transform="translate(605.068039, 277.590403)"><g/></g><g transform="translate(621.329039, 277.590403)"><g><path d="M 38.8125 0 L 35.671875 0 L 9.203125 -39.671875 L 8.953125 -39.671875 C 9.203125 -34.941406 9.328125 -31.375 9.328125 -28.96875 L 9.328125 0 L 6.328125 0 L 6.328125 -44.6875 L 9.4375 -44.6875 L 35.875 -5.078125 L 36.0625 -5.078125 C 35.882812 -8.742188 35.796875 -12.226562 35.796875 -15.53125 L 35.796875 -44.6875 L 38.8125 -44.6875 Z M 38.8125 0 "/></g></g><g transform="translate(666.474712, 277.590403)"><g/></g><g transform="translate(682.735712, 277.590403)"><g><path d="M 23.90625 -22.53125 L 40.375 -22.53125 L 40.375 -2.140625 C 36.050781 -0.304688 31.191406 0.609375 25.796875 0.609375 C 18.742188 0.609375 13.335938 -1.378906 9.578125 -5.359375 C 5.816406 -9.347656 3.9375 -14.988281 3.9375 -22.28125 C 3.9375 -26.820312 4.867188 -30.847656 6.734375 -34.359375 C 8.597656 -37.878906 11.265625 -40.597656 14.734375 -42.515625 C 18.210938 -44.429688 22.207031 -45.390625 26.71875 -45.390625 C 31.582031 -45.390625 35.953125 -44.492188 39.828125 -42.703125 L 38.578125 -39.890625 C 34.703125 -41.679688 30.6875 -42.578125 26.53125 -42.578125 C 20.644531 -42.578125 15.972656 -40.753906 12.515625 -37.109375 C 9.054688 -33.472656 7.328125 -28.570312 7.328125 -22.40625 C 7.328125 -15.675781 8.96875 -10.613281 12.25 -7.21875 C 15.53125 -3.832031 20.351562 -2.140625 26.71875 -2.140625 C 30.832031 -2.140625 34.328125 -2.71875 37.203125 -3.875 L 37.203125 -19.59375 L 23.90625 -19.59375 Z M 23.90625 -22.53125 "/></g></g></g><g fill="#000000" fill-opacity="1"><g transform="translate(727.950529, 277.590403)"><g/></g><g transform="translate(744.21153, 277.590403)"><g/></g></g><g fill="#000000" fill-opacity="1"><g transform="translate(760.468521, 277.590403)"><g><path d="M 6.328125 0 L 6.328125 -44.6875 L 9.4375 -44.6875 L 9.4375 0 Z M 6.328125 0 "/></g></g><g transform="translate(776.240469, 277.590403)"><g/></g><g transform="translate(792.50147, 277.590403)"><g><path d="M 38.8125 0 L 35.671875 0 L 9.203125 -39.671875 L 8.953125 -39.671875 C 9.203125 -34.941406 9.328125 -31.375 9.328125 -28.96875 L 9.328125 0 L 6.328125 0 L 6.328125 -44.6875 L 9.4375 -44.6875 L 35.875 -5.078125 L 36.0625 -5.078125 C 35.882812 -8.742188 35.796875 -12.226562 35.796875 -15.53125 L 35.796875 -44.6875 L 38.8125 -44.6875 Z M 38.8125 0 "/></g></g></g><g fill="#000000" fill-opacity="1"><g transform="translate(166.550167, 376.226081)"><g><path d="M 38.6875 0 L 35.546875 0 L 35.546875 -21.96875 L 9.4375 -21.96875 L 9.4375 0 L 6.328125 0 L 6.328125 -44.6875 L 9.4375 -44.6875 L 9.4375 -24.84375 L 35.546875 -24.84375 L 35.546875 -44.6875 L 38.6875 -44.6875 Z M 38.6875 0 "/></g></g></g><g fill="#a01636" fill-opacity="1"><g transform="translate(211.510941, 376.226081)"><g/></g></g><g fill="#000000" fill-opacity="1"><g transform="translate(227.737868, 376.226081)"><g><path d="M 30.75 0 L 6.328125 0 L 6.328125 -44.6875 L 30.75 -44.6875 L 30.75 -41.8125 L 9.4375 -41.8125 L 9.4375 -24.90625 L 29.5625 -24.90625 L 29.5625 -22.03125 L 9.4375 -22.03125 L 9.4375 -2.875 L 30.75 -2.875 Z M 30.75 0 "/></g></g><g transform="translate(262.277211, 376.226081)"><g/></g></g><g fill="#a01636" fill-opacity="1"><g transform="translate(278.535205, 376.226081)"><g><path d="M 32.984375 0 L 29.734375 -10.640625 L 13.453125 -10.640625 L 10.203125 0 L 0 0 L 15.765625 -44.859375 L 27.359375 -44.859375 L 43.1875 0 Z M 27.46875 -18.578125 C 24.476562 -28.210938 22.796875 -33.660156 22.421875 -34.921875 C 22.046875 -36.191406 21.773438 -37.191406 21.609375 -37.921875 C 20.929688 -35.316406 19.003906 -28.867188 15.828125 -18.578125 Z M 27.46875 -18.578125 "/></g></g></g><g fill="#000000" fill-opacity="1"><g transform="translate(321.700113, 376.226081)"><g/></g><g transform="translate(337.961114, 376.226081)"><g><path d="M 6.328125 0 L 6.328125 -44.6875 L 9.4375 -44.6875 L 9.4375 -2.9375 L 30.75 -2.9375 L 30.75 0 Z M 6.328125 0 "/></g></g><g transform="translate(370.085759, 376.226081)"><g/></g><g transform="translate(386.346759, 376.226081)"><g><path d="M 17.96875 0 L 14.828125 0 L 14.828125 -41.75 L 0.3125 -41.75 L 0.3125 -44.6875 L 32.484375 -44.6875 L 32.484375 -41.75 L 17.96875 -41.75 Z M 17.96875 0 "/></g></g><g transform="translate(419.143852, 376.226081)"><g/></g><g transform="translate(435.404852, 376.226081)"><g><path d="M 38.6875 0 L 35.546875 0 L 35.546875 -21.96875 L 9.4375 -21.96875 L 9.4375 0 L 6.328125 0 L 6.328125 -44.6875 L 9.4375 -44.6875 L 9.4375 -24.84375 L 35.546875 -24.84375 L 35.546875 -44.6875 L 38.6875 -44.6875 Z M 38.6875 0 "/></g></g></g><g fill="#000000" fill-opacity="1"><g transform="translate(480.377652, 376.226081)"><g/></g><g transform="translate(496.638652, 376.226081)"><g/></g></g><g fill="#000000" fill-opacity="1"><g transform="translate(512.895644, 376.226081)"><g><path d="M 3.765625 -11.34375 C 3.765625 -14.15625 4.507812 -16.546875 6 -18.515625 C 7.5 -20.492188 10.296875 -22.582031 14.390625 -24.78125 L 12.109375 -27.296875 C 10.753906 -28.742188 9.75 -30.160156 9.09375 -31.546875 C 8.445312 -32.929688 8.125 -34.375 8.125 -35.875 C 8.125 -38.789062 9.097656 -41.101562 11.046875 -42.8125 C 12.992188 -44.53125 15.609375 -45.390625 18.890625 -45.390625 C 22.046875 -45.390625 24.546875 -44.5625 26.390625 -42.90625 C 28.234375 -41.257812 29.15625 -38.976562 29.15625 -36.0625 C 29.15625 -33.925781 28.441406 -31.960938 27.015625 -30.171875 C 25.585938 -28.390625 23.007812 -26.410156 19.28125 -24.234375 L 33.09375 -10.265625 C 34.34375 -11.734375 35.40625 -13.332031 36.28125 -15.0625 C 37.15625 -16.800781 37.921875 -18.851562 38.578125 -21.21875 L 41.5 -21.21875 C 40.21875 -16.195312 38.09375 -11.851562 35.125 -8.1875 L 43.25 0 L 39.125 0 L 33.21875 -6.015625 C 31.34375 -4.179688 29.671875 -2.84375 28.203125 -2 C 26.742188 -1.15625 25.140625 -0.507812 23.390625 -0.0625 C 21.648438 0.382812 19.671875 0.609375 17.453125 0.609375 C 13.191406 0.609375 9.84375 -0.4375 7.40625 -2.53125 C 4.976562 -4.632812 3.765625 -7.570312 3.765625 -11.34375 Z M 17.671875 -2.140625 C 20.273438 -2.140625 22.660156 -2.582031 24.828125 -3.46875 C 27.003906 -4.351562 29.140625 -5.847656 31.234375 -7.953125 L 16.46875 -22.765625 C 13.695312 -21.296875 11.695312 -20.046875 10.46875 -19.015625 C 9.238281 -17.992188 8.34375 -16.878906 7.78125 -15.671875 C 7.21875 -14.472656 6.9375 -13.070312 6.9375 -11.46875 C 6.9375 -8.550781 7.882812 -6.265625 9.78125 -4.609375 C 11.675781 -2.960938 14.304688 -2.140625 17.671875 -2.140625 Z M 11.40625 -35.9375 C 11.40625 -34.332031 11.8125 -32.847656 12.625 -31.484375 C 13.4375 -30.117188 14.984375 -28.34375 17.265625 -26.15625 C 20.503906 -27.894531 22.753906 -29.515625 24.015625 -31.015625 C 25.285156 -32.523438 25.921875 -34.25 25.921875 -36.1875 C 25.921875 -38.101562 25.285156 -39.65625 24.015625 -40.84375 C 22.753906 -42.039062 21.046875 -42.640625 18.890625 -42.640625 C 16.566406 -42.640625 14.738281 -42.046875 13.40625 -40.859375 C 12.070312 -39.679688 11.40625 -38.039062 11.40625 -35.9375 Z M 11.40625 -35.9375 "/></g></g></g><g fill="#a01636" fill-opacity="1"><g transform="translate(166.550167, 474.580321)"><g><path d="M 24.546875 0 L 13.78125 -35.0625 L 13.515625 -35.0625 C 13.898438 -27.925781 14.09375 -23.164062 14.09375 -20.78125 L 14.09375 0 L 5.625 0 L 5.625 -44.6875 L 18.515625 -44.6875 L 29.09375 -10.515625 L 29.28125 -10.515625 L 40.5 -44.6875 L 53.390625 -44.6875 L 53.390625 0 L 44.5625 0 L 44.5625 -21.15625 C 44.5625 -22.144531 44.578125 -23.289062 44.609375 -24.59375 C 44.640625 -25.90625 44.773438 -29.375 45.015625 -35 L 44.75 -35 L 33.21875 0 Z M 24.546875 0 "/></g></g><g transform="translate(225.572707, 474.580321)"><g/></g></g><g fill="#000000" fill-opacity="1"><g transform="translate(241.784101, 474.580321)"><g><path d="M 30.75 0 L 6.328125 0 L 6.328125 -44.6875 L 30.75 -44.6875 L 30.75 -41.8125 L 9.4375 -41.8125 L 9.4375 -24.90625 L 29.5625 -24.90625 L 29.5625 -22.03125 L 9.4375 -22.03125 L 9.4375 -2.875 L 30.75 -2.875 Z M 30.75 0 "/></g></g><g transform="translate(276.323444, 474.580321)"><g/></g><g transform="translate(292.584444, 474.580321)"><g><path d="M 40.25 -22.765625 C 40.25 -15.265625 38.28125 -9.59375 34.34375 -5.75 C 30.414062 -1.914062 24.644531 0 17.03125 0 L 6.328125 0 L 6.328125 -44.6875 L 18.40625 -44.6875 C 25.53125 -44.6875 30.953125 -42.820312 34.671875 -39.09375 C 38.390625 -35.363281 40.25 -29.921875 40.25 -22.765625 Z M 36.859375 -22.640625 C 36.859375 -29.046875 35.234375 -33.863281 31.984375 -37.09375 C 28.734375 -40.320312 23.960938 -41.9375 17.671875 -41.9375 L 9.4375 -41.9375 L 9.4375 -2.75 L 16.84375 -2.75 C 30.1875 -2.75 36.859375 -9.378906 36.859375 -22.640625 Z M 36.859375 -22.640625 "/></g></g><g transform="translate(336.782577, 474.580321)"><g/></g><g transform="translate(353.043578, 474.580321)"><g><path d="M 6.328125 0 L 6.328125 -44.6875 L 9.4375 -44.6875 L 9.4375 0 Z M 6.328125 0 "/></g></g><g transform="translate(368.815525, 474.580321)"><g/></g><g transform="translate(385.076526, 474.580321)"><g><path d="M 25.390625 -42.515625 C 19.796875 -42.515625 15.382812 -40.71875 12.15625 -37.125 C 8.9375 -33.539062 7.328125 -28.632812 7.328125 -22.40625 C 7.328125 -16.03125 8.84375 -11.078125 11.875 -7.546875 C 14.914062 -4.023438 19.257812 -2.265625 24.90625 -2.265625 C 28.65625 -2.265625 32.097656 -2.742188 35.234375 -3.703125 L 35.234375 -0.953125 C 32.285156 0.0859375 28.597656 0.609375 24.171875 0.609375 C 17.898438 0.609375 12.957031 -1.414062 9.34375 -5.46875 C 5.738281 -9.519531 3.9375 -15.1875 3.9375 -22.46875 C 3.9375 -27.007812 4.796875 -31.007812 6.515625 -34.46875 C 8.242188 -37.9375 10.722656 -40.613281 13.953125 -42.5 C 17.179688 -44.382812 20.9375 -45.328125 25.21875 -45.328125 C 29.570312 -45.328125 33.472656 -44.507812 36.921875 -42.875 L 35.671875 -40.0625 C 32.410156 -41.695312 28.984375 -42.515625 25.390625 -42.515625 Z M 25.390625 -42.515625 "/></g></g><g transform="translate(423.956211, 474.580321)"><g/></g><g transform="translate(440.217212, 474.580321)"><g><path d="M 6.328125 0 L 6.328125 -44.6875 L 9.4375 -44.6875 L 9.4375 0 Z M 6.328125 0 "/></g></g><g transform="translate(455.98916, 474.580321)"><g/></g><g transform="translate(472.25016, 474.580321)"><g><path d="M 38.8125 0 L 35.671875 0 L 9.203125 -39.671875 L 8.953125 -39.671875 C 9.203125 -34.941406 9.328125 -31.375 9.328125 -28.96875 L 9.328125 0 L 6.328125 0 L 6.328125 -44.6875 L 9.4375 -44.6875 L 35.875 -5.078125 L 36.0625 -5.078125 C 35.882812 -8.742188 35.796875 -12.226562 35.796875 -15.53125 L 35.796875 -44.6875 L 38.8125 -44.6875 Z M 38.8125 0 "/></g></g><g transform="translate(517.395832, 474.580321)"><g/></g><g transform="translate(533.656833, 474.580321)"><g><path d="M 30.75 0 L 6.328125 0 L 6.328125 -44.6875 L 30.75 -44.6875 L 30.75 -41.8125 L 9.4375 -41.8125 L 9.4375 -24.90625 L 29.5625 -24.90625 L 29.5625 -22.03125 L 9.4375 -22.03125 L 9.4375 -2.875 L 30.75 -2.875 Z M 30.75 0 "/></g></g></g></svg>
