<?xml version="1.0" encoding="UTF-8"?>
<!DOCTYPE svg PUBLIC "-//W3C//DTD SVG 1.1//EN" "http://www.w3.org/Graphics/SVG/1.1/DTD/svg11.dtd">
<!-- Creator: CorelDRAW -->
<svg xmlns="http://www.w3.org/2000/svg" xml:space="preserve" width="1183px" height="793px" style="shape-rendering:geometricPrecision; text-rendering:geometricPrecision; image-rendering:optimizeQuality; fill-rule:evenodd; clip-rule:evenodd"
viewBox="0 0 2765.75 424.339"
 xmlns:xlink="http://www.w3.org/1999/xlink">
 <defs>
  <style type="text/css">
   <![CDATA[
    .fil2 {fill:#BE0F37}
    .fil0 {fill:#434242;fill-rule:nonzero}
    .fil1 {fill:#BE0F37;fill-rule:nonzero}
   ]]>
  </style>
 </defs>
 <g id="Layer_x0020_1">
  <metadata id="CorelCorpID_0Corel-Layer"/>
  <g id="_462773608">
   <g>
    <path id="_462780088" class="fil0" d="M2064.53 119.674c-1.73965,0 -3.13137,-0.408679 -4.16411,-1.22604 -1.03827,-0.817359 -1.63748,-1.90809 -1.8004,-3.26667 -0.16292,-1.36134 0.138067,-2.91598 0.900199,-4.65839l44.9326 -102.289c0.98304,-2.1787 2.15385,-3.73058 3.5152,-4.65839 1.36134,-0.919529 2.85799,-1.3862 4.49271,-1.3862 1.63196,0 3.13137,0.466668 4.49271,1.3862 1.36134,0.927813 2.47693,2.47969 3.34951,4.65839l45.1011 102.289c0.867063,1.74241 1.22328,3.3219 1.06036,4.73571 -0.165681,1.41933 -0.73728,2.51007 -1.71756,3.2722 -0.980278,0.759371 -2.33886,1.1432 -4.08403,1.1432 -1.96056,0 -3.53729,-0.516372 -4.73847,-1.55188 -1.19566,-1.03551 -2.1787,-2.53216 -2.94084,-4.49547l-10.6201 -24.5291 -60.0234 0.0220908 -10.402 24.507c-0.98304,2.07101 -2.01578,3.59527 -3.10652,4.57555 -1.08797,0.980278 -2.50178,1.4718 -4.24695,1.4718zm47.7106 -100.657l-24.9902 58.836 50.3311 -0.0110454 -25.0095 -58.825 -0.331362 0z"/>
    <path id="_462779800" class="fil0" d="M1879.15 213.712l-0.00276135 -0.527417c0,-9.15111 1.22604,-17.3744 3.67812,-24.6726 2.44932,-7.301 6.04459,-13.4809 10.7831,-18.548 15.1184,-16.1622 39.9125,-19.1389 60.3741,-13.0695 6.42842,1.90533 12.1472,4.92624 17.1563,9.06827 1.30888,0.977517 2.12624,2.06825 2.45208,3.26667 0.3286,1.19842 0.300987,2.39685 -0.0800791,3.59527 -0.381066,1.19842 -0.980278,2.20632 -1.79764,3.02368 -0.817359,0.814598 -1.85286,1.2785 -3.10375,1.38896 -1.25365,0.110454 -2.53492,-0.273373 -3.84103,-1.14596 -4.4651,-3.48482 -9.20357,-6.01698 -14.2154,-7.59647 -19.9673,-6.3014 -43.425,-1.24813 -52.5346,19.1997 -3.10099,6.9724 -4.65287,15.4663 -4.65287,25.49l0.00828404 0.527417 -0.00828404 0.530179c0,10.0209 1.55188,18.5176 4.65287,25.49 3.21421,7.20988 8.21225,12.5034 14.2099,16.0628 2.39685,1.28679 4.86826,2.33334 7.4087,3.13413 4.98976,1.57673 10.217,2.44103 15.3918,2.53492l0.173965 0c5.14715,-0.0938858 10.3578,-0.958188 15.3503,-2.53492 3.286,-1.03274 6.45327,-2.47693 9.50456,-4.33255 5.19409,-3.50967 9.51837,-8.42487 12.3874,-14.8643 2.5432,-5.71875 3.86313,-12.462 4.25248,-20.2324l-26.8486 0c-2.26154,0 -3.95701,-0.568838 -5.08916,-1.69547 -1.13215,-1.13491 -1.69547,-2.64261 -1.69547,-4.52585 0,-2.01026 0.566076,-3.51796 1.69547,-4.52309 1.13215,-1.00513 2.82762,-1.5077 5.08916,-1.5077l33.1914 0c2.13452,0 3.78581,0.577122 4.89863,1.69547 1.09349,1.09073 1.70375,2.72545 1.69823,4.76885l0.0248521 0 0.00276135 0.530179c0.0110454,2.31401 -0.0358975,4.59212 -0.14359,6.82329l-0.055227 3.41579c-0.209862,2.9436 -0.740041,5.76569 -1.2288,8.5298l-0.190533 0.944381 -0.063511 0c-1.83353,9.05722 -5.35701,17.0403 -11.4044,23.5046 -10.6367,11.3712 -26.0726,16.2202 -41.4202,15.9744 -15.3862,0.276135 -30.8774,-4.56451 -41.55,-15.9744 -4.73847,-5.06431 -8.33375,-11.247 -10.7831,-18.5452 -2.45208,-7.29824 -3.67812,-15.5215 -3.67812,-24.6726l0.00276135 -0.530179z"/>
    <path id="_462780208" class="fil0" d="M2193.2 118.531c-2.1787,0 -3.86313,-0.629587 -5.06707,-1.88048 -1.19566,-1.25089 -1.79211,-2.96845 -1.79211,-5.14715l0 -101.963c0,-2.2864 0.571599,-4.02604 1.7148,-5.22999 1.1432,-1.1929 2.80277,-1.79488 4.98147,-1.79488 2.1787,0 3.84103,0.601974 4.98423,1.79488 1.1432,1.20395 1.7148,2.9436 1.7148,5.22999l0 97.2243 53.595 0c1.96332,0 3.48482,0.516372 4.57555,1.55188 1.09073,1.03274 1.63472,2.47969 1.63472,4.32979 0,1.85286 -0.543985,3.29705 -1.63472,4.33255 -1.09073,1.03551 -2.61223,1.55188 -4.57555,1.55188l-60.1311 0z"/>
    <path id="_462779368" class="fil0" d="M1952.68 119.674c-2.06825,0 -3.6505,-0.571599 -4.73847,-1.7148 -1.09073,-1.14872 -1.63196,-2.80553 -1.63196,-4.98423l0 -103.923c0,-2.1787 0.541224,-3.86865 1.63196,-5.06431 1.08797,-1.19842 2.50454,-1.79764 4.24695,-1.79764 1.74241,0 3.02644,0.298226 3.8438,0.900199 0.814598,0.599212 1.76726,1.65957 2.85799,3.18383l67.3465 89.7521 -0.0276135 -87.3c0,-2.06825 0.546747,-3.67535 1.63472,-4.81855 1.08797,-1.14596 2.66746,-1.71756 4.73847,-1.71756 1.96056,0 3.45721,0.571599 4.49271,1.71756 1.03551,1.1432 1.55188,2.7503 1.55188,4.81855l0 104.409c0,2.07101 -0.463906,3.67535 -1.38896,4.82407 -0.925051,1.1432 -2.25878,1.7148 -4.00395,1.7148 -1.6292,0 -2.94084,-0.3286 -3.92111,-0.980278 -0.980278,-0.654439 -2.01026,-1.68994 -3.10375,-3.10375l-67.2554 -89.8294 -0.063511 87.2144c0,2.1787 -0.546747,3.83551 -1.63472,4.98423 -1.09073,1.1432 -2.61223,1.7148 -4.57555,1.7148z"/>
    <path id="_462779032" class="fil0" d="M1257.74 119.674c-2.06825,0 -3.64774,-0.571599 -4.73571,-1.7148 -1.09073,-1.14872 -1.63472,-2.80553 -1.63472,-4.98423l0 -103.923c0,-2.1787 0.543985,-3.86865 1.63472,-5.06431 1.08797,-1.19842 2.50178,-1.79764 4.24695,-1.79764 1.73965,0 3.02368,0.298226 3.84103,0.900199 0.817359,0.599212 1.76726,1.65957 2.85799,3.18383l67.3465 89.7521 -0.0248521 -87.3c0,-2.06825 0.543985,-3.67535 1.63196,-4.81855 1.08797,-1.14596 2.67022,-1.71756 4.74123,-1.71756 1.96056,0 3.45445,0.571599 4.48995,1.71756 1.03551,1.1432 1.55188,2.7503 1.55188,4.81855l0 104.409c0,2.07101 -0.463906,3.67535 -1.38896,4.82407 -0.92229,1.1432 -2.25878,1.7148 -4.00395,1.7148 -1.6292,0 -2.94084,-0.3286 -3.92111,-0.980278 -0.977517,-0.654439 -2.01026,-1.68994 -3.10099,-3.10375l-67.2554 -89.8294 -0.0662723 87.2144c0,2.1787 -0.546747,3.83551 -1.63472,4.98423 -1.09073,1.1432 -2.61223,1.7148 -4.57555,1.7148z"/>
    <path id="_462778936" class="fil0" d="M1308.58 271.844c-2.06549,0 -3.64774,-0.571599 -4.73571,-1.7148 -1.09073,-1.14596 -1.63472,-2.80277 -1.63472,-4.98147l0 -103.926c0,-2.1787 0.543985,-3.86589 1.63472,-5.06155 1.08797,-1.19842 2.50178,-1.8004 4.24695,-1.8004 1.73965,0 3.02368,0.300987 3.84103,0.900199 0.817359,0.599212 1.76726,1.65957 2.85799,3.1866l67.3465 89.7493 -0.0248521 -87.3c0,-2.06825 0.543985,-3.67535 1.63196,-4.81855 1.08797,-1.14596 2.67022,-1.71756 4.74123,-1.71756 1.96056,0 3.45721,0.571599 4.49271,1.71756 1.03551,1.1432 1.55188,2.7503 1.55188,4.81855l0 104.412c0,2.07101 -0.463906,3.67535 -1.38896,4.82131 -0.925051,1.1432 -2.26154,1.7148 -4.00672,1.7148 -1.6292,0 -2.93807,-0.325839 -3.91835,-0.980278 -0.980278,-0.654439 -2.01302,-1.68994 -3.10375,-3.10375l-67.2554 -89.8266 -0.0662723 87.2144c0,2.1787 -0.543985,3.83551 -1.63196,4.98147 -1.09073,1.1432 -2.615,1.7148 -4.57831,1.7148z"/>
    <path id="_462778816" class="fil0" d="M1771.32 271.844c-2.06549,0 -3.64774,-0.571599 -4.73571,-1.7148 -1.09073,-1.14596 -1.63196,-2.80277 -1.63196,-4.98147l0 -103.926c0,-2.1787 0.541224,-3.86589 1.63196,-5.06155 1.08797,-1.19842 2.50178,-1.8004 4.24695,-1.8004 1.74241,0 3.02368,0.300987 3.84103,0.900199 0.817359,0.599212 1.76726,1.65957 2.85799,3.1866l67.3465 89.7493 -0.0248521 -87.3c0,-2.06825 0.546747,-3.67535 1.63196,-4.81855 1.08797,-1.14596 2.67022,-1.71756 4.74123,-1.71756 1.96056,0 3.45721,0.571599 4.49271,1.71756 1.03551,1.1432 1.55188,2.7503 1.55188,4.81855l0 104.412c0,2.07101 -0.463906,3.67535 -1.38896,4.82131 -0.925051,1.1432 -2.26154,1.7148 -4.00672,1.7148 -1.6292,0 -2.93807,-0.325839 -3.91835,-0.980278 -0.980278,-0.654439 -2.01302,-1.68994 -3.10375,-3.10375l-67.2554 -89.8266 -0.0662723 87.2144c0,2.1787 -0.543985,3.83551 -1.63196,4.98147 -1.09073,1.1432 -2.615,1.7148 -4.57831,1.7148z"/>
    <path id="_462779488" class="fil0" d="M2093.37 271.844c-2.06825,0 -3.6505,-0.571599 -4.73847,-1.7148 -1.09073,-1.14596 -1.63196,-2.80277 -1.63196,-4.98147l0 -103.926c0,-2.1787 0.541224,-3.86589 1.63196,-5.06155 1.08797,-1.19842 2.50454,-1.8004 4.24695,-1.8004 1.74241,0 3.02644,0.300987 3.84103,0.900199 0.817359,0.599212 1.77002,1.65957 2.86076,3.1866l67.3465 89.7493 -0.0276135 -87.3c0,-2.06825 0.546747,-3.67535 1.63472,-4.81855 1.08797,-1.14596 2.66746,-1.71756 4.73847,-1.71756 1.96056,0 3.45721,0.571599 4.49271,1.71756 1.03551,1.1432 1.55188,2.7503 1.55188,4.81855l0 104.412c0,2.07101 -0.463906,3.67535 -1.38896,4.82131 -0.925051,1.1432 -2.26154,1.7148 -4.00395,1.7148 -1.63196,0 -2.94084,-0.325839 -3.92111,-0.980278 -0.980278,-0.654439 -2.01302,-1.68994 -3.10375,-3.10375l-67.2554 -89.8266 -0.063511 87.2144c0,2.1787 -0.546747,3.83551 -1.63472,4.98147 -1.09073,1.1432 -2.61223,1.7148 -4.57555,1.7148z"/>
    <path id="_462779080" class="fil0" d="M2577.35 424.013c-2.06825,0 -3.64774,-0.571599 -4.73571,-1.7148 -1.09349,-1.14596 -1.63472,-2.80277 -1.63472,-4.98147l0 -103.923c0,-2.1787 0.541224,-3.86865 1.63472,-5.06431 1.08797,-1.19842 2.50178,-1.8004 4.24419,-1.8004 1.74241,0 3.02644,0.300987 3.8438,0.902961 0.814598,0.596451 1.76726,1.65957 2.85799,3.18383l67.3465 89.7493 -0.0276135 -87.3c0,-2.06549 0.546747,-3.67259 1.63472,-4.81855 1.08797,-1.14596 2.67022,-1.71756 4.74123,-1.71756 1.9578,0 3.45445,0.571599 4.48995,1.71756 1.03551,1.14596 1.55188,2.75306 1.55188,4.81855l0 104.412c0,2.07101 -0.463906,3.67535 -1.38896,4.82131 -0.92229,1.1432 -2.25878,1.7148 -4.00395,1.7148 -1.6292,0 -2.94084,-0.325839 -3.92111,-0.980278 -0.980278,-0.651678 -2.01026,-1.68718 -3.10375,-3.10099l-67.2526 -89.8294 -0.0662723 87.2144c0,2.1787 -0.546747,3.83551 -1.63472,4.98147 -1.09073,1.1432 -2.61223,1.7148 -4.57555,1.7148z"/>
    <path id="_462779128" class="fil0" d="M1741.73 424.013c-2.06549,0 -3.64774,-0.571599 -4.73571,-1.7148 -1.09073,-1.14596 -1.63196,-2.80277 -1.63196,-4.98147l0 -103.923c0,-2.1787 0.541224,-3.86865 1.63196,-5.06431 1.08797,-1.19842 2.50178,-1.8004 4.24695,-1.8004 1.74241,0 3.02368,0.300987 3.84103,0.902961 0.817359,0.596451 1.76726,1.65957 2.85799,3.18383l67.3465 89.7493 -0.0248521 -87.3c0,-2.06549 0.546747,-3.67259 1.63472,-4.81855 1.08521,-1.14596 2.66746,-1.71756 4.73847,-1.71756 1.96056,0 3.45721,0.571599 4.49271,1.71756 1.03551,1.14596 1.55188,2.75306 1.55188,4.81855l0 104.412c0,2.07101 -0.463906,3.67535 -1.38896,4.82131 -0.925051,1.1432 -2.26154,1.7148 -4.00395,1.7148 -1.63196,0 -2.94084,-0.325839 -3.92111,-0.980278 -0.980278,-0.651678 -2.01302,-1.68718 -3.10375,-3.10099l-67.2554 -89.8294 -0.0662723 87.2144c0,2.1787 -0.543985,3.83551 -1.63196,4.98147 -1.09073,1.1432 -2.615,1.7148 -4.57831,1.7148z"/>
    <path id="_462778696" class="fil0" d="M1025.4 271.844c-2.06825,0 -3.6505,-0.571599 -4.73571,-1.7148 -1.09349,-1.14596 -1.63472,-2.80277 -1.63472,-4.98147l0 -103.926c0,-2.1787 0.541224,-3.86589 1.63472,-5.06155 1.08521,-1.19842 2.50178,-1.8004 4.24419,-1.8004 1.74241,0 3.02644,0.300987 3.8438,0.900199 0.814598,0.599212 1.76726,1.65957 2.85799,3.1866l67.3465 89.7493 -0.0276135 -87.3c0,-2.06825 0.546747,-3.67535 1.63472,-4.81855 1.08797,-1.14596 2.66746,-1.71756 4.74123,-1.71756 1.9578,0 3.45445,0.571599 4.48995,1.71756 1.03551,1.1432 1.55188,2.7503 1.55188,4.81855l0 104.412c0,2.07101 -0.463906,3.67535 -1.38896,4.82131 -0.92229,1.1432 -2.25878,1.7148 -4.00395,1.7148 -1.6292,0 -2.94084,-0.325839 -3.92111,-0.980278 -0.980278,-0.654439 -2.01026,-1.68994 -3.10375,-3.10375l-67.2554 -89.8266 -0.063511 87.2144c0,2.1787 -0.546747,3.83551 -1.63472,4.98147 -1.09073,1.1432 -2.61223,1.7148 -4.57555,1.7148z"/>
    <path id="_462778360" class="fil0" d="M1869.35 120.003c-10.6726,0 -19.959,-2.42446 -27.8592,-7.27063 -7.89469,-4.84893 -13.9945,-11.686 -18.2995,-20.5085 -4.30218,-8.82527 -6.45051,-19.2797 -6.45051,-31.3744 0,-9.15111 1.22052,-17.3468 3.67259,-24.5926 2.45208,-7.24301 5.96727,-13.3953 10.5401,-18.4624 4.57555,-5.06431 10.1038,-8.98266 16.5847,-11.7633 6.48088,-2.78068 13.7543,-4.16687 21.8119,-4.16687 10.8935,0 20.2931,2.39685 28.1878,7.18779 7.90022,4.79646 14,11.5728 18.3022,20.3456 4.30218,8.76728 6.45327,19.1969 6.45327,31.2888 0,9.14834 -1.25365,17.3744 -3.75543,24.6726 -2.51007,7.301 -6.05011,13.5085 -10.6229,18.6281 -4.57831,5.11954 -10.1038,9.06827 -16.5874,11.8489 -6.48088,2.77515 -13.804,4.16687 -21.9776,4.16687zm0 -11.929c8.28128,0 15.2785,-1.85286 21,-5.55859 5.71875,-3.70021 10.1038,-9.09312 13.1551,-16.176 3.04577,-7.0801 4.57279,-15.5795 4.57279,-25.49 0,-14.9223 -3.35228,-26.4951 -10.0485,-34.7212 -6.70179,-8.22329 -16.2588,-12.3349 -28.6794,-12.3349 -8.05761,0 -14.9472,1.8501 -20.6659,5.55307 -5.71875,3.70297 -10.1065,9.06827 -13.1551,16.0931 -3.05129,7.02763 -4.57555,15.4967 -4.57555,25.4099 0,14.8146 3.37713,26.3874 10.1286,34.7239 6.75702,8.33375 16.1815,12.5006 28.2679,12.5006z"/>
    <path id="_462778648" class="fil0" d="M1785.69 119.674c-2.1787,0 -3.84103,-0.629587 -4.98147,-1.88048 -1.1432,-1.25365 -1.71756,-2.96845 -1.71756,-5.14715l0 -103.432c0,-2.2864 0.57436,-4.03157 1.71756,-5.22723 1.14044,-1.19842 2.80277,-1.79764 4.98147,-1.79764 2.1787,0 3.84103,0.599212 4.98147,1.79764 1.14872,1.19566 1.72032,2.94084 1.72032,5.22723l0 103.432c0,2.1787 -0.546747,3.8935 -1.63472,5.14715 -1.09073,1.25089 -2.78068,1.88048 -5.06707,1.88048z"/>
    <path id="_462778048" class="fil0" d="M1715.59 119.674c-2.06825,0 -3.70297,-0.629587 -4.90139,-1.88048 -1.19842,-1.25365 -1.79488,-2.96845 -1.79488,-5.14715l0 -97.7103 -36.7646 0c-1.96332,0 -3.48482,-0.546747 -4.57555,-1.63472 -1.08797,-1.09073 -1.63472,-2.50454 -1.63472,-4.24971 0,-1.8501 0.546747,-3.26667 1.63472,-4.24695 1.09073,-0.98304 2.61223,-1.46904 4.57555,-1.46904l87.0901 0c1.96056,0 3.48482,0.485997 4.57279,1.46904 1.08797,0.980278 1.63472,2.39685 1.63472,4.24695 0,1.85286 -0.546747,3.29705 -1.63472,4.33255 -1.08797,1.03551 -2.61223,1.55188 -4.57279,1.55188l-36.7646 0 0 97.7103c0,2.1787 -0.571599,3.8935 -1.71756,5.14715 -1.1432,1.25089 -2.85799,1.88048 -5.14715,1.88048z"/>
    <path id="_462778720" class="fil0" d="M1559.06 119.674c-1.73965,0 -3.13137,-0.408679 -4.16411,-1.22604 -1.03827,-0.817359 -1.63748,-1.90809 -1.8004,-3.26667 -0.16292,-1.36134 0.138067,-2.91598 0.897438,-4.65839l44.9354 -102.289c0.98304,-2.1787 2.15109,-3.73058 3.5152,-4.65839 1.36134,-0.919529 2.85799,-1.3862 4.48995,-1.3862 1.63472,0 3.13413,0.466668 4.49547,1.3862 1.35858,0.927813 2.47693,2.47969 3.34951,4.65839l45.0983 102.289c0.869825,1.74241 1.22604,3.3219 1.06312,4.73571 -0.165681,1.41933 -0.73728,2.51007 -1.71756,3.2722 -0.980278,0.759371 -2.33886,1.1432 -4.08403,1.1432 -1.96056,0 -3.53729,-0.516372 -4.74123,-1.55188 -1.19566,-1.03551 -2.1787,-2.53216 -2.93807,-4.49547l-10.6201 -24.5291 -60.0234 0.0220908 -10.402 24.507c-0.98304,2.07101 -2.01578,3.59527 -3.10652,4.57555 -1.08797,0.980278 -2.50178,1.4718 -4.24695,1.4718zm47.7106 -100.657l-24.9902 58.836 50.3311 -0.0110454 -25.0095 -58.825 -0.331362 0z"/>
    <path id="_462778312" class="fil0" d="M1129.81 119.674c-1.73965,0 -3.13137,-0.408679 -4.16411,-1.22604 -1.03827,-0.817359 -1.63748,-1.90809 -1.8004,-3.26667 -0.16292,-1.36134 0.138067,-2.91598 0.897438,-4.65839l44.9354 -102.289c0.98304,-2.1787 2.15385,-3.73058 3.5152,-4.65839 1.36134,-0.919529 2.85799,-1.3862 4.48995,-1.3862 1.63472,0 3.13413,0.466668 4.49547,1.3862 1.35858,0.927813 2.47693,2.47969 3.34951,4.65839l45.1011 102.289c0.867063,1.74241 1.22328,3.3219 1.06036,4.73571 -0.165681,1.41933 -0.73728,2.51007 -1.71756,3.2722 -0.980278,0.759371 -2.33886,1.1432 -4.08403,1.1432 -1.96056,0 -3.53729,-0.516372 -4.73847,-1.55188 -1.19566,-1.03551 -2.18146,-2.53216 -2.94084,-4.49547l-10.6201 -24.5291 -60.0234 0.0220908 -10.402 24.507c-0.98304,2.07101 -2.01578,3.59527 -3.10652,4.57555 -1.08797,0.980278 -2.50178,1.4718 -4.24695,1.4718zm47.7106 -100.657l-24.9902 58.836 50.3311 -0.0110454 -25.0095 -58.825 -0.331362 0z"/>
    <path id="_462777736" class="fil0" d="M1613.8 424.013c-1.74241,0 -3.13413,-0.408679 -4.16687,-1.22328 -1.03827,-0.817359 -1.63472,-1.90809 -1.79764,-3.26667 -0.165681,-1.36411 0.135306,-2.91874 0.897438,-4.65839l44.9326 -102.289c0.98304,-2.1787 2.15385,-3.73058 3.5152,-4.65839 1.36411,-0.92229 2.85799,-1.38896 4.49271,-1.38896 1.63196,0 3.13137,0.466668 4.49547,1.38896 1.35858,0.927813 2.47417,2.47969 3.34675,4.65839l45.1011 102.289c0.869825,1.73965 1.22604,3.3219 1.06312,4.73571 -0.168442,1.41657 -0.740041,2.51007 -1.72032,3.26944 -0.980278,0.762132 -2.33886,1.1432 -4.08127,1.1432 -1.96056,0 -3.54005,-0.516372 -4.74123,-1.55188 -1.19566,-1.03551 -2.1787,-2.52939 -2.94084,-4.49271l-10.6201 -24.5318 -60.0234 0.0248521 -10.3992 24.507c-0.98304,2.07101 -2.01578,3.59527 -3.10652,4.57555 -1.08797,0.980278 -2.50454,1.46904 -4.24695,1.46904zm47.7106 -100.654l-24.9902 58.8333 50.3283 -0.00828404 -25.0095 -58.825 -0.3286 0z"/>
    <path id="_462777448" class="fil0" d="M1479.64 118.531c-2.1787,0 -3.86589,-0.629587 -5.06431,-1.88048 -1.19842,-1.25089 -1.79488,-2.96845 -1.79488,-5.14715l0 -101.963c0,-2.2864 0.571599,-4.02604 1.7148,-5.22999 1.1432,-1.1929 2.80277,-1.79488 4.98147,-1.79488 2.1787,0 3.84103,0.601974 4.98423,1.79488 1.1432,1.20395 1.7148,2.9436 1.7148,5.22999l0 97.2243 53.595 0c1.96332,0 3.48758,0.516372 4.57555,1.55188 1.09073,1.03274 1.63472,2.47969 1.63472,4.32979 0,1.85286 -0.543985,3.29705 -1.63472,4.33255 -1.08797,1.03551 -2.61223,1.55188 -4.57555,1.55188l-60.1311 0z"/>
    <path id="_462777424" class="fil0" d="M1409.55 120.003c-5.11954,0 -10.1314,-0.436293 -15.0355,-1.30888 -4.90139,-0.869825 -9.44933,-2.12624 -13.6411,-3.76096 -4.19449,-1.6292 -7.98029,-3.70021 -11.3574,-6.20751 -1.30612,-0.980278 -2.20632,-2.09586 -2.69508,-3.34951 -0.49152,-1.25365 -0.599212,-2.5073 -0.325839,-3.75819 0.273373,-1.25089 0.814598,-2.31401 1.63196,-3.18383 0.817359,-0.872586 1.82525,-1.36411 3.02091,-1.4718 1.20395,-0.110454 2.51007,0.270612 3.92388,1.14044 4.90139,3.48482 10.1314,6.01974 15.6872,7.60199 5.55307,1.57673 11.8186,2.36924 18.791,2.36924 9.80278,0 17.0734,-1.82801 21.8119,-5.47575 4.73847,-3.64774 7.10771,-8.47181 7.10771,-14.4612 0,-4.90139 -1.7148,-8.74243 -5.14439,-11.5203 -3.43512,-2.77515 -9.18148,-4.98423 -17.2419,-6.61619l-16.9906 -3.43236c-10.2418,-2.1787 -17.8908,-5.7436 -22.9578,-10.7002 -5.06431,-4.95938 -7.59923,-11.5756 -7.59923,-19.8569 0,-5.11678 1.03551,-9.77241 3.10375,-13.9669 2.07101,-4.19449 4.95938,-7.79252 8.66235,-10.7858 3.70297,-2.9933 8.1156,-5.31007 13.2351,-6.94755 5.1223,-1.63196 10.7831,-2.44655 16.9933,-2.44655 6.86195,0 13.2628,0.952665 19.1997,2.86076 5.93414,1.90533 11.2994,4.76609 16.0931,8.57675 1.19842,0.980278 2.01578,2.09862 2.44932,3.34951 0.439054,1.25365 0.49152,2.44932 0.168442,3.59527 -0.3286,1.1432 -0.902961,2.09586 -1.72032,2.85799 -0.814598,0.762132 -1.8501,1.20119 -3.10375,1.30888 -1.25365,0.107693 -2.63709,-0.3286 -4.16687,-1.30888 -4.35741,-3.26944 -8.88049,-5.63591 -13.561,-7.10771 -4.68325,-1.46904 -9.85801,-2.20356 -15.5243,-2.20356 -5.77398,0 -10.7554,0.869825 -14.9472,2.61223 -4.19725,1.74517 -7.46392,4.27733 -9.80555,7.59923 -2.34438,3.3219 -3.51243,7.16017 -3.51243,11.5176 0,5.22999 1.60434,9.36925 4.81855,12.4205 3.21421,3.04853 8.46905,5.28246 15.7673,6.69903l16.9933 3.59527c11.004,2.28916 19.1472,5.7436 24.4296,10.3744 5.28246,4.62802 7.92507,10.9211 7.92507,18.871 0,4.79646 -0.980278,9.20633 -2.9436,13.2351 -1.9578,4.02881 -4.7937,7.49154 -8.49391,10.3771 -3.70297,2.88837 -8.17359,5.09193 -13.4008,6.61895 -5.22999,1.5215 -11.1117,2.28916 -17.645,2.28916z"/>
    <path id="_462777304" class="fil0" d="M1029.65 119.674c-2.1787,0 -3.84103,-0.629587 -4.98423,-1.88048 -1.14596,-1.25365 -1.71756,-2.96845 -1.71756,-5.14715l0 -102.452c0,-2.2864 0.601974,-4.00119 1.79764,-5.14439 1.19842,-1.1432 2.88561,-1.7148 5.06431,-1.7148l38.7251 0c12.3101,0 21.787,2.88285 28.4336,8.65959 6.64656,5.77122 9.9657,13.9945 9.9657,24.6726 0,6.75426 -1.49665,12.6111 -4.49271,17.5622 -2.99606,4.95938 -7.37832,8.72034 -13.1551,11.2773 -2.77792,1.23156 -5.82092,2.1649 -9.12625,2.80553l0 -0.0358975c1.56292,0.535701 3.02644,1.27022 4.39054,2.21184 3.15898,2.1787 6.04183,5.66352 8.65959,10.4572l15.6872 29.251c0.872586,1.52426 1.27574,3.02368 1.22328,4.48995 -0.0524656,1.47456 -0.571599,2.67022 -1.55188,3.59804 -0.980278,0.925051 -2.39685,1.38896 -4.24971,1.38896 -1.85286,0 -3.37437,-0.439054 -4.57279,-1.30888 -1.19842,-0.869825 -2.23117,-2.12348 -3.10375,-3.75543l-17.8135 -33.0064c-2.50178,-4.68601 -5.39291,-7.81738 -8.65682,-9.39687 -3.26944,-1.57949 -7.57162,-2.372 -12.9093,-2.372l-20.9144 0 0 42.8119c0,2.1787 -0.543985,3.8935 -1.63472,5.14715 -1.08797,1.25089 -2.77792,1.88048 -5.06431,1.88048zm6.69903 -60.4597l30.2285 0c8.93296,0 15.6872,-1.88048 20.26,-5.63591 4.57555,-3.75819 6.86195,-9.3941 6.86195,-16.9105 0,-7.301 -2.2864,-12.8265 -6.86195,-16.5847 -4.57279,-3.76096 -11.327,-5.63867 -20.26,-5.63867l-30.2285 0 0 44.7697z"/>
    <path id="_462777760" class="fil0" d="M1620.34 271.844c-2.18146,0 -3.8438,-0.626826 -4.98699,-1.87772 -1.1432,-1.25641 -1.7148,-2.97121 -1.7148,-5.14991l0 -102.452c0,-2.2864 0.601974,-4.00119 1.79764,-5.14439 1.19842,-1.1432 2.88285,-1.7148 5.06155,-1.7148l38.7279 0c12.3101,0 21.787,2.88561 28.4336,8.65959 6.6438,5.77398 9.96294,13.9945 9.96294,24.6754 0,6.7515 -1.49389,12.6083 -4.48995,17.5622 -2.99606,4.95662 -7.38108,8.71757 -13.1551,11.2746 -2.77792,1.23156 -5.82092,2.16766 -9.12902,2.80829l0 -0.0358975c1.56568,0.535701 3.0292,1.27022 4.39054,2.20908 3.15898,2.1787 6.04459,5.66629 8.66235,10.4572l15.6845 29.251c0.872586,1.52426 1.2785,3.02368 1.22604,4.49271 -0.0524656,1.4718 -0.571599,2.66746 -1.55188,3.59527 -0.980278,0.925051 -2.39685,1.38896 -4.24971,1.38896 -1.85286,0 -3.37437,-0.439054 -4.57279,-1.30612 -1.19842,-0.872586 -2.23117,-2.12348 -3.10375,-3.75819l-17.8135 -33.0064c-2.50178,-4.68325 -5.39291,-7.81738 -8.65682,-9.3941 -3.26944,-1.58225 -7.57162,-2.372 -12.9093,-2.372l-20.9144 0 0 42.8092c0,2.1787 -0.546747,3.8935 -1.63748,5.14991 -1.08797,1.25089 -2.77515,1.87772 -5.06155,1.87772zm6.69903 -60.4569l30.2257 0c8.93572,0 15.6872,-1.88324 20.26,-5.63867 4.57831,-3.75819 6.86471,-9.39134 6.86471,-16.9077 0,-7.301 -2.2864,-12.8292 -6.86471,-16.5874 -4.57279,-3.75819 -11.3243,-5.63591 -20.26,-5.63591l-30.2257 0 0 44.7697z"/>
    <path id="_462778000" class="fil0" d="M958.074 119.837c-3.37437,0 -5.96175,-0.952665 -7.76215,-2.85799 -1.79488,-1.90809 -2.69508,-4.54794 -2.69508,-7.92507l0 -88.2361 -31.8632 0c-2.82762,0 -5.0367,-0.789745 -6.61619,-2.36647 -1.57949,-1.58225 -2.36647,-3.73058 -2.36647,-6.45603 0,-2.8359 0.786984,-4.98423 2.36647,-6.45603 1.57949,-1.4718 3.78857,-2.20356 6.61619,-2.20356l84.6408 0c2.8359,0 5.0367,0.731757 6.62171,2.20356 1.57673,1.4718 2.36924,3.62013 2.36924,6.45603 0,2.72545 -0.792507,4.87378 -2.36924,6.45603 -1.58501,1.57673 -3.78581,2.36647 -6.62171,2.36647l-31.8632 0 0 88.2361c0,3.37713 -0.869825,6.01698 -2.61223,7.92507 -1.74241,1.90533 -4.36017,2.85799 -7.84499,2.85799z"/>
    <path id="_462777160" class="fil0" d="M930.952 270.7c-3.59527,0 -6.34558,-0.952665 -8.25367,-2.85799 -1.90533,-1.90809 -2.85799,-4.65839 -2.85799,-8.25367l0 -92.9718c0,-3.59527 0.952665,-6.34834 2.85799,-8.25367 1.90809,-1.90809 4.65839,-2.86076 8.25367,-2.86076l58.3335 0c2.72269,0 4.82131,0.709666 6.29035,2.12624 1.4718,1.41657 2.20632,3.42959 2.20632,6.04735 0,2.71993 -0.734518,4.81855 -2.20632,6.28759 -1.46904,1.4718 -3.56766,2.20632 -6.29035,2.20632l-49.348 0 0 31.6975 45.7528 0c2.83314,0 4.95662,0.709666 6.37043,2.129 1.41657,1.41381 2.12624,3.48482 2.12624,6.20475 0,2.72545 -0.709666,4.7937 -2.12624,6.21027 -1.41381,1.41657 -3.53729,2.12348 -6.37043,2.12348l-45.7528 0 0 33.4979 49.348 0c2.72269,0 4.82131,0.709666 6.29035,2.12348 1.4718,1.41657 2.20632,3.48482 2.20632,6.21027 0,2.72269 -0.734518,4.79094 -2.20632,6.21027 -1.46904,1.41657 -3.56766,2.12348 -6.29035,2.12348l-58.3335 0z"/>
    <path id="_462776968" class="fil0" d="M1266.92 271.844c-2.1787,0 -3.84103,-0.626826 -4.98147,-1.87772 -1.14596,-1.25641 -1.71756,-2.96845 -1.71756,-5.14715l0 -103.432c0,-2.2864 0.571599,-4.03157 1.71756,-5.22723 1.14044,-1.20119 2.80277,-1.8004 4.98147,-1.8004 2.1787,0 3.84103,0.599212 4.98147,1.8004 1.14596,1.19566 1.71756,2.94084 1.71756,5.22723l0 103.432c0,2.1787 -0.543985,3.89074 -1.63472,5.14715 -1.08797,1.25089 -2.77792,1.87772 -5.06431,1.87772z"/>
    <path id="_462776608" class="fil0" d="M1430.48 270.7c-2.39685,0 -4.21934,-0.626826 -5.47299,-1.88048 -1.25089,-1.25089 -1.87772,-3.07614 -1.87772,-5.47299l0 -100.488c0,-2.39685 0.626826,-4.22486 1.87772,-5.47575 1.25365,-1.25089 3.07614,-1.88048 5.47299,-1.88048l60.7883 0c1.8501,0 3.26391,0.49152 4.24695,1.47456 0.980278,0.977517 1.46904,2.33886 1.46904,4.08127 0,1.85286 -0.488759,3.26944 -1.46904,4.24971 -0.98304,0.980278 -2.39685,1.4718 -4.24695,1.4718l-55.0668 0 0 39.8683 51.6317 0c1.85286,0 3.26944,0.461145 4.25248,1.38896 0.977517,0.925051 1.46904,2.31401 1.46904,4.16411 0,1.85286 -0.49152,3.26944 -1.46904,4.25248 -0.98304,0.977517 -2.39961,1.46904 -4.25248,1.46904l-51.6317 0 0 41.5031 55.0668 0c1.8501,0 3.26391,0.488759 4.24695,1.4718 0.980278,0.977517 1.46904,2.34162 1.46904,4.08127 0,1.85286 -0.488759,3.26944 -1.46904,4.24971 -0.98304,0.980278 -2.39685,1.4718 -4.24695,1.4718l-60.7883 0z"/>
    <path id="_462777232" class="fil0" d="M1525.74 270.7c-2.39685,0 -4.2221,-0.626826 -5.47299,-1.88048 -1.25089,-1.25089 -1.87772,-3.07614 -1.87772,-5.47299l0 -100.488c0,-2.39685 0.626826,-4.22486 1.87772,-5.47575 1.25089,-1.25089 3.07614,-1.88048 5.47299,-1.88048l60.7855 0c1.85286,0 3.26667,0.49152 4.24971,1.47456 0.977517,0.977517 1.46904,2.33886 1.46904,4.08127 0,1.85286 -0.49152,3.26944 -1.46904,4.24971 -0.98304,0.980278 -2.39685,1.4718 -4.24971,1.4718l-55.0668 0 0 39.8683 51.6344 0c1.8501,0 3.26944,0.461145 4.24971,1.38896 0.980278,0.925051 1.46904,2.31401 1.46904,4.16411 0,1.85286 -0.488759,3.26944 -1.46904,4.25248 -0.980278,0.977517 -2.39961,1.46904 -4.24971,1.46904l-51.6344 0 0 41.5031 55.0668 0c1.85286,0 3.26667,0.488759 4.24971,1.4718 0.977517,0.977517 1.46904,2.34162 1.46904,4.08127 0,1.85286 -0.49152,3.26944 -1.46904,4.24971 -0.98304,0.980278 -2.39685,1.4718 -4.24971,1.4718l-60.7855 0z"/>
    <path id="_462777112" class="fil0" d="M1729.66 271.844c-2.18146,0 -3.84103,-0.626826 -4.98423,-1.87772 -1.1432,-1.25641 -1.71756,-2.96845 -1.71756,-5.14715l0 -103.432c0,-2.2864 0.57436,-4.03157 1.71756,-5.22723 1.1432,-1.20119 2.80277,-1.8004 4.98423,-1.8004 2.1787,0 3.83827,0.599212 4.98147,1.8004 1.1432,1.19566 1.71756,2.94084 1.71756,5.22723l0 103.432c0,2.1787 -0.546747,3.89074 -1.63472,5.14715 -1.09073,1.25089 -2.77792,1.87772 -5.06431,1.87772z"/>
    <path id="_462776512" class="fil0" d="M1128.59 213.712l-0.00276135 -0.527417c0,-9.15111 1.22604,-17.3744 3.67535,-24.6726 2.45208,-7.301 6.04459,-13.4809 10.7858,-18.548 15.1184,-16.1622 39.9125,-19.1389 60.3741,-13.0695 6.42842,1.90533 12.1472,4.92624 17.1563,9.06827 1.30888,0.977517 2.12624,2.06825 2.45208,3.26667 0.3286,1.19842 0.300987,2.39685 -0.0800791,3.59527 -0.381066,1.19842 -0.980278,2.20632 -1.79764,3.02368 -0.817359,0.814598 -1.85286,1.2785 -3.10375,1.38896 -1.25641,0.110454 -2.53492,-0.273373 -3.84103,-1.14596 -4.4651,-3.48482 -9.20357,-6.01698 -14.2154,-7.59647 -19.9673,-6.3014 -43.425,-1.24813 -52.5346,19.1997 -3.10375,6.9724 -4.65563,15.4663 -4.65563,25.49l0.00828404 0.527417 -0.00828404 0.530179c0,10.0209 1.55188,18.5176 4.65563,25.49 3.21421,7.20988 8.20949,12.5034 14.2071,16.0628 2.39961,1.28679 4.87102,2.33334 7.41146,3.13413 4.98976,1.57673 10.217,2.44103 15.3918,2.53492l0.173965 0c5.14715,-0.0938858 10.3578,-0.958188 15.3503,-2.53492 3.286,-1.03274 6.45327,-2.47693 9.50456,-4.33255 5.19409,-3.50967 9.5156,-8.42487 12.3874,-14.8643 2.5432,-5.71875 3.86313,-12.462 4.25248,-20.2324l-26.8486 0c-2.26154,0 -3.95701,-0.568838 -5.08916,-1.69547 -1.13215,-1.13491 -1.69547,-2.64261 -1.69547,-4.52585 0,-2.01026 0.566076,-3.51796 1.69547,-4.52309 1.13215,-1.00513 2.82762,-1.5077 5.08916,-1.5077l33.1914 0c2.13452,0 3.78581,0.577122 4.89863,1.69547 1.09349,1.09073 1.70375,2.72545 1.69823,4.76885l0.0248521 0 0.00276135 0.530179c0.0110454,2.31401 -0.0358975,4.59212 -0.14359,6.82329l-0.055227 3.41579c-0.209862,2.9436 -0.740041,5.76569 -1.2288,8.5298l-0.190533 0.944381 -0.063511 0c-1.83353,9.05722 -5.35701,17.0403 -11.4044,23.5046 -10.6367,11.3712 -26.0726,16.2202 -41.4202,15.9744 -15.389,0.276135 -30.8774,-4.56451 -41.55,-15.9744 -4.74123,-5.06431 -8.33375,-11.247 -10.7858,-18.5452 -2.44932,-7.29824 -3.67535,-15.5215 -3.67535,-24.6726l0.00276135 -0.530179z"/>
    <path id="_462777208" class="fil0" d="M2051.7 271.844c-2.18146,0 -3.8438,-0.626826 -4.98423,-1.87772 -1.1432,-1.25641 -1.71756,-2.97121 -1.71756,-5.14991l0 -103.429c0,-2.28916 0.57436,-4.03157 1.71756,-5.22723 1.14044,-1.19842 2.80277,-1.8004 4.98423,-1.8004 2.1787,0 3.84103,0.601974 4.98147,1.8004 1.14596,1.19566 1.71756,2.93807 1.71756,5.22723l0 103.429c0,2.1787 -0.546747,3.8935 -1.63472,5.14991 -1.09073,1.25089 -2.77792,1.87772 -5.06431,1.87772z"/>
    <path id="_462775792" class="fil0" d="M2699.24 422.87c-2.39409,0 -4.21934,-0.626826 -5.47023,-1.87772 -1.25365,-1.25365 -1.88048,-3.07614 -1.88048,-5.47575l0 -100.488c0,-2.39685 0.626826,-4.2221 1.88048,-5.47299 1.25089,-1.25641 3.07614,-1.88324 5.47023,-1.88324l60.7883 0c1.8501,0 3.26667,0.49152 4.24695,1.47456 0.980278,0.980278 1.46904,2.34162 1.46904,4.08403 0,1.8501 -0.488759,3.26667 -1.46904,4.24695 -0.980278,0.98304 -2.39685,1.4718 -4.24695,1.4718l-55.0668 0 0 39.8683 51.6317 0c1.85286,0 3.2722,0.463906 4.24971,1.39172 0.980278,0.92229 1.4718,2.31125 1.4718,4.16411 0,1.85286 -0.49152,3.26667 -1.4718,4.24971 -0.977517,0.980278 -2.39685,1.46904 -4.24971,1.46904l-51.6317 0 0 41.5003 55.0668 0c1.8501,0 3.26667,0.49152 4.24695,1.47456 0.980278,0.980278 1.46904,2.34162 1.46904,4.08403 0,1.85286 -0.488759,3.26667 -1.46904,4.24695 -0.980278,0.98304 -2.39685,1.4718 -4.24695,1.4718l-60.7883 0z"/>
    <path id="_462776440" class="fil0" d="M2535.69 424.013c-2.18423,0 -3.84103,-0.626826 -4.98699,-1.87772 -1.1432,-1.25365 -1.7148,-2.96845 -1.7148,-5.14715l0 -103.432c0,-2.2864 0.571599,-4.03157 1.7148,-5.22723 1.14596,-1.19842 2.80277,-1.8004 4.98699,-1.8004 2.1787,0 3.83827,0.601974 4.98147,1.8004 1.1432,1.19566 1.7148,2.94084 1.7148,5.22723l0 103.432c0,2.1787 -0.541224,3.8935 -1.63472,5.14715 -1.09073,1.25089 -2.77792,1.87772 -5.06155,1.87772z"/>
    <path id="_462775864" class="fil0" d="M2468.86 424.342c-11.3298,0 -21.0249,-2.39961 -29.088,-7.19055 -8.06037,-4.7937 -14.2403,-11.6004 -18.5424,-20.4229 -4.30218,-8.82527 -6.45327,-19.3377 -6.45327,-31.5374 0,-9.15111 1.22328,-17.3468 3.67259,-24.5926 2.45484,-7.24301 5.99212,-13.3981 10.6201,-18.4651 4.63354,-5.06155 10.3247,-8.98543 17.0789,-11.7633 6.74873,-2.77792 14.3231,-4.16411 22.7121,-4.16411 6.75426,0 13.1799,0.949904 19.2797,2.85799 6.10258,1.90533 11.385,4.71086 15.8501,8.41383 1.41381,1.09073 2.372,2.31401 2.85799,3.67812 0.488759,1.36134 0.543985,2.66746 0.16292,3.91835 -0.378305,1.25365 -1.03551,2.29192 -1.96056,3.10375 -0.925051,0.82012 -2.04064,1.2288 -3.34675,1.2288 -1.30888,0 -2.77792,-0.546747 -4.40987,-1.63472 -3.92388,-3.15898 -8.22882,-5.5006 -12.9121,-7.02487 -4.68325,-1.52703 -9.75032,-2.2864 -15.1957,-2.2864 -8.60436,0 -15.9026,1.82249 -21.8975,5.47023 -5.9866,3.65326 -10.5097,8.96057 -13.561,15.933 -3.05129,6.96964 -4.57555,15.4111 -4.57555,25.3271 0,9.91048 1.52426,18.3851 4.57555,25.4072 3.05129,7.02763 7.57438,12.3653 13.561,16.0131 5.99489,3.6505 13.2931,5.47299 21.8975,5.47299 5.33769,0 10.4048,-0.786984 15.1957,-2.36924 4.7937,-1.57673 9.20633,-3.94597 13.2379,-7.10495 1.6292,-1.09073 3.10375,-1.6071 4.40987,-1.55464 1.30612,0.055227 2.39409,0.463906 3.26667,1.2288 0.872586,0.759371 1.49941,1.73965 1.88048,2.94084 0.381066,1.19566 0.381066,2.44932 0,3.75543 -0.381066,1.30612 -1.22604,2.45208 -2.53492,3.43236 -4.57555,3.92111 -9.94085,6.88956 -16.0931,8.90535 -6.15504,2.01302 -12.7188,3.02368 -19.6884,3.02368z"/>
    <path id="_462776248" class="fil0" d="M2383.73 424.013c-2.1787,0 -3.83827,-0.626826 -4.98147,-1.87772 -1.1432,-1.25365 -1.7148,-2.96845 -1.7148,-5.14715l0 -103.432c0,-2.2864 0.571599,-4.03157 1.7148,-5.22723 1.1432,-1.19842 2.80277,-1.8004 4.98147,-1.8004 2.1787,0 3.84103,0.601974 4.98423,1.8004 1.1432,1.19566 1.7148,2.94084 1.7148,5.22723l0 103.432c0,2.1787 -0.543985,3.8935 -1.63196,5.14715 -1.09073,1.25089 -2.78068,1.87772 -5.06707,1.87772z"/>
    <path id="_462776152" class="fil0" d="M2263.14 422.87c-2.39409,0 -4.21934,-0.626826 -5.47023,-1.87772 -1.25089,-1.25365 -1.88048,-3.07614 -1.88048,-5.47575l0 -100.488c0,-2.39685 0.629587,-4.2221 1.88048,-5.47299 1.25089,-1.25641 3.07614,-1.88324 5.47023,-1.88324l31.5374 0c18.6281,0 33.0092,4.90415 43.1405,14.7069 10.1314,9.80831 15.1929,24.0734 15.1929,42.8119 0,9.36925 -1.28127,17.6202 -3.84103,24.7555 -2.55701,7.13256 -6.34282,13.1551 -11.3519,18.0565 -5.01461,4.90139 -11.1144,8.6016 -18.3022,11.1089 -7.19055,2.5073 -15.4691,3.75819 -24.8383,3.75819l-31.5374 0zm6.04735 -11.4375l24.5097 0c7.62408,0 14.243,-0.98304 19.8513,-2.94084 5.61382,-1.96056 10.2971,-4.84893 14.0553,-8.66235 3.75819,-3.81066 6.56096,-8.63197 8.41383,-14.4584 1.85286,-5.82644 2.77792,-12.5531 2.77792,-20.1799 0,-15.3586 -3.75819,-26.879 -11.2746,-34.5583 -7.51639,-7.68207 -18.791,-11.5203 -33.8237,-11.5203l-24.5097 0 0 92.3201z"/>
    <path id="_462776032" class="fil0" d="M2167.88 422.87c-2.39409,0 -4.21934,-0.626826 -5.47023,-1.87772 -1.25089,-1.25365 -1.88048,-3.07614 -1.88048,-5.47575l0 -100.488c0,-2.39685 0.629587,-4.2221 1.88048,-5.47299 1.25089,-1.25641 3.07614,-1.88324 5.47023,-1.88324l60.7883 0c1.85286,0 3.26667,0.49152 4.24971,1.47456 0.977517,0.980278 1.46628,2.34162 1.46628,4.08403 0,1.8501 -0.488759,3.26667 -1.46628,4.24695 -0.98304,0.98304 -2.39685,1.4718 -4.24971,1.4718l-55.0668 0 0 39.8683 51.6317 0c1.85286,0 3.2722,0.463906 4.25248,1.39172 0.977517,0.92229 1.46904,2.31125 1.46904,4.16411 0,1.85286 -0.49152,3.26667 -1.46904,4.24971 -0.980278,0.980278 -2.39961,1.46904 -4.25248,1.46904l-51.6317 0 0 41.5003 55.0668 0c1.85286,0 3.26667,0.49152 4.24971,1.47456 0.977517,0.980278 1.46628,2.34162 1.46628,4.08403 0,1.85286 -0.488759,3.26667 -1.46628,4.24695 -0.98304,0.98304 -2.39685,1.4718 -4.24971,1.4718l-60.7883 0z"/>
    <path id="_462775912" class="fil0" d="M2026.87 424.176c-3.05129,0 -5.39015,-0.869825 -7.02763,-2.61223 -1.63196,-1.74517 -2.44932,-4.14202 -2.44932,-7.19055l0 -98.2046c0,-3.15898 0.872586,-5.58068 2.615,-7.27063 1.74241,-1.68718 4.14202,-2.53216 7.18779,-2.53216 2.72545,0 4.87378,0.519133 6.45603,1.55188 1.57673,1.03551 3.02091,2.80553 4.32703,5.31283l37.6896 69.7296 37.8028 -69.7296c1.30612,-2.5073 2.72269,-4.27733 4.24695,-5.31283 1.52703,-1.03274 3.6505,-1.55188 6.37319,-1.55188 3.05129,0 5.39291,0.844972 7.02487,2.53216 1.63472,1.68994 2.45208,4.11165 2.45208,7.27063l0 98.2046c0,3.04853 -0.786984,5.44538 -2.36924,7.19055 -1.57673,1.74241 -3.94597,2.61223 -7.10771,2.61223 -3.04853,0 -5.39015,-0.869825 -7.02487,-2.61223 -1.63472,-1.74517 -2.45208,-4.14202 -2.45208,-7.19055l0 -69.1359 -30.7172 56.0664c-1.08797,1.85286 -2.23393,3.21145 -3.43236,4.08403 -1.19566,0.872586 -2.83314,1.30612 -4.90139,1.30612 -2.07101,0 -3.75543,-0.463906 -5.06707,-1.38896 -1.30612,-0.927813 -2.44932,-2.26154 -3.43236,-4.00119l-30.7476 -55.7047 0.0303748 68.7741c0,3.04853 -0.789745,5.44538 -2.36924,7.19055 -1.57673,1.74241 -3.94873,2.61223 -7.10771,2.61223z"/>
    <path id="_462775528" class="fil0" d="M1863.63 422.87c-2.39409,0 -4.2221,-0.626826 -5.47299,-1.87772 -1.25089,-1.25365 -1.87772,-3.07614 -1.87772,-5.47575l0 -100.488c0,-2.39685 0.626826,-4.2221 1.87772,-5.47299 1.25089,-1.25641 3.0789,-1.88324 5.47299,-1.88324l31.5374 0c18.6253,0 33.0064,4.90415 43.1405,14.7069 10.1286,9.80831 15.1929,24.0734 15.1929,42.8119 0,9.36925 -1.28127,17.6202 -3.84103,24.7555 -2.55977,7.13256 -6.34558,13.1551 -11.3519,18.0565 -5.01461,4.90139 -11.1144,8.6016 -18.305,11.1089 -7.19055,2.5073 -15.4663,3.75819 -24.8356,3.75819l-31.5374 0zm6.04735 -11.4375l24.5097 0c7.62408,0 14.243,-0.98304 19.8513,-2.94084 5.6083,-1.96056 10.2971,-4.84893 14.0525,-8.66235 3.76096,-3.81066 6.56372,-8.63197 8.41659,-14.4584 1.85286,-5.82644 2.77515,-12.5531 2.77515,-20.1799 0,-15.3586 -3.75543,-26.879 -11.2718,-34.5583 -7.51639,-7.68207 -18.791,-11.5203 -33.8237,-11.5203l-24.5097 0 0 92.3201z"/>
    <path id="_462775288" class="fil0" d="M1456.44 424.013c-2.1787,0 -3.84103,-0.626826 -4.98423,-1.87772 -1.1432,-1.25365 -1.7148,-2.96845 -1.7148,-5.14715l0 -103.432c0,-2.2864 0.571599,-4.03157 1.7148,-5.22723 1.1432,-1.19842 2.80553,-1.8004 4.98423,-1.8004 2.1787,0 3.83827,0.601974 4.98147,1.8004 1.1432,1.19566 1.7148,2.94084 1.7148,5.22723l0 45.1011 69.1221 0 0 -45.1011c0,-2.2864 0.571599,-4.03157 1.71204,-5.22723 1.14596,-1.19842 2.80553,-1.8004 4.98423,-1.8004 2.1787,0 3.84103,0.601974 4.98423,1.8004 1.1432,1.19566 1.7148,2.94084 1.7148,5.22723l0 103.432c0,2.1787 -0.571599,3.8935 -1.7148,5.14715 -1.1432,1.25089 -2.80553,1.87772 -4.98423,1.87772 -2.1787,0 -3.83827,-0.626826 -4.98423,-1.87772 -1.14044,-1.25365 -1.71204,-2.96845 -1.71204,-5.14715l0 -46.7358 -69.1221 0 0 46.7358c0,2.1787 -0.541224,3.8935 -1.63196,5.14715 -1.08797,1.25089 -2.77792,1.87772 -5.06431,1.87772z"/>
    <path id="_462775192" class="fil0" d="M1386.34 424.013c-2.06825,0 -3.70573,-0.626826 -4.90139,-1.87772 -1.19842,-1.25365 -1.8004,-2.96845 -1.8004,-5.14715l0 -97.713 -36.7618 0c-1.96056,0 -3.48758,-0.543985 -4.57555,-1.63196 -1.09073,-1.09073 -1.63196,-2.5073 -1.63196,-4.24971 0,-1.8501 0.541224,-3.26667 1.63196,-4.24695 1.08797,-0.98304 2.615,-1.47456 4.57555,-1.47456l87.0929 0c1.9578,0 3.48482,0.49152 4.57003,1.47456 1.09073,0.980278 1.63748,2.39685 1.63748,4.24695 0,1.85286 -0.546747,3.29429 -1.63748,4.32979 -1.08521,1.03551 -2.61223,1.55188 -4.57003,1.55188l-36.7673 0 0 97.713c0,2.1787 -0.571599,3.8935 -1.7148,5.14715 -1.14596,1.25089 -2.85799,1.87772 -5.14715,1.87772z"/>
    <path id="_462775384" class="fil0" d="M1269.51 422.87c-2.1787,0 -3.86313,-0.626826 -5.06155,-1.87772 -1.20119,-1.25365 -1.79764,-2.96845 -1.79764,-5.14715l0 -101.963c0,-2.2864 0.571599,-4.03157 1.7148,-5.22999 1.1432,-1.19566 2.80277,-1.79488 4.98423,-1.79488 2.1787,0 3.83827,0.599212 4.98147,1.79488 1.1432,1.19842 1.71756,2.9436 1.71756,5.22999l0 97.2243 53.595 0c1.96056,0 3.48758,0.516372 4.57555,1.55188 1.09073,1.03274 1.63196,2.47693 1.63196,4.32979 0,1.8501 -0.541224,3.29429 -1.63196,4.32979 -1.08797,1.03551 -2.615,1.55188 -4.57555,1.55188l-60.1339 0z"/>
    <path id="_462775216" class="fil0" d="M1140.59 424.176c-2.615,0 -4.71362,-0.599212 -6.29311,-1.79488 -1.57949,-1.19842 -2.53216,-2.80553 -2.85799,-4.82131 -0.3286,-2.01578 0.0524656,-4.27457 1.1432,-6.78187l43.1378 -95.5896c1.41381,-3.15898 3.12861,-5.41776 5.14439,-6.78187 2.01578,-1.36134 4.33255,-2.04064 6.94479,-2.04064 2.5073,0 4.76609,0.679292 6.78187,2.04064 2.01578,1.36411 3.73058,3.62289 5.14991,6.78187l43.2952 95.5896c1.19842,2.5073 1.63748,4.79094 1.30888,6.86471 -0.325839,2.06825 -1.25365,3.67535 -2.77515,4.81855 -1.52979,1.1432 -3.54005,1.7148 -6.05011,1.7148 -3.04853,0 -5.415,-0.734518 -7.10495,-2.20632 -1.68994,-1.46628 -3.18383,-3.73058 -4.49271,-6.77911l-8.15978 -18.9539 -56.1824 -0.00276135 -8.04381 18.9567c-1.41657,3.15898 -2.88837,5.44538 -4.41263,6.86195 -1.52703,1.41657 -3.70573,2.12348 -6.53335,2.12348zm46.8932 -93.7892l-20.6494 49.1189 41.8206 0.063511 -20.8454 -49.1824 -0.325839 0z"/>
    <path id="_462775072" class="fil0" d="M1053.17 422.87c-2.39409,0 -4.2221,-0.626826 -5.47299,-1.87772 -1.25089,-1.25365 -1.87772,-3.07614 -1.87772,-5.47575l0 -100.488c0,-2.39685 0.626826,-4.2221 1.87772,-5.47299 1.25089,-1.25641 3.0789,-1.88324 5.47299,-1.88324l60.7883 0c1.8501,0 3.26667,0.49152 4.24971,1.47456 0.974756,0.980278 1.46628,2.34162 1.46628,4.08403 0,1.8501 -0.49152,3.26667 -1.46628,4.24695 -0.98304,0.98304 -2.39961,1.4718 -4.24971,1.4718l-55.0696 0 0 39.8683 51.6344 0c1.85286,0 3.26944,0.463906 4.24971,1.39172 0.980278,0.92229 1.4718,2.31125 1.4718,4.16411 0,1.85286 -0.49152,3.26667 -1.4718,4.24971 -0.980278,0.980278 -2.39685,1.46904 -4.24971,1.46904l-51.6344 0 0 41.5003 55.0696 0c1.8501,0 3.26667,0.49152 4.24971,1.47456 0.974756,0.980278 1.46628,2.34162 1.46628,4.08403 0,1.85286 -0.49152,3.26667 -1.46628,4.24695 -0.98304,0.98304 -2.39961,1.4718 -4.24971,1.4718l-60.7883 0z"/>
    <path id="_462775408" class="fil0" d="M928.175 424.013c-2.1787,0 -3.84103,-0.626826 -4.98147,-1.87772 -1.14596,-1.25365 -1.71756,-2.96845 -1.71756,-5.14715l0 -103.432c0,-2.2864 0.571599,-4.03157 1.71756,-5.22723 1.14044,-1.19842 2.80277,-1.8004 4.98147,-1.8004 2.1787,0 3.84103,0.601974 4.98147,1.8004 1.14596,1.19566 1.71756,2.94084 1.71756,5.22723l0 45.1011 69.1193 0 0 -45.1011c0,-2.2864 0.571599,-4.03157 1.7148,-5.22723 1.1432,-1.19842 2.80553,-1.8004 4.98423,-1.8004 2.1787,0 3.83827,0.601974 4.98147,1.8004 1.1432,1.19566 1.71756,2.94084 1.71756,5.22723l0 103.432c0,2.1787 -0.57436,3.8935 -1.71756,5.14715 -1.1432,1.25089 -2.80277,1.87772 -4.98147,1.87772 -2.1787,0 -3.84103,-0.626826 -4.98423,-1.87772 -1.1432,-1.25365 -1.7148,-2.96845 -1.7148,-5.14715l0 -46.7358 -69.1193 0 0 46.7358c0,2.1787 -0.543985,3.8935 -1.63196,5.14715 -1.09073,1.25089 -2.78068,1.87772 -5.06707,1.87772z"/>
   </g>
   <polygon id="_462774760" class="fil1" points="795.917,0 793.47,422.061 651.974,422.061 654.417,0 "/>
   <path id="_462774928" class="fil2" d="M498.523 8.29233c-10.9073,123.717 -19.6083,256.974 -18.849,392.457 35.3756,11.7689 80.2061,21.3121 127.246,21.3121 10.9128,-123.717 19.6111,-256.977 18.8545,-392.459 -35.3784,-11.7689 -80.2089,-21.3093 -127.251,-21.3093z"/>
   <path id="_462774352" class="fil2" d="M358.638 89.3931c-22.8253,82.4759 -41.2352,184.033 -40.7299,290.049 23.5847,23.5377 66.0818,42.6186 112.997,42.6186 22.8253,-82.4787 41.2352,-184.036 40.7299,-290.052 -23.5819,-23.5377 -66.0818,-42.6159 -112.997,-42.6159z"/>
   <path id="_462774184" class="fil2" d="M219.825 170.486c-34.746,41.2407 -62.8648,111.1 -62.6136,187.642 11.7937,35.3094 51.9575,63.9307 98.7458,63.9307 34.7488,-41.238 62.8704,-111.1 62.6163,-187.645 -11.791,-35.3066 -51.9575,-63.928 -98.7486,-63.928z"/>
   <path id="_462773800" class="fil2" d="M84.4972 251.586c46.664,0 84.4945,38.1646 84.4945,85.2373 0,47.0755 -37.8305,85.2373 -84.4945,85.2373 -46.6668,0 -84.4972,-38.1618 -84.4972,-85.2373 0,-47.0727 37.8305,-85.2373 84.4972,-85.2373z"/>
  </g>
 </g>
</svg>
