<?xml version="1.0" encoding="UTF-8"?>
<!DOCTYPE svg PUBLIC "-//W3C//DTD SVG 1.1//EN" "http://www.w3.org/Graphics/SVG/1.1/DTD/svg11.dtd">
<!-- Creator: CorelDRAW -->
<svg xmlns="http://www.w3.org/2000/svg" xml:space="preserve" width="1181px" height="181px" style="shape-rendering:geometricPrecision; text-rendering:geometricPrecision; image-rendering:optimizeQuality; fill-rule:evenodd; clip-rule:evenodd"
viewBox="0 0 5325.63 817.089"
 xmlns:xlink="http://www.w3.org/1999/xlink">
 <defs>
  <style type="text/css">
   <![CDATA[
    .fil2 {fill:#BE0F37}
    .fil0 {fill:#FEFEFE;fill-rule:nonzero}
    .fil1 {fill:#BE0F37;fill-rule:nonzero}
   ]]>
  </style>
 </defs>
 <g id="Layer_x0020_1">
  <metadata id="CorelCorpID_0Corel-Layer"/>
  <g id="_482094008">
   <path id="_482094512" class="fil0" d="M3975.39 230.434c-3.35514,0 -6.03393,-0.782867 -8.02039,-2.35925 -2.00244,-1.57106 -3.15277,-3.66936 -3.46698,-6.28956 -0.314212,-2.62021 0.260956,-5.61853 1.73083,-8.96835l86.5201 -196.963c1.89592,-4.19659 4.14866,-7.18427 6.76887,-8.96835 2.62553,-1.77343 5.5067,-2.67346 8.64882,-2.67346 3.14744,0 6.03393,0.900031 8.65414,2.67346 2.62021,1.78408 4.77176,4.77176 6.44933,8.96835l86.845 196.963c1.67225,3.34982 2.35925,6.39608 2.04504,9.1228 -0.324863,2.72672 -1.42194,4.83034 -3.31254,6.29489 -1.88527,1.46455 -4.50015,2.19948 -7.86062,2.19948 -3.77587,0 -6.81147,-0.990566 -9.12812,-2.98768 -2.30067,-1.99178 -4.19659,-4.87295 -5.66114,-8.65414l-20.4504 -47.233 -115.577 0.042605 -20.0297 47.1904c-1.8906,3.98889 -3.87706,6.92331 -5.98068,8.81391 -2.09297,1.88527 -4.81969,2.82791 -8.17483,2.82791zm91.867 -193.815l-48.1223 113.287 96.9157 -0.0159769 -48.1596 -113.271 -0.633749 0z"/>
   <path id="_482093936" class="fil0" d="M3618.42 411.516l-0.00532563 -1.01719c0,-17.6225 2.35925,-33.4556 7.07776,-47.5099 4.72383,-14.0543 11.6418,-25.9624 20.7699,-35.7136 29.1099,-31.123 76.8541,-36.8587 116.253,-25.1689 12.3768,3.66936 23.3901,9.48494 33.0349,17.4627 2.51902,1.88527 4.09008,3.98357 4.72383,6.28956 0.628424,2.306 0.575168,4.61732 -0.154443,6.92331 -0.734936,2.306 -1.8906,4.24452 -3.46698,5.82091 -1.57106,1.57106 -3.56284,2.46044 -5.97535,2.67346 -2.41251,0.213025 -4.87827,-0.521911 -7.39197,-2.20481 -8.60088,-6.71029 -17.7237,-11.5832 -27.3737,-14.6242 -38.4457,-12.1371 -83.6176,-2.40718 -101.155,36.9652 -5.98068,13.4259 -8.96835,29.7862 -8.96835,49.0863l0.0159769 1.01719 -0.0159769 1.01719c0,19.3001 2.98768,35.6604 8.96835,49.081 6.18305,13.8892 15.8065,24.0772 27.3577,30.9312 4.61732,2.47642 9.3731,4.49483 14.262,6.03926 9.61275,3.03561 19.6782,4.6972 29.6424,4.87827l0.335514 0c9.91099,-0.181071 19.9445,-1.84267 29.5572,-4.87827 6.32684,-1.99178 12.4247,-4.77709 18.3042,-8.34525 10.0015,-6.75822 18.3202,-16.2219 23.8481,-28.6252 4.89958,-11.0081 7.4399,-23.9919 8.19081,-38.9569l-51.7012 0c-4.35636,0 -7.62097,-1.09175 -9.79382,-3.26461 -2.18351,-2.18351 -3.26993,-5.08597 -3.26993,-8.71272 0,-3.87706 1.09175,-6.77952 3.26993,-8.71272 2.17286,-1.9332 5.43746,-2.90247 9.79382,-2.90247l63.9128 0c4.11138,0 7.29078,1.11306 9.43701,3.26461 2.0983,2.10362 3.27526,5.25107 3.26461,9.1867l0.0479306 0 0.00532563 1.01719c0.0213025,4.45222 -0.0692331,8.84054 -0.271607,13.1383l-0.106513 6.57715c-0.404748,5.67179 -1.42727,11.1039 -2.3699,16.4242l-0.367468 1.81604 -0.122489 0c-3.53089,17.4414 -10.3104,32.8165 -21.9576,45.2678 -20.4824,21.8936 -50.2047,31.2295 -79.7566,30.7555 -29.6318,0.532563 -59.4553,-8.78728 -80.0069,-30.7555 -9.12812,-9.75655 -16.0461,-21.6593 -20.7699,-35.7136 -4.7185,-14.0543 -7.07776,-29.8927 -7.07776,-47.5099l0.00532563 -1.01719z"/>
   <path id="_482094680" class="fil0" d="M4223.15 228.235c-4.19659,0 -7.4399,-1.20892 -9.75655,-3.6161 -2.30067,-2.41251 -3.45101,-5.71972 -3.45101,-9.91631l0 -196.329c0,-4.40429 1.09708,-7.75944 3.30189,-10.0708 2.19948,-2.306 5.39486,-3.46166 9.59145,-3.46166 4.19659,0 7.39729,1.15566 9.59678,3.46166 2.20481,2.31132 3.30721,5.66647 3.30721,10.0708l0 187.212 103.195 0c3.78119,0 6.71561,0.990566 8.81391,2.98768 2.10362,1.98646 3.14744,4.77176 3.14744,8.3346 0,3.56284 -1.04382,6.34282 -3.14744,8.33993 -2.0983,1.99178 -5.03272,2.98768 -8.81391,2.98768l-115.784 0z"/>
   <path id="_482094992" class="fil0" d="M3760.01 230.434c-3.97824,0 -7.0245,-1.09708 -9.11747,-3.30189 -2.10362,-2.20481 -3.14744,-5.39486 -3.14744,-9.59145l0 -200.11c0,-4.19659 1.04382,-7.45055 3.14744,-9.75122 2.09297,-2.31132 4.81969,-3.46698 8.17483,-3.46698 3.35514,0 5.82623,0.580493 7.39729,1.73615 1.57639,1.15034 3.40307,3.19538 5.5067,6.13512l129.679 172.817 -0.0479306 -168.103c0,-3.97824 1.04915,-7.07243 3.14212,-9.27724 2.0983,-2.20481 5.13923,-3.30721 9.12812,-3.30721 3.77587,0 6.65703,1.1024 8.64882,3.30721 1.99711,2.20481 2.98768,5.299 2.98768,9.27724l0 201.053c0,3.98889 -0.894705,7.07776 -2.67346,9.28256 -1.77876,2.20481 -4.35104,3.30189 -7.71151,3.30189 -3.13679,0 -5.66114,-0.628424 -7.54641,-1.88527 -1.8906,-1.25685 -3.87706,-3.25396 -5.97535,-5.97535l-129.509 -172.971 -0.122489 167.938c0,4.19659 -1.04915,7.38664 -3.14744,9.59145 -2.0983,2.20481 -5.03272,3.30189 -8.81391,3.30189z"/>
   <path id="_482095136" class="fil0" d="M2421.87 230.434c-3.97824,0 -7.0245,-1.09708 -9.11747,-3.30189 -2.10362,-2.20481 -3.14744,-5.39486 -3.14744,-9.59145l0 -200.11c0,-4.19659 1.04382,-7.45055 3.14744,-9.75122 2.09297,-2.31132 4.81437,-3.46698 8.17483,-3.46698 3.35514,0 5.82623,0.580493 7.39729,1.73615 1.57106,1.15034 3.40307,3.19538 5.5067,6.13512l129.679 172.817 -0.0532563 -168.103c0,-3.97824 1.05447,-7.07243 3.14744,-9.27724 2.09297,-2.20481 5.13923,-3.30721 9.12812,-3.30721 3.77054,0 6.65171,1.1024 8.64882,3.30721 1.99178,2.20481 2.98768,5.299 2.98768,9.27724l0 201.053c0,3.98889 -0.894705,7.07776 -2.67346,9.28256 -1.77876,2.20481 -4.35104,3.30189 -7.71151,3.30189 -3.14212,0 -5.66114,-0.628424 -7.55174,-1.88527 -1.88527,-1.25685 -3.87173,-3.25396 -5.97535,-5.97535l-129.503 -172.971 -0.122489 167.938c0,4.19659 -1.05447,7.38664 -3.14744,9.59145 -2.10362,2.20481 -5.03272,3.30189 -8.81391,3.30189z"/>
   <path id="_482095352" class="fil0" d="M2519.76 523.45c-3.97824,0 -7.0245,-1.1024 -9.11747,-3.30189 -2.10362,-2.21013 -3.14744,-5.40018 -3.14744,-9.59145l0 -200.116c0,-4.19659 1.04382,-7.44522 3.14744,-9.75122 2.09297,-2.306 4.81437,-3.46166 8.17483,-3.46166 3.35514,0 5.82623,0.575168 7.39729,1.73615 1.57106,1.15034 3.40307,3.19538 5.5067,6.12979l129.679 172.822 -0.0532563 -168.103c0,-3.98357 1.05447,-7.07776 3.14744,-9.27724 2.09297,-2.21013 5.13923,-3.30721 9.12812,-3.30721 3.77054,0 6.65171,1.09708 8.64882,3.30721 1.99178,2.19948 2.98768,5.29367 2.98768,9.27724l0 201.048c0,3.98889 -0.894705,7.07776 -2.67346,9.28789 -1.77876,2.19948 -4.35104,3.30189 -7.71151,3.30189 -3.14212,0 -5.66114,-0.628424 -7.55174,-1.8906 -1.88527,-1.25685 -3.87173,-3.24863 -5.97535,-5.97535l-129.503 -172.966 -0.122489 167.938c0,4.19127 -1.05447,7.38132 -3.14744,9.59145 -2.10362,2.19948 -5.03272,3.30189 -8.81391,3.30189z"/>
   <path id="_482095376" class="fil0" d="M3410.8 523.45c-3.98357,0 -7.02983,-1.1024 -9.1228,-3.30189 -2.10362,-2.21013 -3.14744,-5.40018 -3.14744,-9.59145l0 -200.116c0,-4.19659 1.04382,-7.44522 3.14744,-9.75122 2.09297,-2.306 4.81969,-3.46166 8.17483,-3.46166 3.35514,0 5.82623,0.575168 7.39729,1.73615 1.57639,1.15034 3.40307,3.19538 5.5067,6.12979l129.679 172.822 -0.0479306 -168.103c0,-3.98357 1.04915,-7.07776 3.14212,-9.27724 2.0983,-2.21013 5.13923,-3.30721 9.12812,-3.30721 3.77587,0 6.65703,1.09708 8.64882,3.30721 1.99711,2.19948 2.98768,5.29367 2.98768,9.27724l0 201.048c0,3.98889 -0.889379,7.07776 -2.67346,9.28789 -1.77876,2.19948 -4.35104,3.30189 -7.71151,3.30189 -3.13679,0 -5.66114,-0.628424 -7.54641,-1.8906 -1.8906,-1.25685 -3.87706,-3.24863 -5.97535,-5.97535l-129.503 -172.966 -0.127815 167.938c0,4.19127 -1.04915,7.38132 -3.14744,9.59145 -2.0983,2.19948 -5.03272,3.30189 -8.80858,3.30189z"/>
   <path id="_482095184" class="fil0" d="M4030.91 523.45c-3.97824,0 -7.0245,-1.1024 -9.11747,-3.30189 -2.10362,-2.21013 -3.14744,-5.40018 -3.14744,-9.59145l0 -200.116c0,-4.19659 1.04382,-7.44522 3.14744,-9.75122 2.09297,-2.306 4.81437,-3.46166 8.17483,-3.46166 3.35514,0 5.82623,0.575168 7.39729,1.73615 1.57106,1.15034 3.40307,3.19538 5.5067,6.12979l129.679 172.822 -0.0532563 -168.103c0,-3.98357 1.05447,-7.07776 3.14744,-9.27724 2.09297,-2.21013 5.13923,-3.30721 9.12812,-3.30721 3.77587,0 6.65171,1.09708 8.64882,3.30721 1.99178,2.19948 2.98768,5.29367 2.98768,9.27724l0 201.048c0,3.98889 -0.894705,7.07776 -2.67346,9.28789 -1.77876,2.19948 -4.35104,3.30189 -7.71151,3.30189 -3.14212,0 -5.66114,-0.628424 -7.54641,-1.8906 -1.8906,-1.25685 -3.87706,-3.24863 -5.98068,-5.97535l-129.503 -172.966 -0.122489 167.938c0,4.19127 -1.05447,7.38132 -3.14744,9.59145 -2.0983,2.19948 -5.03272,3.30189 -8.81391,3.30189z"/>
   <path id="_482095232" class="fil0" d="M4962.85 816.461c-3.98357,0 -7.02983,-1.09708 -9.1228,-3.30189 -2.10362,-2.20481 -3.14744,-5.39486 -3.14744,-9.59145l0 -200.11c0,-4.19659 1.04382,-7.45055 3.14744,-9.75122 2.09297,-2.31132 4.81969,-3.46698 8.17483,-3.46698 3.35514,0 5.82623,0.580493 7.39729,1.73615 1.57639,1.15034 3.40307,3.19538 5.5067,6.13512l129.679 172.817 -0.0479306 -168.098c0,-3.98357 1.04915,-7.07776 3.14212,-9.28256 2.0983,-2.20481 5.13923,-3.30721 9.12812,-3.30721 3.77587,0 6.65703,1.1024 8.64882,3.30721 1.99711,2.20481 2.98768,5.299 2.98768,9.28256l0 201.048c0,3.98889 -0.889379,7.07776 -2.67346,9.28256 -1.77876,2.20481 -4.35104,3.30189 -7.71151,3.30189 -3.13679,0 -5.66114,-0.628424 -7.54641,-1.88527 -1.8906,-1.25685 -3.87706,-3.25396 -5.97535,-5.97535l-129.503 -172.971 -0.127815 167.938c0,4.19659 -1.04915,7.38664 -3.14744,9.59145 -2.0983,2.20481 -5.03272,3.30189 -8.80858,3.30189z"/>
   <path id="_482095712" class="fil0" d="M3353.82 816.461c-3.98357,0 -7.02983,-1.09708 -9.1228,-3.30189 -2.0983,-2.20481 -3.14744,-5.39486 -3.14744,-9.59145l0 -200.11c0,-4.19659 1.04915,-7.45055 3.14744,-9.75122 2.09297,-2.31132 4.81969,-3.46698 8.18016,-3.46698 3.34982,0 5.82091,0.580493 7.39729,1.73615 1.57106,1.15034 3.40307,3.19538 5.50137,6.13512l129.679 172.817 -0.0479306 -168.098c0,-3.98357 1.04915,-7.07776 3.14212,-9.28256 2.0983,-2.20481 5.13923,-3.30721 9.12812,-3.30721 3.77587,0 6.65703,1.1024 8.64882,3.30721 1.99711,2.20481 2.98768,5.299 2.98768,9.28256l0 201.048c0,3.98889 -0.889379,7.07776 -2.67346,9.28256 -1.77876,2.20481 -4.35104,3.30189 -7.71151,3.30189 -3.13679,0 -5.66114,-0.628424 -7.54641,-1.88527 -1.88527,-1.25685 -3.87706,-3.25396 -5.97535,-5.97535l-129.503 -172.971 -0.127815 167.938c0,4.19659 -1.04915,7.38664 -3.14744,9.59145 -2.0983,2.20481 -5.02739,3.30189 -8.80858,3.30189z"/>
   <path id="_482095760" class="fil0" d="M1974.47 523.45c-3.98357,0 -7.0245,-1.1024 -9.1228,-3.30189 -2.0983,-2.21013 -3.14212,-5.40018 -3.14212,-9.59145l0 -200.116c0,-4.19659 1.04382,-7.44522 3.14212,-9.75122 2.0983,-2.306 4.81969,-3.46166 8.18016,-3.46166 3.34982,0 5.82623,0.575168 7.39729,1.73615 1.57106,1.15034 3.40307,3.19538 5.50137,6.12979l129.684 172.822 -0.0532563 -168.103c0,-3.98357 1.04915,-7.07776 3.14744,-9.27724 2.09297,-2.21013 5.13923,-3.30721 9.12812,-3.30721 3.77054,0 6.65171,1.09708 8.64882,3.30721 1.99178,2.19948 2.98768,5.29367 2.98768,9.27724l0 201.048c0,3.98889 -0.894705,7.07776 -2.67346,9.28789 -1.78408,2.19948 -4.35636,3.30189 -7.71151,3.30189 -3.14212,0 -5.66114,-0.628424 -7.55174,-1.8906 -1.88527,-1.25685 -3.87173,-3.24863 -5.97535,-5.97535l-129.503 -172.966 -0.127815 167.938c0,4.19127 -1.04915,7.38132 -3.14212,9.59145 -2.10362,2.19948 -5.03272,3.30189 -8.81391,3.30189z"/>
   <path id="_482096168" class="fil0" d="M3599.55 231.074c-20.5516,0 -38.435,-4.67057 -53.645,-14.0064 -15.2047,-9.3305 -26.9477,-22.5008 -35.2397,-39.4895 -8.28135,-16.9887 -12.4194,-37.1249 -12.4194,-60.4086 0,-17.6225 2.3486,-33.4023 7.07243,-47.3555 4.7185,-13.9478 11.4874,-25.7973 20.296,-35.5539 8.80858,-9.75122 19.4545,-17.2976 31.9324,-22.6499 12.4833,-5.35225 26.4843,-8.02039 42.0032,-8.02039 20.9776,0 39.0741,4.61199 54.2788,13.8413 15.21,9.22931 26.953,22.2824 35.2343,39.1753 8.28667,16.8822 12.43,36.9652 12.43,60.2488 0,17.6172 -2.41251,33.4556 -7.2322,47.5099 -4.83034,14.0543 -11.6471,26.0104 -20.4557,35.8628 -8.81391,9.85773 -19.4545,17.4627 -31.9378,22.815 -12.4779,5.34693 -26.5802,8.03104 -42.3174,8.03104zm0 -22.9747c15.9449,0 29.4188,-3.56817 40.4321,-10.6992 11.0134,-7.12569 19.4545,-17.5107 25.334,-31.1496 5.86884,-13.6336 8.80326,-29.9992 8.80326,-49.081 0,-28.7371 -6.45466,-51.0248 -19.348,-66.8632 -12.904,-15.8331 -31.3094,-23.7523 -55.2214,-23.7523 -15.5189,0 -28.785,3.56817 -39.7931,10.6939 -11.0134,7.13634 -19.4652,17.4627 -25.334,30.9951 -5.87416,13.5271 -8.80858,29.8342 -8.80858,48.9265 0,28.524 6.50259,50.8118 19.5024,66.8632 13.0105,16.0461 31.1602,24.0665 54.4332,24.0665z"/>
   <path id="_482095904" class="fil0" d="M3438.46 230.434c-4.19659,0 -7.39729,-1.20892 -9.59145,-3.6161 -2.20481,-2.41251 -3.30721,-5.71972 -3.30721,-9.91099l0 -199.162c0,-4.40429 1.1024,-7.76476 3.30721,-10.0654 2.19416,-2.31132 5.39486,-3.46698 9.59145,-3.46698 4.19659,0 7.39729,1.15566 9.59145,3.46698 2.21013,2.30067 3.31254,5.66114 3.31254,10.0654l0 199.162c0,4.19127 -1.05447,7.49848 -3.14744,9.91099 -2.10362,2.40718 -5.35225,3.6161 -9.75655,3.6161z"/>
   <path id="_482095952" class="fil0" d="M3303.47 230.434c-3.98357,0 -7.12569,-1.20892 -9.43701,-3.6161 -2.306,-2.41251 -3.45633,-5.71972 -3.45633,-9.91099l0 -188.149 -70.7935 0c-3.78119,0 -6.71029,-1.04915 -8.81391,-3.14744 -2.09297,-2.0983 -3.14212,-4.82502 -3.14212,-8.18016 0,-3.56284 1.04915,-6.29489 3.14212,-8.18016 2.10362,-1.8906 5.03272,-2.82791 8.81391,-2.82791l167.699 0c3.77587,0 6.71561,0.93731 8.80858,2.82791 2.09297,1.88527 3.14212,4.61732 3.14212,8.18016 0,3.56284 -1.04915,6.34282 -3.14212,8.33993 -2.09297,1.99178 -5.03272,2.98768 -8.80858,2.98768l-70.7882 0 0 188.149c0,4.19127 -1.1024,7.49848 -3.30721,9.91099 -2.20481,2.40718 -5.5067,3.6161 -9.91631,3.6161z"/>
   <path id="_482096216" class="fil0" d="M3002.07 230.434c-3.35514,0 -6.03393,-0.782867 -8.02039,-2.35925 -2.00244,-1.57106 -3.15277,-3.66936 -3.46698,-6.28956 -0.314212,-2.62021 0.260956,-5.61853 1.73083,-8.96835l86.5201 -196.963c1.89592,-4.19659 4.14866,-7.18427 6.76887,-8.96835 2.62553,-1.77343 5.5067,-2.67346 8.64882,-2.67346 3.14744,0 6.03393,0.900031 8.65414,2.67346 2.62021,1.78408 4.77176,4.77176 6.44933,8.96835l86.845 196.963c1.67225,3.34982 2.35925,6.39608 2.04504,9.1228 -0.324863,2.72672 -1.42194,4.83034 -3.31254,6.29489 -1.88527,1.46455 -4.50015,2.19948 -7.86062,2.19948 -3.77587,0 -6.81147,-0.990566 -9.12812,-2.98768 -2.30067,-1.99178 -4.19659,-4.87295 -5.66114,-8.65414l-20.4504 -47.233 -115.577 0.042605 -20.0297 47.1904c-1.8906,3.98889 -3.87706,6.92331 -5.98068,8.81391 -2.09297,1.88527 -4.81969,2.82791 -8.17483,2.82791zm91.867 -193.815l-48.1223 113.287 96.9157 -0.0159769 -48.1596 -113.271 -0.633749 0z"/>
   <path id="_482096792" class="fil0" d="M2175.51 230.434c-3.34982,0 -6.02861,-0.782867 -8.02039,-2.35925 -1.99711,-1.57106 -3.14744,-3.66936 -3.46698,-6.28956 -0.314212,-2.62021 0.266281,-5.61853 1.73083,-8.96835l86.5254 -196.963c1.8906,-4.19659 4.14334,-7.18427 6.76887,-8.96835 2.62021,-1.77343 5.50137,-2.67346 8.64882,-2.67346 3.14212,0 6.02861,0.900031 8.65414,2.67346 2.61488,1.78408 4.76643,4.77176 6.44933,8.96835l86.8396 196.963c1.67757,3.34982 2.35925,6.39608 2.04504,9.1228 -0.319538,2.72672 -1.42194,4.83034 -3.30721,6.29489 -1.88527,1.46455 -4.50548,2.19948 -7.86062,2.19948 -3.77587,0 -6.8168,-0.990566 -9.12812,-2.98768 -2.306,-1.99178 -4.19659,-4.87295 -5.66114,-8.65414l-20.4504 -47.233 -115.577 0.042605 -20.0297 47.1904c-1.89592,3.98889 -3.88238,6.92331 -5.98068,8.81391 -2.0983,1.88527 -4.81969,2.82791 -8.18016,2.82791zm91.8724 -193.815l-48.1223 113.287 96.9157 -0.0159769 -48.1596 -113.271 -0.633749 0z"/>
   <path id="_482096648" class="fil0" d="M3107.47 816.461c-3.35514,0 -6.03393,-0.782867 -8.02039,-2.35925 -2.00244,-1.57106 -3.15277,-3.66936 -3.46698,-6.28956 -0.314212,-2.62021 0.266281,-5.61321 1.73083,-8.96835l86.5201 -196.963c1.89592,-4.19127 4.14866,-7.17894 6.76887,-8.96835 2.62553,-1.77343 5.5067,-2.67346 8.64882,-2.67346 3.14744,0 6.03393,0.900031 8.65414,2.67346 2.62021,1.78941 4.77176,4.77709 6.44933,8.96835l86.845 196.963c1.67225,3.35514 2.35925,6.39608 2.04504,9.1228 -0.319538,2.72672 -1.42194,4.83034 -3.31254,6.29489 -1.88527,1.46455 -4.50015,2.19948 -7.86062,2.19948 -3.77587,0 -6.81147,-0.990566 -9.12812,-2.98768 -2.30067,-1.99178 -4.19659,-4.87295 -5.66114,-8.65414l-20.4504 -47.233 -115.577 0.042605 -20.0297 47.1904c-1.8906,3.98889 -3.87706,6.92864 -5.98068,8.81391 -2.09297,1.88527 -4.81969,2.82791 -8.17483,2.82791zm91.867 -193.815l-48.1223 113.292 96.9157 -0.0213025 -48.1596 -113.271 -0.633749 0z"/>
   <path id="_482096984" class="fil0" d="M2849.15 228.235c-4.19659,0 -7.4399,-1.20892 -9.75122,-3.6161 -2.306,-2.41251 -3.45633,-5.71972 -3.45633,-9.91631l0 -196.329c0,-4.40429 1.1024,-7.75944 3.30189,-10.0708 2.19948,-2.306 5.39486,-3.46166 9.59145,-3.46166 4.19659,0 7.39729,1.15566 9.6021,3.46166 2.19948,2.31132 3.30189,5.66647 3.30189,10.0708l0 187.212 103.195 0c3.78119,0 6.72094,0.990566 8.81391,2.98768 2.10362,1.98646 3.14744,4.77176 3.14744,8.3346 0,3.56284 -1.04382,6.34282 -3.14744,8.33993 -2.09297,1.99178 -5.03272,2.98768 -8.81391,2.98768l-115.784 0z"/>
   <path id="_482096240" class="fil0" d="M2714.17 231.074c-9.85241,0 -19.5024,-0.846774 -28.9448,-2.52435 -9.44233,-1.67225 -18.1977,-4.09541 -26.2713,-7.24285 -8.07365,-3.13679 -15.3644,-7.12569 -21.867,-11.9507 -2.51902,-1.88527 -4.24985,-4.03682 -5.19248,-6.45466 -0.942636,-2.40718 -1.15034,-4.81969 -0.628424,-7.2322 0.527237,-2.40718 1.57106,-4.45222 3.14744,-6.12979 1.57106,-1.6829 3.51491,-2.62553 5.81558,-2.83323 2.31665,-0.213025 4.83034,0.521911 7.55706,2.19416 9.43168,6.71561 19.5024,11.5939 30.2016,14.6401 10.6939,3.03561 22.7617,4.55874 36.1823,4.55874 18.8793,0 32.8804,-3.51491 42.0032,-10.5447 9.12812,-7.0245 13.6869,-16.3071 13.6869,-27.8424 0,-9.43701 -3.30189,-16.8343 -9.90566,-22.1812 -6.61443,-5.34693 -17.6758,-9.59678 -33.1999,-12.7442l-32.7153 -6.60378c-19.7208,-4.19659 -34.4568,-11.0666 -44.208,-20.6102 -9.75122,-9.54885 -14.6348,-22.2824 -14.6348,-38.2327 0,-9.85241 1.99711,-18.8208 5.97535,-26.8944 3.98889,-8.07897 9.54885,-15.0023 16.6852,-20.7699 7.12569,-5.76233 15.6254,-10.2252 25.4778,-13.3726 9.86306,-3.14744 20.7646,-4.71318 32.726,-4.71318 13.2129,0 25.5364,1.83202 36.9705,5.5067 11.4235,3.66936 21.7605,9.17605 30.9898,16.5148 2.306,1.8906 3.87706,4.03682 4.7185,6.44933 0.841449,2.41251 0.942636,4.7185 0.319538,6.92331 -0.628424,2.20481 -1.73615,4.0315 -3.30721,5.5067 -1.57639,1.46455 -3.56817,2.306 -5.98068,2.5137 -2.41251,0.207699 -5.08065,-0.628424 -8.02572,-2.5137 -8.38786,-6.30021 -17.0953,-10.8589 -26.1115,-13.6869 -9.01628,-2.83323 -18.9805,-4.24985 -29.8874,-4.24985 -11.1252,0 -20.7167,1.6829 -28.785,5.03272 -8.0843,3.36047 -14.3739,8.23342 -18.8847,14.6348 -4.5108,6.39608 -6.76354,13.788 -6.76354,22.1759 0,10.0708 3.08886,18.0432 9.27724,23.9174 6.1937,5.86884 16.3124,10.1719 30.3667,12.8987l32.7206 6.92331c21.1853,4.40962 36.8693,11.0613 47.0412,19.9764 10.1719,8.9151 15.2579,21.0256 15.2579,36.3367 0,9.23463 -1.88527,17.729 -5.66647,25.4831 -3.77054,7.76476 -9.22931,14.4324 -16.355,19.9871 -7.13634,5.55995 -15.7372,9.80448 -25.8027,12.7442 -10.0708,2.92909 -21.3984,4.40962 -33.9828,4.40962z"/>
   <path id="_482096312" class="fil0" d="M1982.65 230.434c-4.19127,0 -7.39729,-1.20892 -9.59678,-3.6161 -2.19948,-2.41251 -3.30189,-5.71972 -3.30189,-9.91099l0 -197.277c0,-4.40429 1.15566,-7.70618 3.46166,-9.90566 2.306,-2.20481 5.5493,-3.30189 9.74589,-3.30189l74.5747 0c23.699,0 41.9499,5.5493 54.7474,16.6745 12.7975,11.1146 19.1882,26.9477 19.1882,47.5099 0,12.9999 -2.88116,24.2795 -8.64882,33.8177 -5.76765,9.54885 -14.2141,16.7864 -25.334,21.7126 -5.34693,2.3699 -11.2104,4.16996 -17.5746,5.40018l0 -0.0692331c3.0143,1.03317 5.83156,2.44979 8.45709,4.2605 6.08186,4.19659 11.6365,10.9069 16.6745,20.1362l30.2069 56.3238c1.67757,2.93442 2.45511,5.82623 2.35925,8.64882 -0.101187,2.83856 -1.1024,5.13923 -2.993,6.92331 -1.88527,1.78408 -4.61199,2.67346 -8.18016,2.67346 -3.56817,0 -6.49726,-0.841449 -8.80858,-2.5137 -2.306,-1.6829 -4.29245,-4.09008 -5.97535,-7.2322l-34.3024 -63.5613c-4.81437,-9.01628 -10.385,-15.0502 -16.6692,-18.0911 -6.29489,-3.04093 -14.5762,-4.56406 -24.8547,-4.56406l-40.2724 0 0 82.4354c0,4.19127 -1.04915,7.49848 -3.15277,9.91099 -2.09297,2.40718 -5.34693,3.6161 -9.75122,3.6161zm12.904 -116.413l58.2038 0c17.2018,0 30.2069,-3.62143 39.0102,-10.8589 8.81391,-7.2322 13.2182,-18.0805 13.2182,-32.5555 0,-14.0597 -4.40429,-24.7002 -13.2182,-31.9378 -8.80326,-7.23752 -21.8084,-10.8536 -39.0102,-10.8536l-58.2038 0 0 86.2059z"/>
   <path id="_482097272" class="fil0" d="M3120.07 523.45c-4.19659,0 -7.39729,-1.20892 -9.6021,-3.6161 -2.19948,-2.41783 -3.30189,-5.71972 -3.30189,-9.91631l0 -197.277c0,-4.39897 1.16099,-7.70085 3.46166,-9.90566 2.306,-2.19948 5.55463,-3.30189 9.75122,-3.30189l74.5694 0c23.699,0 41.9499,5.55463 54.7528,16.6745 12.7922,11.1146 19.1829,26.9477 19.1829,47.5099 0,13.0052 -2.88116,24.2849 -8.64882,33.8177 -5.76765,9.54885 -14.2088,16.7917 -25.334,21.7126 -5.3416,2.37523 -11.2051,4.17529 -17.5746,5.40551l0 -0.0692331c3.0143,1.03317 5.83156,2.44979 8.45709,4.2605 6.08186,4.19127 11.6365,10.9069 16.6745,20.1309l30.2069 56.3238c1.67757,2.93975 2.46044,5.82623 2.35925,8.64882 -0.101187,2.83856 -1.1024,5.13923 -2.98768,6.92864 -1.8906,1.77876 -4.61732,2.67346 -8.18549,2.67346 -3.56817,0 -6.49726,-0.841449 -8.80858,-2.51902 -2.306,-1.67757 -4.29245,-4.08475 -5.97535,-7.2322l-34.297 -63.556c-4.81969,-9.02161 -10.385,-15.0555 -16.6692,-18.0911 -6.30021,-3.04626 -14.5816,-4.56939 -24.86,-4.56939l-40.2724 0 0 82.4354c0,4.19659 -1.04915,7.49848 -3.15277,9.91631 -2.09297,2.40718 -5.34693,3.6161 -9.74589,3.6161zm12.8987 -116.413l58.2038 0c17.2071,0 30.2069,-3.62675 39.0155,-10.8589 8.80858,-7.2322 13.2129,-18.0858 13.2129,-32.5609 0,-14.0543 -4.40429,-24.7002 -13.2129,-31.9324 -8.80858,-7.24285 -21.8084,-10.8589 -39.0155,-10.8589l-58.2038 0 0 86.2112z"/>
   <path id="_482097368" class="fil0" d="M1844.83 230.749c-6.49726,0 -11.482,-1.82669 -14.9437,-5.50137 -3.46166,-3.67468 -5.19248,-8.75533 -5.19248,-15.2632l0 -169.898 -61.3565 0c-5.44811,0 -9.69796,-1.52313 -12.7336,-4.55874 -3.04626,-3.04626 -4.56406,-7.18427 -4.56406,-12.43 0,-5.45877 1.5178,-9.6021 4.56406,-12.43 3.03561,-2.83856 7.28546,-4.24452 12.7336,-4.24452l162.985 0c5.45877,0 9.69796,1.40597 12.7495,4.24452 3.03561,2.82791 4.55874,6.97124 4.55874,12.43 0,5.24574 -1.52313,9.38375 -4.55874,12.43 -3.05158,3.03561 -7.29078,4.55874 -12.7495,4.55874l-61.3565 0 0 169.898c0,6.50791 -1.67225,11.5886 -5.03272,15.2632 -3.35514,3.67468 -8.39319,5.50137 -15.1035,5.50137z"/>
   <path id="_482097392" class="fil0" d="M1792.61 521.246c-6.92331,0 -12.2223,-1.83202 -15.897,-5.50137 -3.66936,-3.67468 -5.50137,-8.96835 -5.50137,-15.897l0 -179.021c0,-6.92331 1.83202,-12.2223 5.50137,-15.8917 3.67468,-3.66936 8.97368,-5.50137 15.897,-5.50137l112.323 0c5.24574,0 9.28256,1.35803 12.1105,4.08475 2.83323,2.73205 4.24985,6.6091 4.24985,11.6471 0,5.24042 -1.41662,9.28256 -4.24985,12.1105 -2.82791,2.83323 -6.86473,4.24985 -12.1105,4.24985l-95.0198 0 0 61.0317 88.0965 0c5.45344,0 9.54352,1.36869 12.2702,4.09541 2.72672,2.72672 4.09008,6.71561 4.09008,11.956 0,5.24042 -1.36336,9.22931 -4.09008,11.956 -2.72672,2.72672 -6.8168,4.09008 -12.2702,4.09008l-88.0965 0 0 64.4986 95.0198 0c5.24574,0 9.28256,1.36869 12.1105,4.09008 2.83323,2.72672 4.24985,6.71029 4.24985,11.956 0,5.24574 -1.41662,9.22931 -4.24985,11.956 -2.82791,2.73205 -6.86473,4.09008 -12.1105,4.09008l-112.323 0z"/>
   <path id="_482097248" class="fil0" d="M2439.53 523.45c-4.19659,0 -7.39729,-1.20892 -9.59678,-3.6161 -2.20481,-2.41783 -3.30189,-5.71972 -3.30189,-9.91099l0 -199.168c0,-4.39897 1.09708,-7.75944 3.30189,-10.0654 2.19948,-2.306 5.40018,-3.46166 9.59678,-3.46166 4.19659,0 7.39729,1.15566 9.59145,3.46166 2.20481,2.306 3.30721,5.66647 3.30721,10.0654l0 199.168c0,4.19127 -1.04915,7.49315 -3.14744,9.91099 -2.0983,2.40718 -5.35225,3.6161 -9.75122,3.6161z"/>
   <path id="_482097584" class="fil0" d="M2754.48 521.246c-4.61732,0 -8.1269,-1.20359 -10.5394,-3.6161 -2.40718,-2.41251 -3.6161,-5.9221 -3.6161,-10.5447l0 -193.491c0,-4.61732 1.20892,-8.13223 3.6161,-10.5447 2.41251,-2.41251 5.9221,-3.6161 10.5394,-3.6161l117.047 0c3.56817,0 6.28956,0.942636 8.18016,2.83323 1.88527,1.88527 2.82791,4.50548 2.82791,7.86062 0,3.56284 -0.942636,6.29489 -2.82791,8.18016 -1.8906,1.8906 -4.61199,2.83323 -8.18016,2.83323l-106.033 0 0 76.7689 99.4241 0c3.56284,0 6.28956,0.889379 8.18549,2.67879 1.88527,1.77876 2.82791,4.45222 2.82791,8.02039 0,3.56284 -0.942636,6.28956 -2.82791,8.18549 -1.89592,1.88527 -4.62264,2.82791 -8.18549,2.82791l-99.4241 0 0 79.9163 106.033 0c3.56817,0 6.28956,0.942636 8.18016,2.83323 1.88527,1.88527 2.82791,4.5108 2.82791,7.86062 0,3.56817 -0.942636,6.29489 -2.82791,8.18016 -1.8906,1.8906 -4.61199,2.83323 -8.18016,2.83323l-117.047 0z"/>
   <path id="_482098160" class="fil0" d="M2937.91 521.246c-4.61732,0 -8.1269,-1.20359 -10.5394,-3.6161 -2.41251,-2.41251 -3.6161,-5.9221 -3.6161,-10.5447l0 -193.491c0,-4.61732 1.20359,-8.13223 3.6161,-10.5447 2.41251,-2.41251 5.9221,-3.6161 10.5394,-3.6161l117.047 0c3.56284,0 6.28956,0.942636 8.18016,2.83323 1.88527,1.88527 2.82791,4.50548 2.82791,7.86062 0,3.56284 -0.942636,6.29489 -2.82791,8.18016 -1.8906,1.8906 -4.61732,2.83323 -8.18016,2.83323l-106.033 0 0 76.7689 99.4241 0c3.56284,0 6.28956,0.889379 8.18016,2.67879 1.8906,1.77876 2.83323,4.45222 2.83323,8.02039 0,3.56284 -0.942636,6.28956 -2.83323,8.18549 -1.8906,1.88527 -4.61732,2.82791 -8.18016,2.82791l-99.4241 0 0 79.9163 106.033 0c3.56284,0 6.28956,0.942636 8.18016,2.83323 1.88527,1.88527 2.82791,4.5108 2.82791,7.86062 0,3.56817 -0.942636,6.29489 -2.82791,8.18016 -1.8906,1.8906 -4.61732,2.83323 -8.18016,2.83323l-117.047 0z"/>
   <path id="_482098136" class="fil0" d="M3330.57 523.45c-4.19659,0 -7.39729,-1.20892 -9.59678,-3.6161 -2.20481,-2.41783 -3.30721,-5.71972 -3.30721,-9.91099l0 -199.168c0,-4.39897 1.1024,-7.75944 3.30721,-10.0654 2.19948,-2.306 5.40018,-3.46166 9.59678,-3.46166 4.19659,0 7.39197,1.15566 9.59145,3.46166 2.20481,2.306 3.30721,5.66647 3.30721,10.0654l0 199.168c0,4.19127 -1.04915,7.49315 -3.14744,9.91099 -2.0983,2.40718 -5.35225,3.6161 -9.75122,3.6161z"/>
   <path id="_482098208" class="fil0" d="M2173.18 411.516l-0.00532563 -1.01719c0,-17.6225 2.35925,-33.4556 7.07776,-47.5099 4.7185,-14.0543 11.6365,-25.9624 20.7646,-35.7136 29.1152,-31.123 76.8541,-36.8587 116.258,-25.1689 12.3714,3.66936 23.3848,9.48494 33.0349,17.4627 2.5137,1.88527 4.09008,3.98357 4.7185,6.28956 0.633749,2.306 0.580493,4.61732 -0.154443,6.92331 -0.734936,2.306 -1.8906,4.24452 -3.46166,5.82091 -1.57639,1.57106 -3.56817,2.46044 -5.97535,2.67346 -2.41783,0.213025 -4.87827,-0.521911 -7.39729,-2.20481 -8.59556,-6.71029 -17.7184,-11.5832 -27.3737,-14.6242 -38.4457,-12.1371 -83.6123,-2.40718 -101.155,36.9652 -5.97535,13.4259 -8.96303,29.7862 -8.96303,49.0863l0.0159769 1.01719 -0.0159769 1.01719c0,19.3001 2.98768,35.6604 8.96303,49.081 6.18838,13.8892 15.8065,24.0772 27.3577,30.9312 4.61732,2.47642 9.37843,4.49483 14.2673,6.03926 9.60743,3.03561 19.6729,4.6972 29.6424,4.87827l0.330189 0c9.91631,-0.181071 19.9498,-1.84267 29.5572,-4.87827 6.33217,-1.99178 12.43,-4.77709 18.3042,-8.34525 10.0015,-6.75822 18.3255,-16.2219 23.8481,-28.6252 4.9049,-11.0081 7.4399,-23.9919 8.19081,-38.9569l-51.7012 0c-4.35104,0 -7.61564,-1.09175 -9.79382,-3.26461 -2.18351,-2.18351 -3.26993,-5.08597 -3.26993,-8.71272 0,-3.87706 1.09175,-6.77952 3.26993,-8.71272 2.17818,-1.9332 5.44279,-2.90247 9.79382,-2.90247l63.9128 0c4.11138,0 7.29078,1.11306 9.43701,3.26461 2.10362,2.10362 3.28059,5.25107 3.26993,9.1867l0.0479306 0 0.00532563 1.01719c0.0213025,4.45222 -0.0692331,8.84054 -0.276933,13.1383l-0.106513 6.57715c-0.404748,5.67179 -1.42194,11.1039 -2.3699,16.4242l-0.362143 1.81604 -0.122489 0c-3.53622,17.4414 -10.3157,32.8165 -21.9576,45.2678 -20.4824,21.8936 -50.21,31.2295 -79.7619,30.7555 -29.6265,0.532563 -59.4553,-8.78728 -80.0069,-30.7555 -9.12812,-9.75655 -16.0461,-21.6593 -20.7646,-35.7136 -4.7185,-14.0543 -7.07776,-29.8927 -7.07776,-47.5099l0.00532563 -1.01719z"/>
   <path id="_482097992" class="fil0" d="M3950.68 523.45c-4.19659,0 -7.39729,-1.20892 -9.59145,-3.6161 -2.20481,-2.41783 -3.30721,-5.71972 -3.30721,-9.91631l0 -199.162c0,-4.40429 1.1024,-7.75944 3.30721,-10.0654 2.19416,-2.306 5.39486,-3.46166 9.59145,-3.46166 4.19659,0 7.39729,1.15566 9.59145,3.46166 2.21013,2.306 3.31254,5.66114 3.31254,10.0654l0 199.162c0,4.19659 -1.05447,7.49848 -3.14744,9.91631 -2.0983,2.40718 -5.35225,3.6161 -9.75655,3.6161z"/>
   <path id="_482097944" class="fil0" d="M5197.57 814.261c-4.60667,0 -8.1269,-1.20892 -10.5341,-3.6161 -2.40718,-2.41783 -3.6161,-5.92742 -3.6161,-10.5447l0 -193.496c0,-4.61732 1.20892,-8.13223 3.6161,-10.5394 2.40718,-2.41783 5.92742,-3.62675 10.5341,-3.62675l117.052 0c3.56817,0 6.28956,0.947961 8.17483,2.83856 1.8906,1.8906 2.83323,4.5108 2.83323,7.86595 0,3.56284 -0.942636,6.28956 -2.83323,8.17483 -1.88527,1.89592 -4.60667,2.83856 -8.17483,2.83856l-106.033 0 0 76.7636 99.4241 0c3.56284,0 6.29489,0.894705 8.18016,2.67879 1.8906,1.78408 2.83323,4.45755 2.83323,8.02039 0,3.56817 -0.942636,6.29489 -2.83323,8.18549 -1.88527,1.88527 -4.61732,2.83323 -8.18016,2.83323l-99.4241 0 0 79.911 106.033 0c3.56817,0 6.28956,0.942636 8.17483,2.83323 1.8906,1.8906 2.83323,4.5108 2.83323,7.86595 0,3.56817 -0.942636,6.28956 -2.83323,8.17483 -1.88527,1.89592 -4.60667,2.83856 -8.17483,2.83856l-117.052 0z"/>
   <path id="_482098112" class="fil0" d="M4882.62 816.461c-4.20192,0 -7.39729,-1.20359 -9.59678,-3.6161 -2.19948,-2.41251 -3.30189,-5.7144 -3.30189,-9.91099l0 -199.162c0,-4.40429 1.1024,-7.76476 3.30189,-10.0654 2.19948,-2.31132 5.39486,-3.46698 9.59678,-3.46698 4.19659,0 7.39197,1.15566 9.59678,3.46698 2.19948,2.30067 3.30189,5.66114 3.30189,10.0654l0 199.162c0,4.19659 -1.04382,7.49848 -3.14744,9.91099 -2.0983,2.41251 -5.35225,3.6161 -9.75122,3.6161z"/>
   <path id="_482098664" class="fil0" d="M4753.94 817.089c-21.8138,0 -40.4854,-4.61199 -56.0096,-13.8413 -15.5189,-9.22931 -27.4216,-22.3357 -35.703,-39.3297 -8.28667,-16.9887 -12.43,-37.2314 -12.43,-60.7228 0,-17.6225 2.35925,-33.4023 7.07776,-47.3555 4.72383,-13.9425 11.5353,-25.7973 20.4451,-35.5539 8.92042,-9.74589 19.8806,-17.303 32.8857,-22.6499 12.9999,-5.35225 27.5814,-8.02039 43.734,-8.02039 13.0052,0 25.3819,1.83202 37.1249,5.5067 11.7483,3.66403 21.9203,9.06954 30.5212,16.1952 2.72139,2.10362 4.56406,4.46287 5.50137,7.08308 0.942636,2.62553 1.04915,5.13923 0.314212,7.54641 -0.729611,2.41783 -1.99178,4.40962 -3.77587,5.97535 -1.77876,1.58171 -3.93031,2.3699 -6.44401,2.3699 -2.51902,0 -5.34693,-1.05447 -8.49437,-3.14744 -7.55174,-6.08186 -15.8437,-10.5927 -24.86,-13.5324 -9.01628,-2.93442 -18.7728,-4.39897 -29.259,-4.39897 -16.568,0 -30.6223,3.50959 -42.163,10.5341 -11.53,7.03515 -20.2374,17.255 -26.1115,30.6756 -5.87416,13.4259 -8.81391,29.6797 -8.81391,48.7721 0,19.0817 2.93975,35.3994 8.81391,48.9265 5.87416,13.5271 14.5816,23.8055 26.1115,30.83 11.5406,7.02983 25.595,10.5394 42.163,10.5394 10.2785,0 20.035,-1.5178 29.259,-4.55874 9.22931,-3.04093 17.729,-7.59967 25.4884,-13.6815 3.14212,-2.10362 5.97535,-3.09951 8.49437,-2.99833 2.5137,0.106513 4.61199,0.894705 6.28956,2.36458 1.67757,1.46987 2.88649,3.35514 3.62143,5.66647 0.729611,2.30067 0.729611,4.71318 0,7.2322 -0.734936,2.5137 -2.36458,4.72383 -4.87827,6.6091 -8.81391,7.55174 -19.1403,13.2661 -30.9951,17.1485 -11.8495,3.87706 -24.4872,5.81558 -37.9078,5.81558z"/>
   <path id="_482099024" class="fil0" d="M4590.01 816.461c-4.19659,0 -7.39197,-1.20359 -9.59145,-3.6161 -2.19948,-2.41251 -3.30189,-5.7144 -3.30189,-9.91099l0 -199.162c0,-4.40429 1.1024,-7.76476 3.30189,-10.0654 2.19948,-2.31132 5.39486,-3.46698 9.59145,-3.46698 4.19659,0 7.39729,1.15566 9.6021,3.46698 2.19948,2.30067 3.30189,5.66114 3.30189,10.0654l0 199.162c0,4.19659 -1.04915,7.49848 -3.14744,9.91099 -2.0983,2.41251 -5.35225,3.6161 -9.75655,3.6161z"/>
   <path id="_482099000" class="fil0" d="M4357.82 814.261c-4.61199,0 -8.1269,-1.20892 -10.5394,-3.6161 -2.40718,-2.41783 -3.6161,-5.92742 -3.6161,-10.5447l0 -193.496c0,-4.61732 1.20892,-8.13223 3.6161,-10.5394 2.41251,-2.41783 5.92742,-3.62675 10.5394,-3.62675l60.7281 0c35.8628,0 63.5613,9.44233 83.0691,28.3217 19.5024,18.8847 29.2537,46.3542 29.2537,82.4354 0,18.0379 -2.46576,33.9296 -7.39729,47.6643 -4.9262,13.7401 -12.217,25.334 -21.8564,34.7763 -9.65536,9.43168 -21.4037,16.5627 -35.245,21.3877 -13.8466,4.83034 -29.7862,7.23752 -47.8241,7.23752l-60.7281 0zm11.6418 -22.0215l47.1957 0c14.6827,0 27.427,-1.89592 38.2273,-5.66647 10.8057,-3.77587 19.8273,-9.33582 27.0595,-16.6799 7.24285,-7.33871 12.6377,-16.6213 16.2059,-27.837 3.56817,-11.2211 5.34693,-24.173 5.34693,-38.8611 0,-29.5732 -7.23752,-51.7598 -21.7072,-66.5437 -14.475,-14.7893 -36.1823,-22.1812 -65.1324,-22.1812l-47.1957 0 0 177.769z"/>
   <path id="_482099144" class="fil0" d="M4174.38 814.261c-4.61199,0 -8.1269,-1.20892 -10.5394,-3.6161 -2.40718,-2.41783 -3.6161,-5.92742 -3.6161,-10.5447l0 -193.496c0,-4.61732 1.20892,-8.13223 3.6161,-10.5394 2.41251,-2.41783 5.92742,-3.62675 10.5394,-3.62675l117.047 0c3.56817,0 6.28956,0.947961 8.18549,2.83856 1.87995,1.8906 2.82258,4.5108 2.82258,7.86595 0,3.56284 -0.942636,6.28956 -2.82258,8.17483 -1.89592,1.89592 -4.61732,2.83856 -8.18549,2.83856l-106.033 0 0 76.7636 99.4241 0c3.56817,0 6.29489,0.894705 8.18549,2.67879 1.88527,1.78408 2.82791,4.45755 2.82791,8.02039 0,3.56817 -0.942636,6.29489 -2.82791,8.18549 -1.8906,1.88527 -4.61732,2.83323 -8.18549,2.83323l-99.4241 0 0 79.911 106.033 0c3.56817,0 6.28956,0.942636 8.18549,2.83323 1.87995,1.8906 2.82258,4.5108 2.82258,7.86595 0,3.56817 -0.942636,6.28956 -2.82258,8.17483 -1.89592,1.89592 -4.61732,2.83856 -8.18549,2.83856l-117.047 0z"/>
   <path id="_482098640" class="fil0" d="M3902.86 816.775c-5.87416,0 -10.3796,-1.67757 -13.5324,-5.02739 -3.14212,-3.36047 -4.7185,-7.97779 -4.7185,-13.8466l0 -189.097c0,-6.08719 1.6829,-10.7524 5.03272,-14.0064 3.36047,-3.24331 7.97779,-4.87295 13.8466,-4.87295 5.24574,0 9.38375,1.00122 12.43,2.98768 3.03561,1.99711 5.81558,5.40551 8.3346,10.2305l72.5723 134.27 72.7906 -134.27c2.5137,-4.82502 5.24574,-8.23342 8.17483,-10.2305 2.94507,-1.98646 7.03515,-2.98768 12.2756,-2.98768 5.87416,0 10.385,1.62964 13.5271,4.87295 3.14744,3.25396 4.7185,7.9192 4.7185,14.0064l0 189.097c0,5.86884 -1.5178,10.4862 -4.55874,13.8466 -3.04093,3.34982 -7.59967,5.02739 -13.6869,5.02739 -5.86884,0 -10.3796,-1.67757 -13.5271,-5.02739 -3.15277,-3.36047 -4.72383,-7.97779 -4.72383,-13.8466l0 -133.13 -59.1464 107.961c-2.09297,3.56817 -4.30311,6.18305 -6.6091,7.86595 -2.306,1.67757 -5.45344,2.5137 -9.43701,2.5137 -3.98889,0 -7.2322,-0.894705 -9.75655,-2.67346 -2.5137,-1.78408 -4.7185,-4.35104 -6.6091,-7.70618l-59.205 -107.263 0.0532563 132.432c0,5.86884 -1.5178,10.4862 -4.55874,13.8466 -3.03561,3.34982 -7.60499,5.02739 -13.6869,5.02739z"/>
   <path id="_482065424" class="fil0" d="M3588.54 814.261c-4.61199,0 -8.1269,-1.20892 -10.5394,-3.6161 -2.40718,-2.41783 -3.6161,-5.92742 -3.6161,-10.5447l0 -193.496c0,-4.61732 1.20892,-8.13223 3.6161,-10.5394 2.41251,-2.41783 5.92742,-3.62675 10.5394,-3.62675l60.7228 0c35.8681,0 63.5613,9.44233 83.0691,28.3217 19.5078,18.8847 29.259,46.3542 29.259,82.4354 0,18.0379 -2.46576,33.9296 -7.39729,47.6643 -4.9262,13.7401 -12.217,25.334 -21.8617,34.7763 -9.65536,9.43168 -21.3984,16.5627 -35.2397,21.3877 -13.8466,4.83034 -29.7862,7.23752 -47.8294,7.23752l-60.7228 0zm11.6418 -22.0215l47.1957 0c14.6827,0 27.427,-1.89592 38.2273,-5.66647 10.8004,-3.77587 19.8273,-9.33582 27.0595,-16.6799 7.24285,-7.33871 12.6377,-16.6213 16.2059,-27.837 3.56284,-11.2211 5.34693,-24.173 5.34693,-38.8611 0,-29.5732 -7.23752,-51.7598 -21.7072,-66.5437 -14.475,-14.7893 -36.1823,-22.1812 -65.1324,-22.1812l-47.1957 0 0 177.769z"/>
   <path id="_482065376" class="fil0" d="M2804.47 816.461c-4.19659,0 -7.39729,-1.20359 -9.6021,-3.6161 -2.19948,-2.41251 -3.30189,-5.7144 -3.30189,-9.91099l0 -199.162c0,-4.40429 1.1024,-7.76476 3.30189,-10.0654 2.20481,-2.31132 5.40551,-3.46698 9.6021,-3.46698 4.19659,0 7.39197,1.15566 9.59145,3.46698 2.19948,2.30067 3.30189,5.66114 3.30189,10.0654l0 86.8396 133.098 0 0 -86.8396c0,-4.40429 1.09708,-7.76476 3.29656,-10.0654 2.20481,-2.31132 5.40018,-3.46698 9.59678,-3.46698 4.19659,0 7.39729,1.15566 9.59678,3.46698 2.20481,2.30067 3.30721,5.66114 3.30721,10.0654l0 199.162c0,4.19659 -1.1024,7.49848 -3.30721,9.91099 -2.19948,2.41251 -5.40018,3.6161 -9.59678,3.6161 -4.19659,0 -7.39197,-1.20359 -9.59678,-3.6161 -2.19948,-2.41251 -3.29656,-5.7144 -3.29656,-9.91099l0 -89.9924 -133.098 0 0 89.9924c0,4.19659 -1.04382,7.49848 -3.14212,9.91099 -2.0983,2.41251 -5.34693,3.6161 -9.75122,3.6161z"/>
   <path id="_482064776" class="fil0" d="M2669.49 816.461c-3.98357,0 -7.13634,-1.20359 -9.43701,-3.6161 -2.306,-2.41251 -3.46698,-5.7144 -3.46698,-9.91099l0 -188.149 -70.7882 0c-3.77587,0 -6.71029,-1.04915 -8.80858,-3.14744 -2.0983,-2.0983 -3.14212,-4.82502 -3.14212,-8.18016 0,-3.56284 1.04382,-6.28956 3.14212,-8.18016 2.0983,-1.8906 5.03272,-2.83856 8.80858,-2.83856l167.704 0c3.77054,0 6.71029,0.947961 8.79793,2.83856 2.10362,1.8906 3.15277,4.61732 3.15277,8.18016 0,3.56284 -1.04915,6.34282 -3.15277,8.33993 -2.08765,1.99178 -5.02739,2.98768 -8.79793,2.98768l-70.7989 0 0 188.149c0,4.19659 -1.09708,7.49848 -3.30189,9.91099 -2.20481,2.41251 -5.50137,3.6161 -9.91099,3.6161z"/>
   <path id="_482064968" class="fil0" d="M2444.53 814.261c-4.19659,0 -7.44522,-1.20892 -9.75122,-3.6161 -2.31132,-2.41783 -3.46166,-5.71972 -3.46166,-9.91631l0 -196.329c0,-4.40429 1.1024,-7.76476 3.30189,-10.0708 2.20481,-2.30067 5.40018,-3.46166 9.6021,-3.46166 4.19659,0 7.39197,1.16099 9.59145,3.46166 2.19948,2.306 3.30189,5.66647 3.30189,10.0708l0 187.212 103.205 0c3.77587,0 6.71029,0.990566 8.80858,2.98768 2.0983,1.98646 3.14212,4.76643 3.14212,8.3346 0,3.56284 -1.04382,6.34815 -3.14212,8.33993 -2.0983,1.99178 -5.03272,2.98768 -8.80858,2.98768l-115.79 0z"/>
   <path id="_482065088" class="fil0" d="M2196.28 816.775c-5.03272,0 -9.07487,-1.15566 -12.1158,-3.45633 -3.04093,-2.31132 -4.87295,-5.40551 -5.50137,-9.28789 -0.633749,-3.87706 0.101187,-8.22277 2.19948,-13.0584l83.0638 -184.059c2.72672,-6.08186 6.02861,-10.4329 9.91099,-13.0584 3.87706,-2.62021 8.33993,-3.93031 13.3726,-3.93031 4.82502,0 9.17605,1.3101 13.0584,3.93031 3.87706,2.62553 7.18427,6.97657 9.91099,13.0584l83.3727 184.059c2.306,4.83567 3.15277,9.22931 2.5137,13.2235 -0.623098,3.98357 -2.40718,7.07776 -5.33628,9.27724 -2.94507,2.20481 -6.82213,3.30189 -11.6525,3.30189 -5.86884,0 -10.4276,-1.41129 -13.6815,-4.24985 -3.24863,-2.82258 -6.12979,-7.18427 -8.64882,-13.0531l-15.7106 -36.4965 -108.19 -0.00532563 -15.4869 36.5018c-2.72672,6.08186 -5.55995,10.4862 -8.49437,13.2182 -2.93975,2.72139 -7.13634,4.08475 -12.5845,4.08475zm90.3013 -180.597l-39.7611 94.5778 80.5235 0.127815 -40.1339 -94.7056 -0.628424 0z"/>
   <path id="_482065808" class="fil0" d="M2027.95 814.261c-4.61199,0 -8.1269,-1.20892 -10.5341,-3.6161 -2.41251,-2.41783 -3.62143,-5.92742 -3.62143,-10.5447l0 -193.496c0,-4.61732 1.20892,-8.13223 3.62143,-10.5394 2.40718,-2.41783 5.9221,-3.62675 10.5341,-3.62675l117.052 0c3.56284,0 6.28956,0.947961 8.18016,2.83856 1.87995,1.8906 2.82791,4.5108 2.82791,7.86595 0,3.56284 -0.947961,6.28956 -2.82791,8.17483 -1.8906,1.89592 -4.61732,2.83856 -8.18016,2.83856l-106.039 0 0 76.7636 99.4241 0c3.56817,0 6.29489,0.894705 8.18549,2.67879 1.88527,1.78408 2.82791,4.45755 2.82791,8.02039 0,3.56817 -0.942636,6.29489 -2.82791,8.18549 -1.8906,1.88527 -4.61732,2.83323 -8.18549,2.83323l-99.4241 0 0 79.911 106.039 0c3.56284,0 6.28956,0.942636 8.18016,2.83323 1.87995,1.8906 2.82791,4.5108 2.82791,7.86595 0,3.56817 -0.947961,6.28956 -2.82791,8.17483 -1.8906,1.89592 -4.61732,2.83856 -8.18016,2.83856l-117.052 0z"/>
   <path id="_482065784" class="fil0" d="M1787.26 816.461c-4.19659,0 -7.39729,-1.20359 -9.59145,-3.6161 -2.21013,-2.41251 -3.31254,-5.7144 -3.31254,-9.91099l0 -199.162c0,-4.40429 1.1024,-7.76476 3.31254,-10.0654 2.19416,-2.31132 5.39486,-3.46698 9.59145,-3.46698 4.19659,0 7.39729,1.15566 9.59145,3.46698 2.21013,2.30067 3.31254,5.66114 3.31254,10.0654l0 86.8396 133.087 0 0 -86.8396c0,-4.40429 1.1024,-7.76476 3.30189,-10.0654 2.19948,-2.31132 5.40551,-3.46698 9.59678,-3.46698 4.19659,0 7.39197,1.15566 9.59678,3.46698 2.19948,2.30067 3.30721,5.66114 3.30721,10.0654l0 199.162c0,4.19659 -1.10773,7.49848 -3.30721,9.91099 -2.20481,2.41251 -5.40018,3.6161 -9.59678,3.6161 -4.19127,0 -7.39729,-1.20359 -9.59678,-3.6161 -2.19948,-2.41251 -3.30189,-5.7144 -3.30189,-9.91099l0 -89.9924 -133.087 0 0 89.9924c0,4.19659 -1.05447,7.49848 -3.14744,9.91099 -2.10362,2.41251 -5.35225,3.6161 -9.75655,3.6161z"/>
  </g>
  <polygon class="fil1" points="1532.59,0 1527.88,812.701 1255.41,812.701 1260.12,0 "/>
  <path class="fil2" d="M959.939 15.9662c-21.0043,238.221 -37.7587,494.814 -36.2941,755.701 68.1147,22.6605 154.443,41.0339 245.016,41.0339 21.0149,-238.226 37.764,-494.82 36.3048,-755.706 -68.1201,-22.6552 -154.443,-41.0286 -245.027,-41.0286z"/>
  <path class="fil2" d="M690.579 172.13c-43.9471,158.815 -79.3997,354.367 -78.4252,558.509 45.4116,45.3211 127.245,82.0626 217.578,82.0626 43.9577,-158.815 79.4051,-354.372 78.4305,-558.509 -45.4063,-45.3264 -127.24,-82.0626 -217.584,-82.0626z"/>
  <path class="fil2" d="M423.291 328.277c-66.9058,79.4104 -121.057,213.93 -120.567,361.317 22.7085,67.9869 100.047,123.107 190.141,123.107 66.9112,-79.4104 121.057,-213.93 120.567,-361.328 -22.7031,-67.9816 -100.042,-123.097 -190.141,-123.097z"/>
  <path class="fil2" d="M162.703 484.445c89.8539,0 162.698,73.483 162.698,164.125 0,90.6475 -72.8439,164.13 -162.698,164.13 -89.8593,0 -162.703,-73.483 -162.703,-164.13 0,-90.6421 72.8439,-164.125 162.703,-164.125z"/>
 </g>
</svg>
